<?xml version="1.0" encoding="utf-8" standalone="no"?>
<!DOCTYPE svg PUBLIC "-//W3C//DTD SVG 1.1//EN"
  "http://www.w3.org/Graphics/SVG/1.1/DTD/svg11.dtd">
<svg xmlns:xlink="http://www.w3.org/1999/xlink" width="460.8pt" height="345.6pt" viewBox="0 0 460.8 345.6" xmlns="http://www.w3.org/2000/svg" version="1.1">
 <metadata>
  <rdf:RDF xmlns:dc="http://purl.org/dc/elements/1.1/" xmlns:cc="http://creativecommons.org/ns#" xmlns:rdf="http://www.w3.org/1999/02/22-rdf-syntax-ns#">
   <cc:Work>
    <dc:type rdf:resource="http://purl.org/dc/dcmitype/StillImage"/>
    <dc:date>2025-06-18T15:17:43.728685</dc:date>
    <dc:format>image/svg+xml</dc:format>
    <dc:creator>
     <cc:Agent>
      <dc:title>Matplotlib v3.10.3, https://matplotlib.org/</dc:title>
     </cc:Agent>
    </dc:creator>
   </cc:Work>
  </rdf:RDF>
 </metadata>
 <defs>
  <style type="text/css">*{stroke-linejoin: round; stroke-linecap: butt}</style>
 </defs>
 <g id="figure_1">
  <g id="patch_1">
   <path d="M 0 345.6 
L 460.8 345.6 
L 460.8 0 
L 0 0 
z
" style="fill: #ffffff"/>
  </g>
  <g id="axes_1">
   <g id="patch_2">
    <path d="M 90.03 275.82 
L 433.580455 275.82 
L 433.580455 19.44 
L 90.03 19.44 
z
" style="fill: #ffffff"/>
   </g>
   <g id="matplotlib.axis_1">
    <g id="xtick_1">
     <g id="line2d_1">
      <defs>
       <path id="m300239b2b7" d="M 0 0 
L 0 9 
" style="stroke: #000000; stroke-width: 1.875"/>
      </defs>
      <g>
       <use xlink:href="#m300239b2b7" x="105.64593" y="275.82" style="stroke: #000000; stroke-width: 1.875"/>
      </g>
     </g>
     <g id="text_1">
      <!-- 0 -->
      <g transform="translate(100.396867 300.857422) scale(0.165 -0.165)">
       <defs>
        <path id="DejaVuSans-30" d="M 2034 4250 
Q 1547 4250 1301 3770 
Q 1056 3291 1056 2328 
Q 1056 1369 1301 889 
Q 1547 409 2034 409 
Q 2525 409 2770 889 
Q 3016 1369 3016 2328 
Q 3016 3291 2770 3770 
Q 2525 4250 2034 4250 
z
M 2034 4750 
Q 2819 4750 3233 4129 
Q 3647 3509 3647 2328 
Q 3647 1150 3233 529 
Q 2819 -91 2034 -91 
Q 1250 -91 836 529 
Q 422 1150 422 2328 
Q 422 3509 836 4129 
Q 1250 4750 2034 4750 
z
" transform="scale(0.015625)"/>
       </defs>
       <use xlink:href="#DejaVuSans-30"/>
      </g>
     </g>
    </g>
    <g id="xtick_2">
     <g id="line2d_2">
      <g>
       <use xlink:href="#m300239b2b7" x="170.712304" y="275.82" style="stroke: #000000; stroke-width: 1.875"/>
      </g>
     </g>
     <g id="text_2">
      <!-- 10 -->
      <g transform="translate(160.214179 300.857422) scale(0.165 -0.165)">
       <defs>
        <path id="DejaVuSans-31" d="M 794 531 
L 1825 531 
L 1825 4091 
L 703 3866 
L 703 4441 
L 1819 4666 
L 2450 4666 
L 2450 531 
L 3481 531 
L 3481 0 
L 794 0 
L 794 531 
z
" transform="scale(0.015625)"/>
       </defs>
       <use xlink:href="#DejaVuSans-31"/>
       <use xlink:href="#DejaVuSans-30" transform="translate(63.623047 0)"/>
      </g>
     </g>
    </g>
    <g id="xtick_3">
     <g id="line2d_3">
      <g>
       <use xlink:href="#m300239b2b7" x="235.778678" y="275.82" style="stroke: #000000; stroke-width: 1.875"/>
      </g>
     </g>
     <g id="text_3">
      <!-- 20 -->
      <g transform="translate(225.280553 300.857422) scale(0.165 -0.165)">
       <defs>
        <path id="DejaVuSans-32" d="M 1228 531 
L 3431 531 
L 3431 0 
L 469 0 
L 469 531 
Q 828 903 1448 1529 
Q 2069 2156 2228 2338 
Q 2531 2678 2651 2914 
Q 2772 3150 2772 3378 
Q 2772 3750 2511 3984 
Q 2250 4219 1831 4219 
Q 1534 4219 1204 4116 
Q 875 4013 500 3803 
L 500 4441 
Q 881 4594 1212 4672 
Q 1544 4750 1819 4750 
Q 2544 4750 2975 4387 
Q 3406 4025 3406 3419 
Q 3406 3131 3298 2873 
Q 3191 2616 2906 2266 
Q 2828 2175 2409 1742 
Q 1991 1309 1228 531 
z
" transform="scale(0.015625)"/>
       </defs>
       <use xlink:href="#DejaVuSans-32"/>
       <use xlink:href="#DejaVuSans-30" transform="translate(63.623047 0)"/>
      </g>
     </g>
    </g>
    <g id="xtick_4">
     <g id="line2d_4">
      <g>
       <use xlink:href="#m300239b2b7" x="300.845052" y="275.82" style="stroke: #000000; stroke-width: 1.875"/>
      </g>
     </g>
     <g id="text_4">
      <!-- 30 -->
      <g transform="translate(290.346927 300.857422) scale(0.165 -0.165)">
       <defs>
        <path id="DejaVuSans-33" d="M 2597 2516 
Q 3050 2419 3304 2112 
Q 3559 1806 3559 1356 
Q 3559 666 3084 287 
Q 2609 -91 1734 -91 
Q 1441 -91 1130 -33 
Q 819 25 488 141 
L 488 750 
Q 750 597 1062 519 
Q 1375 441 1716 441 
Q 2309 441 2620 675 
Q 2931 909 2931 1356 
Q 2931 1769 2642 2001 
Q 2353 2234 1838 2234 
L 1294 2234 
L 1294 2753 
L 1863 2753 
Q 2328 2753 2575 2939 
Q 2822 3125 2822 3475 
Q 2822 3834 2567 4026 
Q 2313 4219 1838 4219 
Q 1578 4219 1281 4162 
Q 984 4106 628 3988 
L 628 4550 
Q 988 4650 1302 4700 
Q 1616 4750 1894 4750 
Q 2613 4750 3031 4423 
Q 3450 4097 3450 3541 
Q 3450 3153 3228 2886 
Q 3006 2619 2597 2516 
z
" transform="scale(0.015625)"/>
       </defs>
       <use xlink:href="#DejaVuSans-33"/>
       <use xlink:href="#DejaVuSans-30" transform="translate(63.623047 0)"/>
      </g>
     </g>
    </g>
    <g id="xtick_5">
     <g id="line2d_5">
      <g>
       <use xlink:href="#m300239b2b7" x="365.911426" y="275.82" style="stroke: #000000; stroke-width: 1.875"/>
      </g>
     </g>
     <g id="text_5">
      <!-- 40 -->
      <g transform="translate(355.413301 300.857422) scale(0.165 -0.165)">
       <defs>
        <path id="DejaVuSans-34" d="M 2419 4116 
L 825 1625 
L 2419 1625 
L 2419 4116 
z
M 2253 4666 
L 3047 4666 
L 3047 1625 
L 3713 1625 
L 3713 1100 
L 3047 1100 
L 3047 0 
L 2419 0 
L 2419 1100 
L 313 1100 
L 313 1709 
L 2253 4666 
z
" transform="scale(0.015625)"/>
       </defs>
       <use xlink:href="#DejaVuSans-34"/>
       <use xlink:href="#DejaVuSans-30" transform="translate(63.623047 0)"/>
      </g>
     </g>
    </g>
    <g id="xtick_6">
     <g id="line2d_6">
      <g>
       <use xlink:href="#m300239b2b7" x="430.9778" y="275.82" style="stroke: #000000; stroke-width: 1.875"/>
      </g>
     </g>
     <g id="text_6">
      <!-- 50 -->
      <g transform="translate(420.479675 300.857422) scale(0.165 -0.165)">
       <defs>
        <path id="DejaVuSans-35" d="M 691 4666 
L 3169 4666 
L 3169 4134 
L 1269 4134 
L 1269 2991 
Q 1406 3038 1543 3061 
Q 1681 3084 1819 3084 
Q 2600 3084 3056 2656 
Q 3513 2228 3513 1497 
Q 3513 744 3044 326 
Q 2575 -91 1722 -91 
Q 1428 -91 1123 -41 
Q 819 9 494 109 
L 494 744 
Q 775 591 1075 516 
Q 1375 441 1709 441 
Q 2250 441 2565 725 
Q 2881 1009 2881 1497 
Q 2881 1984 2565 2268 
Q 2250 2553 1709 2553 
Q 1456 2553 1204 2497 
Q 953 2441 691 2322 
L 691 4666 
z
" transform="scale(0.015625)"/>
       </defs>
       <use xlink:href="#DejaVuSans-35"/>
       <use xlink:href="#DejaVuSans-30" transform="translate(63.623047 0)"/>
      </g>
     </g>
    </g>
    <g id="text_7">
     <!-- Time (hr) -->
     <g transform="translate(220.49804 321.966094) scale(0.18 -0.18)">
      <defs>
       <path id="DejaVuSans-54" d="M -19 4666 
L 3928 4666 
L 3928 4134 
L 2272 4134 
L 2272 0 
L 1638 0 
L 1638 4134 
L -19 4134 
L -19 4666 
z
" transform="scale(0.015625)"/>
       <path id="DejaVuSans-69" d="M 603 3500 
L 1178 3500 
L 1178 0 
L 603 0 
L 603 3500 
z
M 603 4863 
L 1178 4863 
L 1178 4134 
L 603 4134 
L 603 4863 
z
" transform="scale(0.015625)"/>
       <path id="DejaVuSans-6d" d="M 3328 2828 
Q 3544 3216 3844 3400 
Q 4144 3584 4550 3584 
Q 5097 3584 5394 3201 
Q 5691 2819 5691 2113 
L 5691 0 
L 5113 0 
L 5113 2094 
Q 5113 2597 4934 2840 
Q 4756 3084 4391 3084 
Q 3944 3084 3684 2787 
Q 3425 2491 3425 1978 
L 3425 0 
L 2847 0 
L 2847 2094 
Q 2847 2600 2669 2842 
Q 2491 3084 2119 3084 
Q 1678 3084 1418 2786 
Q 1159 2488 1159 1978 
L 1159 0 
L 581 0 
L 581 3500 
L 1159 3500 
L 1159 2956 
Q 1356 3278 1631 3431 
Q 1906 3584 2284 3584 
Q 2666 3584 2933 3390 
Q 3200 3197 3328 2828 
z
" transform="scale(0.015625)"/>
       <path id="DejaVuSans-65" d="M 3597 1894 
L 3597 1613 
L 953 1613 
Q 991 1019 1311 708 
Q 1631 397 2203 397 
Q 2534 397 2845 478 
Q 3156 559 3463 722 
L 3463 178 
Q 3153 47 2828 -22 
Q 2503 -91 2169 -91 
Q 1331 -91 842 396 
Q 353 884 353 1716 
Q 353 2575 817 3079 
Q 1281 3584 2069 3584 
Q 2775 3584 3186 3129 
Q 3597 2675 3597 1894 
z
M 3022 2063 
Q 3016 2534 2758 2815 
Q 2500 3097 2075 3097 
Q 1594 3097 1305 2825 
Q 1016 2553 972 2059 
L 3022 2063 
z
" transform="scale(0.015625)"/>
       <path id="DejaVuSans-20" transform="scale(0.015625)"/>
       <path id="DejaVuSans-28" d="M 1984 4856 
Q 1566 4138 1362 3434 
Q 1159 2731 1159 2009 
Q 1159 1288 1364 580 
Q 1569 -128 1984 -844 
L 1484 -844 
Q 1016 -109 783 600 
Q 550 1309 550 2009 
Q 550 2706 781 3412 
Q 1013 4119 1484 4856 
L 1984 4856 
z
" transform="scale(0.015625)"/>
       <path id="DejaVuSans-68" d="M 3513 2113 
L 3513 0 
L 2938 0 
L 2938 2094 
Q 2938 2591 2744 2837 
Q 2550 3084 2163 3084 
Q 1697 3084 1428 2787 
Q 1159 2491 1159 1978 
L 1159 0 
L 581 0 
L 581 4863 
L 1159 4863 
L 1159 2956 
Q 1366 3272 1645 3428 
Q 1925 3584 2291 3584 
Q 2894 3584 3203 3211 
Q 3513 2838 3513 2113 
z
" transform="scale(0.015625)"/>
       <path id="DejaVuSans-72" d="M 2631 2963 
Q 2534 3019 2420 3045 
Q 2306 3072 2169 3072 
Q 1681 3072 1420 2755 
Q 1159 2438 1159 1844 
L 1159 0 
L 581 0 
L 581 3500 
L 1159 3500 
L 1159 2956 
Q 1341 3275 1631 3429 
Q 1922 3584 2338 3584 
Q 2397 3584 2469 3576 
Q 2541 3569 2628 3553 
L 2631 2963 
z
" transform="scale(0.015625)"/>
       <path id="DejaVuSans-29" d="M 513 4856 
L 1013 4856 
Q 1481 4119 1714 3412 
Q 1947 2706 1947 2009 
Q 1947 1309 1714 600 
Q 1481 -109 1013 -844 
L 513 -844 
Q 928 -128 1133 580 
Q 1338 1288 1338 2009 
Q 1338 2731 1133 3434 
Q 928 4138 513 4856 
z
" transform="scale(0.015625)"/>
      </defs>
      <use xlink:href="#DejaVuSans-54"/>
      <use xlink:href="#DejaVuSans-69" transform="translate(57.958984 0)"/>
      <use xlink:href="#DejaVuSans-6d" transform="translate(85.742188 0)"/>
      <use xlink:href="#DejaVuSans-65" transform="translate(183.154297 0)"/>
      <use xlink:href="#DejaVuSans-20" transform="translate(244.677734 0)"/>
      <use xlink:href="#DejaVuSans-28" transform="translate(276.464844 0)"/>
      <use xlink:href="#DejaVuSans-68" transform="translate(315.478516 0)"/>
      <use xlink:href="#DejaVuSans-72" transform="translate(378.857422 0)"/>
      <use xlink:href="#DejaVuSans-29" transform="translate(419.970703 0)"/>
     </g>
    </g>
   </g>
   <g id="matplotlib.axis_2">
    <g id="ytick_1">
     <g id="line2d_7">
      <defs>
       <path id="m2273e7fbfc" d="M 0 0 
L -9 0 
" style="stroke: #000000; stroke-width: 1.875"/>
      </defs>
      <g>
       <use xlink:href="#m2273e7fbfc" x="90.03" y="267.184254" style="stroke: #000000; stroke-width: 1.875"/>
      </g>
     </g>
     <g id="text_8">
      <!-- 0.00 -->
      <g transform="translate(40.791719 273.452965) scale(0.165 -0.165)">
       <defs>
        <path id="DejaVuSans-2e" d="M 684 794 
L 1344 794 
L 1344 0 
L 684 0 
L 684 794 
z
" transform="scale(0.015625)"/>
       </defs>
       <use xlink:href="#DejaVuSans-30"/>
       <use xlink:href="#DejaVuSans-2e" transform="translate(63.623047 0)"/>
       <use xlink:href="#DejaVuSans-30" transform="translate(95.410156 0)"/>
       <use xlink:href="#DejaVuSans-30" transform="translate(159.033203 0)"/>
      </g>
     </g>
    </g>
    <g id="ytick_2">
     <g id="line2d_8">
      <g>
       <use xlink:href="#m2273e7fbfc" x="90.03" y="229.343952" style="stroke: #000000; stroke-width: 1.875"/>
      </g>
     </g>
     <g id="text_9">
      <!-- 0.25 -->
      <g transform="translate(40.791719 235.612663) scale(0.165 -0.165)">
       <use xlink:href="#DejaVuSans-30"/>
       <use xlink:href="#DejaVuSans-2e" transform="translate(63.623047 0)"/>
       <use xlink:href="#DejaVuSans-32" transform="translate(95.410156 0)"/>
       <use xlink:href="#DejaVuSans-35" transform="translate(159.033203 0)"/>
      </g>
     </g>
    </g>
    <g id="ytick_3">
     <g id="line2d_9">
      <g>
       <use xlink:href="#m2273e7fbfc" x="90.03" y="191.503649" style="stroke: #000000; stroke-width: 1.875"/>
      </g>
     </g>
     <g id="text_10">
      <!-- 0.50 -->
      <g transform="translate(40.791719 197.77236) scale(0.165 -0.165)">
       <use xlink:href="#DejaVuSans-30"/>
       <use xlink:href="#DejaVuSans-2e" transform="translate(63.623047 0)"/>
       <use xlink:href="#DejaVuSans-35" transform="translate(95.410156 0)"/>
       <use xlink:href="#DejaVuSans-30" transform="translate(159.033203 0)"/>
      </g>
     </g>
    </g>
    <g id="ytick_4">
     <g id="line2d_10">
      <g>
       <use xlink:href="#m2273e7fbfc" x="90.03" y="153.663347" style="stroke: #000000; stroke-width: 1.875"/>
      </g>
     </g>
     <g id="text_11">
      <!-- 0.75 -->
      <g transform="translate(40.791719 159.932058) scale(0.165 -0.165)">
       <defs>
        <path id="DejaVuSans-37" d="M 525 4666 
L 3525 4666 
L 3525 4397 
L 1831 0 
L 1172 0 
L 2766 4134 
L 525 4134 
L 525 4666 
z
" transform="scale(0.015625)"/>
       </defs>
       <use xlink:href="#DejaVuSans-30"/>
       <use xlink:href="#DejaVuSans-2e" transform="translate(63.623047 0)"/>
       <use xlink:href="#DejaVuSans-37" transform="translate(95.410156 0)"/>
       <use xlink:href="#DejaVuSans-35" transform="translate(159.033203 0)"/>
      </g>
     </g>
    </g>
    <g id="ytick_5">
     <g id="line2d_11">
      <g>
       <use xlink:href="#m2273e7fbfc" x="90.03" y="115.823044" style="stroke: #000000; stroke-width: 1.875"/>
      </g>
     </g>
     <g id="text_12">
      <!-- 1.00 -->
      <g transform="translate(40.791719 122.091755) scale(0.165 -0.165)">
       <use xlink:href="#DejaVuSans-31"/>
       <use xlink:href="#DejaVuSans-2e" transform="translate(63.623047 0)"/>
       <use xlink:href="#DejaVuSans-30" transform="translate(95.410156 0)"/>
       <use xlink:href="#DejaVuSans-30" transform="translate(159.033203 0)"/>
      </g>
     </g>
    </g>
    <g id="ytick_6">
     <g id="line2d_12">
      <g>
       <use xlink:href="#m2273e7fbfc" x="90.03" y="77.982741" style="stroke: #000000; stroke-width: 1.875"/>
      </g>
     </g>
     <g id="text_13">
      <!-- 1.25 -->
      <g transform="translate(40.791719 84.251452) scale(0.165 -0.165)">
       <use xlink:href="#DejaVuSans-31"/>
       <use xlink:href="#DejaVuSans-2e" transform="translate(63.623047 0)"/>
       <use xlink:href="#DejaVuSans-32" transform="translate(95.410156 0)"/>
       <use xlink:href="#DejaVuSans-35" transform="translate(159.033203 0)"/>
      </g>
     </g>
    </g>
    <g id="ytick_7">
     <g id="line2d_13">
      <g>
       <use xlink:href="#m2273e7fbfc" x="90.03" y="40.142439" style="stroke: #000000; stroke-width: 1.875"/>
      </g>
     </g>
     <g id="text_14">
      <!-- 1.50 -->
      <g transform="translate(40.791719 46.41115) scale(0.165 -0.165)">
       <use xlink:href="#DejaVuSans-31"/>
       <use xlink:href="#DejaVuSans-2e" transform="translate(63.623047 0)"/>
       <use xlink:href="#DejaVuSans-35" transform="translate(95.410156 0)"/>
       <use xlink:href="#DejaVuSans-30" transform="translate(159.033203 0)"/>
      </g>
     </g>
    </g>
    <g id="text_15">
     <!-- Plasma RMA (nM) -->
     <g transform="translate(33.048281 226.430625) rotate(-90) scale(0.18 -0.18)">
      <defs>
       <path id="DejaVuSans-50" d="M 1259 4147 
L 1259 2394 
L 2053 2394 
Q 2494 2394 2734 2622 
Q 2975 2850 2975 3272 
Q 2975 3691 2734 3919 
Q 2494 4147 2053 4147 
L 1259 4147 
z
M 628 4666 
L 2053 4666 
Q 2838 4666 3239 4311 
Q 3641 3956 3641 3272 
Q 3641 2581 3239 2228 
Q 2838 1875 2053 1875 
L 1259 1875 
L 1259 0 
L 628 0 
L 628 4666 
z
" transform="scale(0.015625)"/>
       <path id="DejaVuSans-6c" d="M 603 4863 
L 1178 4863 
L 1178 0 
L 603 0 
L 603 4863 
z
" transform="scale(0.015625)"/>
       <path id="DejaVuSans-61" d="M 2194 1759 
Q 1497 1759 1228 1600 
Q 959 1441 959 1056 
Q 959 750 1161 570 
Q 1363 391 1709 391 
Q 2188 391 2477 730 
Q 2766 1069 2766 1631 
L 2766 1759 
L 2194 1759 
z
M 3341 1997 
L 3341 0 
L 2766 0 
L 2766 531 
Q 2569 213 2275 61 
Q 1981 -91 1556 -91 
Q 1019 -91 701 211 
Q 384 513 384 1019 
Q 384 1609 779 1909 
Q 1175 2209 1959 2209 
L 2766 2209 
L 2766 2266 
Q 2766 2663 2505 2880 
Q 2244 3097 1772 3097 
Q 1472 3097 1187 3025 
Q 903 2953 641 2809 
L 641 3341 
Q 956 3463 1253 3523 
Q 1550 3584 1831 3584 
Q 2591 3584 2966 3190 
Q 3341 2797 3341 1997 
z
" transform="scale(0.015625)"/>
       <path id="DejaVuSans-73" d="M 2834 3397 
L 2834 2853 
Q 2591 2978 2328 3040 
Q 2066 3103 1784 3103 
Q 1356 3103 1142 2972 
Q 928 2841 928 2578 
Q 928 2378 1081 2264 
Q 1234 2150 1697 2047 
L 1894 2003 
Q 2506 1872 2764 1633 
Q 3022 1394 3022 966 
Q 3022 478 2636 193 
Q 2250 -91 1575 -91 
Q 1294 -91 989 -36 
Q 684 19 347 128 
L 347 722 
Q 666 556 975 473 
Q 1284 391 1588 391 
Q 1994 391 2212 530 
Q 2431 669 2431 922 
Q 2431 1156 2273 1281 
Q 2116 1406 1581 1522 
L 1381 1569 
Q 847 1681 609 1914 
Q 372 2147 372 2553 
Q 372 3047 722 3315 
Q 1072 3584 1716 3584 
Q 2034 3584 2315 3537 
Q 2597 3491 2834 3397 
z
" transform="scale(0.015625)"/>
       <path id="DejaVuSans-52" d="M 2841 2188 
Q 3044 2119 3236 1894 
Q 3428 1669 3622 1275 
L 4263 0 
L 3584 0 
L 2988 1197 
Q 2756 1666 2539 1819 
Q 2322 1972 1947 1972 
L 1259 1972 
L 1259 0 
L 628 0 
L 628 4666 
L 2053 4666 
Q 2853 4666 3247 4331 
Q 3641 3997 3641 3322 
Q 3641 2881 3436 2590 
Q 3231 2300 2841 2188 
z
M 1259 4147 
L 1259 2491 
L 2053 2491 
Q 2509 2491 2742 2702 
Q 2975 2913 2975 3322 
Q 2975 3731 2742 3939 
Q 2509 4147 2053 4147 
L 1259 4147 
z
" transform="scale(0.015625)"/>
       <path id="DejaVuSans-4d" d="M 628 4666 
L 1569 4666 
L 2759 1491 
L 3956 4666 
L 4897 4666 
L 4897 0 
L 4281 0 
L 4281 4097 
L 3078 897 
L 2444 897 
L 1241 4097 
L 1241 0 
L 628 0 
L 628 4666 
z
" transform="scale(0.015625)"/>
       <path id="DejaVuSans-41" d="M 2188 4044 
L 1331 1722 
L 3047 1722 
L 2188 4044 
z
M 1831 4666 
L 2547 4666 
L 4325 0 
L 3669 0 
L 3244 1197 
L 1141 1197 
L 716 0 
L 50 0 
L 1831 4666 
z
" transform="scale(0.015625)"/>
       <path id="DejaVuSans-6e" d="M 3513 2113 
L 3513 0 
L 2938 0 
L 2938 2094 
Q 2938 2591 2744 2837 
Q 2550 3084 2163 3084 
Q 1697 3084 1428 2787 
Q 1159 2491 1159 1978 
L 1159 0 
L 581 0 
L 581 3500 
L 1159 3500 
L 1159 2956 
Q 1366 3272 1645 3428 
Q 1925 3584 2291 3584 
Q 2894 3584 3203 3211 
Q 3513 2838 3513 2113 
z
" transform="scale(0.015625)"/>
      </defs>
      <use xlink:href="#DejaVuSans-50"/>
      <use xlink:href="#DejaVuSans-6c" transform="translate(60.302734 0)"/>
      <use xlink:href="#DejaVuSans-61" transform="translate(88.085938 0)"/>
      <use xlink:href="#DejaVuSans-73" transform="translate(149.365234 0)"/>
      <use xlink:href="#DejaVuSans-6d" transform="translate(201.464844 0)"/>
      <use xlink:href="#DejaVuSans-61" transform="translate(298.876953 0)"/>
      <use xlink:href="#DejaVuSans-20" transform="translate(360.15625 0)"/>
      <use xlink:href="#DejaVuSans-52" transform="translate(391.943359 0)"/>
      <use xlink:href="#DejaVuSans-4d" transform="translate(461.425781 0)"/>
      <use xlink:href="#DejaVuSans-41" transform="translate(547.705078 0)"/>
      <use xlink:href="#DejaVuSans-20" transform="translate(616.113281 0)"/>
      <use xlink:href="#DejaVuSans-28" transform="translate(647.900391 0)"/>
      <use xlink:href="#DejaVuSans-6e" transform="translate(686.914062 0)"/>
      <use xlink:href="#DejaVuSans-4d" transform="translate(750.292969 0)"/>
      <use xlink:href="#DejaVuSans-29" transform="translate(836.572266 0)"/>
     </g>
    </g>
   </g>
   <g id="line2d_14">
    <path d="M 105.64593 264.166364 
L 108.910584 264.020695 
L 111.08702 263.715219 
L 114.351675 262.972347 
L 117.616329 261.96116 
L 121.969201 260.311426 
L 127.410292 257.924553 
L 133.9396 254.775239 
L 143.733563 249.762941 
L 167.674362 237.144469 
L 193.791596 223.505375 
L 216.644176 211.82113 
L 238.408538 200.931318 
L 259.084682 190.821697 
L 278.672608 181.483957 
L 296.084097 173.428157 
L 311.319151 166.615493 
L 324.377768 160.999406 
L 336.348167 156.089984 
L 347.230348 151.86914 
L 357.024311 148.307559 
L 365.730056 145.364486 
L 374.435801 142.656525 
L 382.053327 140.499116 
L 389.670854 138.556762 
L 397.288381 136.845001 
L 404.905908 135.369243 
L 412.523434 134.128148 
L 417.964525 133.384513 
L 417.964525 133.384513 
" clip-path="url(#pb0c312a4c6)" style="fill: none; stroke: #1f77b4; stroke-width: 2.25; stroke-linecap: square"/>
   </g>
   <g id="LineCollection_1">
    <path d="M 105.64593 258.451477 
L 105.64593 254.911709 
" clip-path="url(#pb0c312a4c6)" style="fill: none; stroke: #1f77b4; stroke-opacity: 0.25; stroke-width: 2.25"/>
    <path d="M 417.964525 153.430968 
L 417.964525 31.093636 
" clip-path="url(#pb0c312a4c6)" style="fill: none; stroke: #1f77b4; stroke-opacity: 0.25; stroke-width: 2.25"/>
    <path d="M 261.805227 220.439085 
L 261.805227 180.625169 
" clip-path="url(#pb0c312a4c6)" style="fill: none; stroke: #1f77b4; stroke-opacity: 0.25; stroke-width: 2.25"/>
   </g>
   <g id="line2d_15">
    <path d="M 105.64593 262.176747 
L 107.822366 262.098568 
L 109.998802 261.814497 
L 112.175238 261.308889 
L 114.351675 260.618897 
L 117.616329 259.318223 
L 120.880983 257.785961 
L 125.233856 255.504321 
L 131.763164 251.783558 
L 141.557127 245.901348 
L 201.409123 209.529664 
L 225.349921 195.374686 
L 247.114283 182.754439 
L 266.702209 171.641076 
L 284.113698 162.002186 
L 299.348752 153.821075 
L 312.407369 147.052763 
L 324.377768 141.098702 
L 334.171731 136.456753 
L 343.965694 132.06587 
L 352.671439 128.407105 
L 360.288965 125.424635 
L 367.906492 122.669727 
L 375.524019 120.153537 
L 383.141546 117.887209 
L 390.759072 115.881884 
L 397.288381 114.379219 
L 403.817689 113.078959 
L 411.435216 111.805983 
L 417.964525 110.914079 
L 417.964525 110.914079 
" clip-path="url(#pb0c312a4c6)" style="fill: none; stroke: #ff7f0e; stroke-width: 2.25; stroke-linecap: square"/>
   </g>
   <g id="LineCollection_2">
    <path d="M 261.805227 215.70355 
L 261.805227 191.406855 
" clip-path="url(#pb0c312a4c6)" style="fill: none; stroke: #ff7f0e; stroke-opacity: 0.25; stroke-width: 2.25"/>
    <path d="M 105.64593 260.073392 
L 105.64593 257.089705 
" clip-path="url(#pb0c312a4c6)" style="fill: none; stroke: #ff7f0e; stroke-opacity: 0.25; stroke-width: 2.25"/>
    <path d="M 417.964525 137.192339 
L 417.964525 64.552532 
" clip-path="url(#pb0c312a4c6)" style="fill: none; stroke: #ff7f0e; stroke-opacity: 0.25; stroke-width: 2.25"/>
   </g>
   <g id="line2d_16">
    <defs>
     <path id="mb0e6713e6b" d="M 0 4.5 
C 1.193414 4.5 2.338109 4.025852 3.181981 3.181981 
C 4.025852 2.338109 4.5 1.193414 4.5 0 
C 4.5 -1.193414 4.025852 -2.338109 3.181981 -3.181981 
C 2.338109 -4.025852 1.193414 -4.5 0 -4.5 
C -1.193414 -4.5 -2.338109 -4.025852 -3.181981 -3.181981 
C -4.025852 -2.338109 -4.5 -1.193414 -4.5 0 
C -4.5 1.193414 -4.025852 2.338109 -3.181981 3.181981 
C -2.338109 4.025852 -1.193414 4.5 0 4.5 
z
" style="stroke: #1f77b4; stroke-opacity: 0.25"/>
    </defs>
    <g clip-path="url(#pb0c312a4c6)">
     <use xlink:href="#mb0e6713e6b" x="105.64593" y="256.681593" style="fill: #1f77b4; fill-opacity: 0.25; stroke: #1f77b4; stroke-opacity: 0.25"/>
     <use xlink:href="#mb0e6713e6b" x="417.964525" y="92.262302" style="fill: #1f77b4; fill-opacity: 0.25; stroke: #1f77b4; stroke-opacity: 0.25"/>
     <use xlink:href="#mb0e6713e6b" x="261.805227" y="200.532127" style="fill: #1f77b4; fill-opacity: 0.25; stroke: #1f77b4; stroke-opacity: 0.25"/>
    </g>
   </g>
   <g id="line2d_17">
    <defs>
     <path id="m7b09d37882" d="M -4.5 4.5 
L 4.5 4.5 
L 4.5 -4.5 
L -4.5 -4.5 
z
" style="stroke: #ff7f0e; stroke-opacity: 0.25; stroke-linejoin: miter"/>
    </defs>
    <g clip-path="url(#pb0c312a4c6)">
     <use xlink:href="#m7b09d37882" x="261.805227" y="203.555203" style="fill: #ff7f0e; fill-opacity: 0.25; stroke: #ff7f0e; stroke-opacity: 0.25; stroke-linejoin: miter"/>
     <use xlink:href="#m7b09d37882" x="105.64593" y="258.581548" style="fill: #ff7f0e; fill-opacity: 0.25; stroke: #ff7f0e; stroke-opacity: 0.25; stroke-linejoin: miter"/>
     <use xlink:href="#m7b09d37882" x="417.964525" y="100.872435" style="fill: #ff7f0e; fill-opacity: 0.25; stroke: #ff7f0e; stroke-opacity: 0.25; stroke-linejoin: miter"/>
    </g>
   </g>
   <g id="patch_3">
    <path d="M 90.03 275.82 
L 90.03 19.44 
" style="fill: none; stroke: #000000; stroke-width: 1.875; stroke-linejoin: miter; stroke-linecap: square"/>
   </g>
   <g id="patch_4">
    <path d="M 90.03 275.82 
L 433.580455 275.82 
" style="fill: none; stroke: #000000; stroke-width: 1.875; stroke-linejoin: miter; stroke-linecap: square"/>
   </g>
   <g id="legend_1">
    <g id="text_16">
     <!-- CNO (mg/kg) -->
     <g transform="translate(104.88 47.967187) scale(0.18 -0.18)">
      <defs>
       <path id="DejaVuSans-43" d="M 4122 4306 
L 4122 3641 
Q 3803 3938 3442 4084 
Q 3081 4231 2675 4231 
Q 1875 4231 1450 3742 
Q 1025 3253 1025 2328 
Q 1025 1406 1450 917 
Q 1875 428 2675 428 
Q 3081 428 3442 575 
Q 3803 722 4122 1019 
L 4122 359 
Q 3791 134 3420 21 
Q 3050 -91 2638 -91 
Q 1578 -91 968 557 
Q 359 1206 359 2328 
Q 359 3453 968 4101 
Q 1578 4750 2638 4750 
Q 3056 4750 3426 4639 
Q 3797 4528 4122 4306 
z
" transform="scale(0.015625)"/>
       <path id="DejaVuSans-4e" d="M 628 4666 
L 1478 4666 
L 3547 763 
L 3547 4666 
L 4159 4666 
L 4159 0 
L 3309 0 
L 1241 3903 
L 1241 0 
L 628 0 
L 628 4666 
z
" transform="scale(0.015625)"/>
       <path id="DejaVuSans-4f" d="M 2522 4238 
Q 1834 4238 1429 3725 
Q 1025 3213 1025 2328 
Q 1025 1447 1429 934 
Q 1834 422 2522 422 
Q 3209 422 3611 934 
Q 4013 1447 4013 2328 
Q 4013 3213 3611 3725 
Q 3209 4238 2522 4238 
z
M 2522 4750 
Q 3503 4750 4090 4092 
Q 4678 3434 4678 2328 
Q 4678 1225 4090 567 
Q 3503 -91 2522 -91 
Q 1538 -91 948 565 
Q 359 1222 359 2328 
Q 359 3434 948 4092 
Q 1538 4750 2522 4750 
z
" transform="scale(0.015625)"/>
       <path id="DejaVuSans-67" d="M 2906 1791 
Q 2906 2416 2648 2759 
Q 2391 3103 1925 3103 
Q 1463 3103 1205 2759 
Q 947 2416 947 1791 
Q 947 1169 1205 825 
Q 1463 481 1925 481 
Q 2391 481 2648 825 
Q 2906 1169 2906 1791 
z
M 3481 434 
Q 3481 -459 3084 -895 
Q 2688 -1331 1869 -1331 
Q 1566 -1331 1297 -1286 
Q 1028 -1241 775 -1147 
L 775 -588 
Q 1028 -725 1275 -790 
Q 1522 -856 1778 -856 
Q 2344 -856 2625 -561 
Q 2906 -266 2906 331 
L 2906 616 
Q 2728 306 2450 153 
Q 2172 0 1784 0 
Q 1141 0 747 490 
Q 353 981 353 1791 
Q 353 2603 747 3093 
Q 1141 3584 1784 3584 
Q 2172 3584 2450 3431 
Q 2728 3278 2906 2969 
L 2906 3500 
L 3481 3500 
L 3481 434 
z
" transform="scale(0.015625)"/>
       <path id="DejaVuSans-2f" d="M 1625 4666 
L 2156 4666 
L 531 -594 
L 0 -594 
L 1625 4666 
z
" transform="scale(0.015625)"/>
       <path id="DejaVuSans-6b" d="M 581 4863 
L 1159 4863 
L 1159 1991 
L 2875 3500 
L 3609 3500 
L 1753 1863 
L 3688 0 
L 2938 0 
L 1159 1709 
L 1159 0 
L 581 0 
L 581 4863 
z
" transform="scale(0.015625)"/>
      </defs>
      <use xlink:href="#DejaVuSans-43"/>
      <use xlink:href="#DejaVuSans-4e" transform="translate(69.824219 0)"/>
      <use xlink:href="#DejaVuSans-4f" transform="translate(144.628906 0)"/>
      <use xlink:href="#DejaVuSans-20" transform="translate(223.339844 0)"/>
      <use xlink:href="#DejaVuSans-28" transform="translate(255.126953 0)"/>
      <use xlink:href="#DejaVuSans-6d" transform="translate(294.140625 0)"/>
      <use xlink:href="#DejaVuSans-67" transform="translate(391.552734 0)"/>
      <use xlink:href="#DejaVuSans-2f" transform="translate(455.029297 0)"/>
      <use xlink:href="#DejaVuSans-6b" transform="translate(488.720703 0)"/>
      <use xlink:href="#DejaVuSans-67" transform="translate(546.630859 0)"/>
      <use xlink:href="#DejaVuSans-29" transform="translate(610.107422 0)"/>
     </g>
    </g>
    <g id="line2d_18">
     <path d="M 127.082578 66.723047 
L 143.582578 66.723047 
L 160.082578 66.723047 
" style="fill: none; stroke: #1f77b4; stroke-width: 2.25; stroke-linecap: square"/>
    </g>
    <g id="text_17">
     <!-- 1 -->
     <g transform="translate(173.282578 72.498047) scale(0.165 -0.165)">
      <use xlink:href="#DejaVuSans-31"/>
     </g>
    </g>
    <g id="line2d_19">
     <path d="M 127.082578 90.941953 
L 143.582578 90.941953 
L 160.082578 90.941953 
" style="fill: none; stroke: #ff7f0e; stroke-width: 2.25; stroke-linecap: square"/>
    </g>
    <g id="text_18">
     <!-- 2.5 -->
     <g transform="translate(173.282578 96.716953) scale(0.165 -0.165)">
      <use xlink:href="#DejaVuSans-32"/>
      <use xlink:href="#DejaVuSans-2e" transform="translate(63.623047 0)"/>
      <use xlink:href="#DejaVuSans-35" transform="translate(95.410156 0)"/>
     </g>
    </g>
   </g>
  </g>
 </g>
 <defs>
  <clipPath id="pb0c312a4c6">
   <rect x="90.03" y="19.44" width="343.550455" height="256.38"/>
  </clipPath>
 </defs>
</svg>
