<?xml version="1.0" encoding="utf-8" standalone="no"?>
<!DOCTYPE svg PUBLIC "-//W3C//DTD SVG 1.1//EN"
  "http://www.w3.org/Graphics/SVG/1.1/DTD/svg11.dtd">
<svg xmlns:xlink="http://www.w3.org/1999/xlink" width="460.8pt" height="345.6pt" viewBox="0 0 460.8 345.6" xmlns="http://www.w3.org/2000/svg" version="1.1">
 <metadata>
  <rdf:RDF xmlns:dc="http://purl.org/dc/elements/1.1/" xmlns:cc="http://creativecommons.org/ns#" xmlns:rdf="http://www.w3.org/1999/02/22-rdf-syntax-ns#">
   <cc:Work>
    <dc:type rdf:resource="http://purl.org/dc/dcmitype/StillImage"/>
    <dc:date>2025-06-18T15:34:10.564021</dc:date>
    <dc:format>image/svg+xml</dc:format>
    <dc:creator>
     <cc:Agent>
      <dc:title>Matplotlib v3.10.3, https://matplotlib.org/</dc:title>
     </cc:Agent>
    </dc:creator>
   </cc:Work>
  </rdf:RDF>
 </metadata>
 <defs>
  <style type="text/css">*{stroke-linejoin: round; stroke-linecap: butt}</style>
 </defs>
 <g id="figure_1">
  <g id="patch_1">
   <path d="M 0 345.6 
L 460.8 345.6 
L 460.8 0 
L 0 0 
z
" style="fill: #ffffff"/>
  </g>
  <g id="axes_1">
   <g id="patch_2">
    <path d="M 85.404 254.55866 
L 441.36 254.55866 
L 441.36 19.44 
L 85.404 19.44 
z
" style="fill: #ffffff"/>
   </g>
   <g id="patch_3">
    <path d="M 101.583818 254.55866 
L 121.808591 254.55866 
L 121.808591 34.865439 
L 101.583818 34.865439 
z
" clip-path="url(#p0690c6656d)" style="fill: #d3d3d3"/>
   </g>
   <g id="patch_4">
    <path d="M 126.864784 254.55866 
L 147.089557 254.55866 
L 147.089557 250.076609 
L 126.864784 250.076609 
z
" clip-path="url(#p0690c6656d)" style="fill: #d3d3d3"/>
   </g>
   <g id="patch_5">
    <path d="M 152.14575 254.55866 
L 172.370523 254.55866 
L 172.370523 221.918479 
L 152.14575 221.918479 
z
" clip-path="url(#p0690c6656d)" style="fill: #d3d3d3"/>
   </g>
   <g id="patch_6">
    <path d="M 177.426716 254.55866 
L 197.651489 254.55866 
L 197.651489 254.273959 
L 177.426716 254.273959 
z
" clip-path="url(#p0690c6656d)" style="fill: #d3d3d3"/>
   </g>
   <g id="patch_7">
    <path d="M 202.707682 254.55866 
L 222.932455 254.55866 
L 222.932455 221.681117 
L 202.707682 221.681117 
z
" clip-path="url(#p0690c6656d)" style="fill: #d3d3d3"/>
   </g>
   <g id="patch_8">
    <path d="M 227.988648 254.55866 
L 248.21342 254.55866 
L 248.21342 160.343177 
L 227.988648 160.343177 
z
" clip-path="url(#p0690c6656d)" style="fill: #d3d3d3"/>
   </g>
   <g id="patch_9">
    <path d="M 253.269614 254.55866 
L 273.494386 254.55866 
L 273.494386 220.68794 
L 253.269614 220.68794 
z
" clip-path="url(#p0690c6656d)" style="fill: #d3d3d3"/>
   </g>
   <g id="patch_10">
    <path d="M 278.55058 254.55866 
L 298.775352 254.55866 
L 298.775352 254.55866 
L 278.55058 254.55866 
z
" clip-path="url(#p0690c6656d)" style="fill: #d3d3d3"/>
   </g>
   <g id="patch_11">
    <path d="M 303.831545 254.55866 
L 324.056318 254.55866 
L 324.056318 254.55866 
L 303.831545 254.55866 
z
" clip-path="url(#p0690c6656d)" style="fill: #d3d3d3"/>
   </g>
   <g id="patch_12">
    <path d="M 329.112511 254.55866 
L 349.337284 254.55866 
L 349.337284 241.431541 
L 329.112511 241.431541 
z
" clip-path="url(#p0690c6656d)" style="fill: #d3d3d3"/>
   </g>
   <g id="patch_13">
    <path d="M 354.393477 254.55866 
L 374.61825 254.55866 
L 374.61825 241.583351 
L 354.393477 241.583351 
z
" clip-path="url(#p0690c6656d)" style="fill: #d3d3d3"/>
   </g>
   <g id="patch_14">
    <path d="M 379.674443 254.55866 
L 399.899216 254.55866 
L 399.899216 249.265426 
L 379.674443 249.265426 
z
" clip-path="url(#p0690c6656d)" style="fill: #d3d3d3"/>
   </g>
   <g id="patch_15">
    <path d="M 404.955409 254.55866 
L 425.180182 254.55866 
L 425.180182 253.39833 
L 404.955409 253.39833 
z
" clip-path="url(#p0690c6656d)" style="fill: #d3d3d3"/>
   </g>
   <g id="matplotlib.axis_1">
    <g id="xtick_1">
     <g id="line2d_1">
      <defs>
       <path id="ma139178ef9" d="M 0 0 
L 0 9 
" style="stroke: #000000; stroke-width: 1.875"/>
      </defs>
      <g>
       <use xlink:href="#ma139178ef9" x="111.696205" y="254.55866" style="stroke: #000000; stroke-width: 1.875"/>
      </g>
     </g>
     <g id="text_1">
      <!-- $k_{RMA}$ -->
      <g transform="translate(111.439174 305.047936) rotate(-75) scale(0.165 -0.165)">
       <defs>
        <path id="DejaVuSans-Oblique-6b" d="M 1172 4863 
L 1747 4863 
L 1197 2028 
L 3169 3500 
L 3916 3500 
L 1716 1825 
L 3322 0 
L 2625 0 
L 1131 1709 
L 800 0 
L 225 0 
L 1172 4863 
z
" transform="scale(0.015625)"/>
        <path id="DejaVuSans-Oblique-52" d="M 1613 4147 
L 1294 2491 
L 2106 2491 
Q 2584 2491 2879 2755 
Q 3175 3019 3175 3444 
Q 3175 3784 2976 3965 
Q 2778 4147 2406 4147 
L 1613 4147 
z
M 2772 2241 
Q 2972 2194 3105 2009 
Q 3238 1825 3413 1275 
L 3809 0 
L 3144 0 
L 2778 1197 
Q 2638 1659 2453 1815 
Q 2269 1972 1888 1972 
L 1191 1972 
L 806 0 
L 172 0 
L 1081 4666 
L 2503 4666 
Q 3150 4666 3495 4373 
Q 3841 4081 3841 3531 
Q 3841 3044 3547 2687 
Q 3253 2331 2772 2241 
z
" transform="scale(0.015625)"/>
        <path id="DejaVuSans-Oblique-4d" d="M 1081 4666 
L 2028 4666 
L 2572 1522 
L 4378 4666 
L 5350 4666 
L 4441 0 
L 3828 0 
L 4622 4091 
L 2791 897 
L 2175 897 
L 1581 4103 
L 788 0 
L 172 0 
L 1081 4666 
z
" transform="scale(0.015625)"/>
        <path id="DejaVuSans-Oblique-41" d="M 2356 4666 
L 3072 4666 
L 3938 0 
L 3278 0 
L 3084 1197 
L 984 1197 
L 325 0 
L -341 0 
L 2356 4666 
z
M 2584 4044 
L 1275 1722 
L 2988 1722 
L 2584 4044 
z
" transform="scale(0.015625)"/>
       </defs>
       <use xlink:href="#DejaVuSans-Oblique-6b" transform="translate(0 0.015625)"/>
       <use xlink:href="#DejaVuSans-Oblique-52" transform="translate(57.910156 -16.390625) scale(0.7)"/>
       <use xlink:href="#DejaVuSans-Oblique-4d" transform="translate(106.547852 -16.390625) scale(0.7)"/>
       <use xlink:href="#DejaVuSans-Oblique-41" transform="translate(166.943359 -16.390625) scale(0.7)"/>
      </g>
     </g>
    </g>
    <g id="xtick_2">
     <g id="line2d_2">
      <g>
       <use xlink:href="#ma139178ef9" x="136.97717" y="254.55866" style="stroke: #000000; stroke-width: 1.875"/>
      </g>
     </g>
     <g id="text_2">
      <!-- $k_{RT}$ -->
      <g transform="translate(138.108057 294.688381) rotate(-75) scale(0.165 -0.165)">
       <defs>
        <path id="DejaVuSans-Oblique-54" d="M 378 4666 
L 4325 4666 
L 4225 4134 
L 2559 4134 
L 1759 0 
L 1125 0 
L 1925 4134 
L 275 4134 
L 378 4666 
z
" transform="scale(0.015625)"/>
       </defs>
       <use xlink:href="#DejaVuSans-Oblique-6b" transform="translate(0 0.015625)"/>
       <use xlink:href="#DejaVuSans-Oblique-52" transform="translate(57.910156 -16.390625) scale(0.7)"/>
       <use xlink:href="#DejaVuSans-Oblique-54" transform="translate(106.547852 -16.390625) scale(0.7)"/>
      </g>
     </g>
    </g>
    <g id="xtick_3">
     <g id="line2d_3">
      <g>
       <use xlink:href="#ma139178ef9" x="162.258136" y="254.55866" style="stroke: #000000; stroke-width: 1.875"/>
      </g>
     </g>
     <g id="text_3">
      <!-- $\gamma_{RMA}$ -->
      <g transform="translate(161.94738 305.198639) rotate(-75) scale(0.165 -0.165)">
       <defs>
        <path id="DejaVuSans-Oblique-3b3" d="M 1491 2950 
L 1838 788 
L 3456 3500 
L 4066 3500 
L 1972 0 
L 1713 -1331 
L 1138 -1331 
L 1397 0 
L 988 2613 
Q 925 3006 628 3006 
L 475 3006 
L 569 3500 
L 788 3500 
Q 1403 3500 1491 2950 
z
" transform="scale(0.015625)"/>
       </defs>
       <use xlink:href="#DejaVuSans-Oblique-3b3" transform="translate(0 0.3125)"/>
       <use xlink:href="#DejaVuSans-Oblique-52" transform="translate(59.179688 -16.09375) scale(0.7)"/>
       <use xlink:href="#DejaVuSans-Oblique-4d" transform="translate(107.817383 -16.09375) scale(0.7)"/>
       <use xlink:href="#DejaVuSans-Oblique-41" transform="translate(168.212891 -16.09375) scale(0.7)"/>
      </g>
     </g>
    </g>
    <g id="xtick_4">
     <g id="line2d_4">
      <g>
       <use xlink:href="#ma139178ef9" x="187.539102" y="254.55866" style="stroke: #000000; stroke-width: 1.875"/>
      </g>
     </g>
     <g id="text_4">
      <!-- $K_{D_{Dox}}$ -->
      <g transform="translate(186.326495 305.398621) rotate(-75) scale(0.165 -0.165)">
       <defs>
        <path id="DejaVuSans-Oblique-4b" d="M 1081 4666 
L 1716 4666 
L 1331 2700 
L 3781 4666 
L 4622 4666 
L 1850 2438 
L 3878 0 
L 3109 0 
L 1247 2272 
L 806 0 
L 172 0 
L 1081 4666 
z
" transform="scale(0.015625)"/>
        <path id="DejaVuSans-Oblique-44" d="M 1081 4666 
L 2438 4666 
Q 3519 4666 4070 4208 
Q 4622 3750 4622 2847 
Q 4622 2250 4412 1698 
Q 4203 1147 3834 769 
Q 3463 381 2891 190 
Q 2319 0 1538 0 
L 172 0 
L 1081 4666 
z
M 1613 4147 
L 909 519 
L 1734 519 
Q 2794 519 3375 1128 
Q 3956 1738 3956 2847 
Q 3956 3519 3581 3833 
Q 3206 4147 2406 4147 
L 1613 4147 
z
" transform="scale(0.015625)"/>
        <path id="DejaVuSans-Oblique-6f" d="M 1625 -91 
Q 1009 -91 651 289 
Q 294 669 294 1325 
Q 294 1706 417 2101 
Q 541 2497 738 2766 
Q 1047 3184 1428 3384 
Q 1809 3584 2291 3584 
Q 2888 3584 3255 3212 
Q 3622 2841 3622 2241 
Q 3622 1825 3500 1412 
Q 3378 1000 3181 728 
Q 2875 309 2494 109 
Q 2113 -91 1625 -91 
z
M 891 1344 
Q 891 869 1089 633 
Q 1288 397 1691 397 
Q 2269 397 2648 901 
Q 3028 1406 3028 2181 
Q 3028 2634 2825 2865 
Q 2622 3097 2228 3097 
Q 1903 3097 1650 2945 
Q 1397 2794 1197 2484 
Q 1050 2253 970 1956 
Q 891 1659 891 1344 
z
" transform="scale(0.015625)"/>
        <path id="DejaVuSans-Oblique-78" d="M 3841 3500 
L 2234 1784 
L 3219 0 
L 2559 0 
L 1819 1388 
L 531 0 
L -166 0 
L 1556 1844 
L 641 3500 
L 1300 3500 
L 1972 2234 
L 3144 3500 
L 3841 3500 
z
" transform="scale(0.015625)"/>
       </defs>
       <use xlink:href="#DejaVuSans-Oblique-4b" transform="translate(0 0.09375)"/>
       <use xlink:href="#DejaVuSans-Oblique-44" transform="translate(65.576172 -16.3125) scale(0.7)"/>
       <use xlink:href="#DejaVuSans-Oblique-44" transform="translate(119.477539 -27.796875) scale(0.49)"/>
       <use xlink:href="#DejaVuSans-Oblique-6f" transform="translate(157.208496 -27.796875) scale(0.49)"/>
       <use xlink:href="#DejaVuSans-Oblique-78" transform="translate(187.1875 -27.796875) scale(0.49)"/>
      </g>
     </g>
    </g>
    <g id="xtick_5">
     <g id="line2d_5">
      <g>
       <use xlink:href="#ma139178ef9" x="212.820068" y="254.55866" style="stroke: #000000; stroke-width: 1.875"/>
      </g>
     </g>
     <g id="text_5">
      <!-- $k_{tTA}$ -->
      <g transform="translate(213.395788 298.832203) rotate(-75) scale(0.165 -0.165)">
       <defs>
        <path id="DejaVuSans-Oblique-74" d="M 2706 3500 
L 2619 3053 
L 1472 3053 
L 1100 1153 
Q 1081 1047 1072 975 
Q 1063 903 1063 863 
Q 1063 663 1183 572 
Q 1303 481 1569 481 
L 2150 481 
L 2053 0 
L 1503 0 
Q 991 0 739 200 
Q 488 400 488 806 
Q 488 878 497 964 
Q 506 1050 525 1153 
L 897 3053 
L 409 3053 
L 500 3500 
L 978 3500 
L 1172 4494 
L 1747 4494 
L 1556 3500 
L 2706 3500 
z
" transform="scale(0.015625)"/>
       </defs>
       <use xlink:href="#DejaVuSans-Oblique-6b" transform="translate(0 0.015625)"/>
       <use xlink:href="#DejaVuSans-Oblique-74" transform="translate(57.910156 -16.390625) scale(0.7)"/>
       <use xlink:href="#DejaVuSans-Oblique-54" transform="translate(85.356445 -16.390625) scale(0.7)"/>
       <use xlink:href="#DejaVuSans-Oblique-41" transform="translate(128.115234 -16.390625) scale(0.7)"/>
      </g>
     </g>
    </g>
    <g id="xtick_6">
     <g id="line2d_6">
      <g>
       <use xlink:href="#ma139178ef9" x="238.101034" y="254.55866" style="stroke: #000000; stroke-width: 1.875"/>
      </g>
     </g>
     <g id="text_6">
      <!-- $\gamma_{tTA}$ -->
      <g transform="translate(238.601675 299.142284) rotate(-75) scale(0.165 -0.165)">
       <use xlink:href="#DejaVuSans-Oblique-3b3" transform="translate(0 0.3125)"/>
       <use xlink:href="#DejaVuSans-Oblique-74" transform="translate(59.179688 -16.09375) scale(0.7)"/>
       <use xlink:href="#DejaVuSans-Oblique-54" transform="translate(86.625977 -16.09375) scale(0.7)"/>
       <use xlink:href="#DejaVuSans-Oblique-41" transform="translate(129.384766 -16.09375) scale(0.7)"/>
      </g>
     </g>
    </g>
    <g id="xtick_7">
     <g id="line2d_7">
      <g>
       <use xlink:href="#ma139178ef9" x="263.382" y="254.55866" style="stroke: #000000; stroke-width: 1.875"/>
      </g>
     </g>
     <g id="text_7">
      <!-- $K_{D_{tTA}}$ -->
      <g transform="translate(262.548017 303.167332) rotate(-75) scale(0.165 -0.165)">
       <use xlink:href="#DejaVuSans-Oblique-4b" transform="translate(0 0.09375)"/>
       <use xlink:href="#DejaVuSans-Oblique-44" transform="translate(65.576172 -16.3125) scale(0.7)"/>
       <use xlink:href="#DejaVuSans-Oblique-74" transform="translate(119.477539 -27.796875) scale(0.49)"/>
       <use xlink:href="#DejaVuSans-Oblique-54" transform="translate(138.689941 -27.796875) scale(0.49)"/>
       <use xlink:href="#DejaVuSans-Oblique-41" transform="translate(168.621094 -27.796875) scale(0.49)"/>
      </g>
     </g>
    </g>
    <g id="xtick_8">
     <g id="line2d_8">
      <g>
       <use xlink:href="#ma139178ef9" x="288.662966" y="254.55866" style="stroke: #000000; stroke-width: 1.875"/>
      </g>
     </g>
     <g id="text_8">
      <!-- $EC_{50_{CNO}}$ -->
      <g transform="translate(285.132838 323.971851) rotate(-75) scale(0.165 -0.165)">
       <defs>
        <path id="DejaVuSans-Oblique-45" d="M 1081 4666 
L 4031 4666 
L 3928 4134 
L 1606 4134 
L 1338 2753 
L 3566 2753 
L 3463 2222 
L 1234 2222 
L 909 531 
L 3284 531 
L 3181 0 
L 172 0 
L 1081 4666 
z
" transform="scale(0.015625)"/>
        <path id="DejaVuSans-Oblique-43" d="M 4447 4306 
L 4319 3641 
Q 4019 3944 3683 4091 
Q 3347 4238 2956 4238 
Q 2422 4238 2017 3981 
Q 1613 3725 1319 3200 
Q 1131 2863 1032 2486 
Q 934 2109 934 1728 
Q 934 1091 1264 756 
Q 1594 422 2222 422 
Q 2656 422 3056 561 
Q 3456 700 3834 978 
L 3688 231 
Q 3316 72 2936 -9 
Q 2556 -91 2175 -91 
Q 1278 -91 773 396 
Q 269 884 269 1753 
Q 269 2309 461 2846 
Q 653 3384 1013 3828 
Q 1394 4300 1883 4525 
Q 2372 4750 3022 4750 
Q 3422 4750 3780 4639 
Q 4138 4528 4447 4306 
z
" transform="scale(0.015625)"/>
        <path id="DejaVuSans-35" d="M 691 4666 
L 3169 4666 
L 3169 4134 
L 1269 4134 
L 1269 2991 
Q 1406 3038 1543 3061 
Q 1681 3084 1819 3084 
Q 2600 3084 3056 2656 
Q 3513 2228 3513 1497 
Q 3513 744 3044 326 
Q 2575 -91 1722 -91 
Q 1428 -91 1123 -41 
Q 819 9 494 109 
L 494 744 
Q 775 591 1075 516 
Q 1375 441 1709 441 
Q 2250 441 2565 725 
Q 2881 1009 2881 1497 
Q 2881 1984 2565 2268 
Q 2250 2553 1709 2553 
Q 1456 2553 1204 2497 
Q 953 2441 691 2322 
L 691 4666 
z
" transform="scale(0.015625)"/>
        <path id="DejaVuSans-30" d="M 2034 4250 
Q 1547 4250 1301 3770 
Q 1056 3291 1056 2328 
Q 1056 1369 1301 889 
Q 1547 409 2034 409 
Q 2525 409 2770 889 
Q 3016 1369 3016 2328 
Q 3016 3291 2770 3770 
Q 2525 4250 2034 4250 
z
M 2034 4750 
Q 2819 4750 3233 4129 
Q 3647 3509 3647 2328 
Q 3647 1150 3233 529 
Q 2819 -91 2034 -91 
Q 1250 -91 836 529 
Q 422 1150 422 2328 
Q 422 3509 836 4129 
Q 1250 4750 2034 4750 
z
" transform="scale(0.015625)"/>
        <path id="DejaVuSans-Oblique-4e" d="M 1081 4666 
L 1931 4666 
L 3219 666 
L 4000 4666 
L 4616 4666 
L 3706 0 
L 2853 0 
L 1569 4025 
L 788 0 
L 172 0 
L 1081 4666 
z
" transform="scale(0.015625)"/>
        <path id="DejaVuSans-Oblique-4f" d="M 2919 4238 
Q 2400 4238 2003 3986 
Q 1606 3734 1313 3219 
Q 1125 2891 1026 2522 
Q 928 2153 928 1778 
Q 928 1128 1239 775 
Q 1550 422 2119 422 
Q 2631 422 3032 676 
Q 3434 931 3719 1434 
Q 3909 1772 4009 2142 
Q 4109 2513 4109 2881 
Q 4109 3528 3796 3883 
Q 3484 4238 2919 4238 
z
M 2100 -91 
Q 1241 -91 748 418 
Q 256 928 256 1813 
Q 256 2319 448 2847 
Q 641 3375 978 3788 
Q 1375 4272 1862 4511 
Q 2350 4750 2938 4750 
Q 3794 4750 4287 4245 
Q 4781 3741 4781 2869 
Q 4781 2331 4593 1812 
Q 4406 1294 4056 872 
Q 3656 384 3173 146 
Q 2691 -91 2100 -91 
z
" transform="scale(0.015625)"/>
       </defs>
       <use xlink:href="#DejaVuSans-Oblique-45" transform="translate(0 0.78125)"/>
       <use xlink:href="#DejaVuSans-Oblique-43" transform="translate(63.183594 0.78125)"/>
       <use xlink:href="#DejaVuSans-35" transform="translate(133.007812 -15.625) scale(0.7)"/>
       <use xlink:href="#DejaVuSans-30" transform="translate(177.543945 -15.625) scale(0.7)"/>
       <use xlink:href="#DejaVuSans-Oblique-43" transform="translate(222.75 -27.109375) scale(0.49)"/>
       <use xlink:href="#DejaVuSans-Oblique-4e" transform="translate(256.963867 -27.109375) scale(0.49)"/>
       <use xlink:href="#DejaVuSans-Oblique-4f" transform="translate(293.618164 -27.109375) scale(0.49)"/>
      </g>
     </g>
    </g>
    <g id="xtick_9">
     <g id="line2d_9">
      <g>
       <use xlink:href="#ma139178ef9" x="313.943932" y="254.55866" style="stroke: #000000; stroke-width: 1.875"/>
      </g>
     </g>
     <g id="text_9">
      <!-- $EC_{50_{CLZ}}$ -->
      <g transform="translate(310.71274 321.740563) rotate(-75) scale(0.165 -0.165)">
       <defs>
        <path id="DejaVuSans-Oblique-4c" d="M 1075 4666 
L 1709 4666 
L 909 525 
L 3181 525 
L 3078 0 
L 172 0 
L 1075 4666 
z
" transform="scale(0.015625)"/>
        <path id="DejaVuSans-Oblique-5a" d="M 838 4666 
L 4500 4666 
L 4409 4184 
L 794 531 
L 3769 531 
L 3669 0 
L -141 0 
L -50 481 
L 3566 4134 
L 738 4134 
L 838 4666 
z
" transform="scale(0.015625)"/>
       </defs>
       <use xlink:href="#DejaVuSans-Oblique-45" transform="translate(0 0.78125)"/>
       <use xlink:href="#DejaVuSans-Oblique-43" transform="translate(63.183594 0.78125)"/>
       <use xlink:href="#DejaVuSans-35" transform="translate(133.007812 -15.625) scale(0.7)"/>
       <use xlink:href="#DejaVuSans-30" transform="translate(177.543945 -15.625) scale(0.7)"/>
       <use xlink:href="#DejaVuSans-Oblique-43" transform="translate(222.75 -27.109375) scale(0.49)"/>
       <use xlink:href="#DejaVuSans-Oblique-4c" transform="translate(256.963867 -27.109375) scale(0.49)"/>
       <use xlink:href="#DejaVuSans-Oblique-5a" transform="translate(284.263184 -27.109375) scale(0.49)"/>
      </g>
     </g>
    </g>
    <g id="xtick_10">
     <g id="line2d_10">
      <g>
       <use xlink:href="#ma139178ef9" x="339.224898" y="254.55866" style="stroke: #000000; stroke-width: 1.875"/>
      </g>
     </g>
     <g id="text_10">
      <!-- $[Dq]_{ss}$ -->
      <g transform="translate(337.287425 317.480068) rotate(-75) scale(0.165 -0.165)">
       <defs>
        <path id="DejaVuSans-5b" d="M 550 4863 
L 1875 4863 
L 1875 4416 
L 1125 4416 
L 1125 -397 
L 1875 -397 
L 1875 -844 
L 550 -844 
L 550 4863 
z
" transform="scale(0.015625)"/>
        <path id="DejaVuSans-Oblique-71" d="M 2669 525 
Q 2438 222 2123 65 
Q 1809 -91 1428 -91 
Q 897 -91 595 267 
Q 294 625 294 1253 
Q 294 1759 480 2231 
Q 666 2703 1013 3078 
Q 1238 3322 1530 3453 
Q 1822 3584 2144 3584 
Q 2531 3584 2781 3431 
Q 3031 3278 3144 2969 
L 3244 3494 
L 3822 3494 
L 2888 -1319 
L 2309 -1319 
L 2669 525 
z
M 891 1338 
Q 891 875 1084 633 
Q 1278 391 1644 391 
Q 2188 391 2572 911 
Q 2956 1431 2956 2175 
Q 2956 2625 2757 2864 
Q 2559 3103 2188 3103 
Q 1916 3103 1684 2976 
Q 1453 2850 1281 2606 
Q 1100 2350 995 2006 
Q 891 1663 891 1338 
z
" transform="scale(0.015625)"/>
        <path id="DejaVuSans-5d" d="M 1947 4863 
L 1947 -844 
L 622 -844 
L 622 -397 
L 1369 -397 
L 1369 4416 
L 622 4416 
L 622 4863 
L 1947 4863 
z
" transform="scale(0.015625)"/>
        <path id="DejaVuSans-Oblique-73" d="M 3200 3397 
L 3091 2853 
Q 2863 2978 2609 3040 
Q 2356 3103 2088 3103 
Q 1634 3103 1373 2948 
Q 1113 2794 1113 2528 
Q 1113 2219 1719 2053 
Q 1766 2041 1788 2034 
L 1972 1978 
Q 2547 1819 2739 1644 
Q 2931 1469 2931 1166 
Q 2931 609 2489 259 
Q 2047 -91 1331 -91 
Q 1053 -91 747 -37 
Q 441 16 72 128 
L 184 722 
Q 500 559 806 475 
Q 1113 391 1394 391 
Q 1816 391 2080 572 
Q 2344 753 2344 1031 
Q 2344 1331 1650 1516 
L 1591 1531 
L 1394 1581 
Q 956 1697 753 1886 
Q 550 2075 550 2369 
Q 550 2928 970 3256 
Q 1391 3584 2113 3584 
Q 2397 3584 2667 3537 
Q 2938 3491 3200 3397 
z
" transform="scale(0.015625)"/>
       </defs>
       <use xlink:href="#DejaVuSans-5b" transform="translate(0 0.015625)"/>
       <use xlink:href="#DejaVuSans-Oblique-44" transform="translate(39.013672 0.015625)"/>
       <use xlink:href="#DejaVuSans-Oblique-71" transform="translate(116.015625 0.015625)"/>
       <use xlink:href="#DejaVuSans-5d" transform="translate(179.492188 0.015625)"/>
       <use xlink:href="#DejaVuSans-Oblique-73" transform="translate(219.462891 -16.390625) scale(0.7)"/>
       <use xlink:href="#DejaVuSans-Oblique-73" transform="translate(255.932617 -16.390625) scale(0.7)"/>
      </g>
     </g>
    </g>
    <g id="xtick_11">
     <g id="line2d_11">
      <g>
       <use xlink:href="#ma139178ef9" x="364.505864" y="254.55866" style="stroke: #000000; stroke-width: 1.875"/>
      </g>
     </g>
     <g id="text_11">
      <!-- $EC_{50_{Dq}}$ -->
      <g transform="translate(361.112639 317.596741) rotate(-75) scale(0.165 -0.165)">
       <use xlink:href="#DejaVuSans-Oblique-45" transform="translate(0 0.78125)"/>
       <use xlink:href="#DejaVuSans-Oblique-43" transform="translate(63.183594 0.78125)"/>
       <use xlink:href="#DejaVuSans-35" transform="translate(133.007812 -15.625) scale(0.7)"/>
       <use xlink:href="#DejaVuSans-30" transform="translate(177.543945 -15.625) scale(0.7)"/>
       <use xlink:href="#DejaVuSans-Oblique-44" transform="translate(222.75 -27.109375) scale(0.49)"/>
       <use xlink:href="#DejaVuSans-Oblique-71" transform="translate(260.480957 -27.109375) scale(0.49)"/>
      </g>
     </g>
    </g>
    <g id="xtick_12">
     <g id="line2d_12">
      <g>
       <use xlink:href="#ma139178ef9" x="389.78683" y="254.55866" style="stroke: #000000; stroke-width: 1.875"/>
      </g>
     </g>
     <g id="text_12">
      <!-- $k_{0_{RMA}}$ -->
      <g transform="translate(388.957035 305.048603) rotate(-75) scale(0.165 -0.165)">
       <use xlink:href="#DejaVuSans-Oblique-6b" transform="translate(0 0.015625)"/>
       <use xlink:href="#DejaVuSans-30" transform="translate(57.910156 -16.390625) scale(0.7)"/>
       <use xlink:href="#DejaVuSans-Oblique-52" transform="translate(103.116211 -27.875) scale(0.49)"/>
       <use xlink:href="#DejaVuSans-Oblique-4d" transform="translate(137.162598 -27.875) scale(0.49)"/>
       <use xlink:href="#DejaVuSans-Oblique-41" transform="translate(179.439453 -27.875) scale(0.49)"/>
      </g>
     </g>
    </g>
    <g id="xtick_13">
     <g id="line2d_13">
      <g>
       <use xlink:href="#ma139178ef9" x="415.067795" y="254.55866" style="stroke: #000000; stroke-width: 1.875"/>
      </g>
     </g>
     <g id="text_13">
      <!-- $k_{0_{tTA}}$ -->
      <g transform="translate(414.814521 300.745403) rotate(-75) scale(0.165 -0.165)">
       <use xlink:href="#DejaVuSans-Oblique-6b" transform="translate(0 0.015625)"/>
       <use xlink:href="#DejaVuSans-30" transform="translate(57.910156 -16.390625) scale(0.7)"/>
       <use xlink:href="#DejaVuSans-Oblique-74" transform="translate(103.116211 -27.875) scale(0.49)"/>
       <use xlink:href="#DejaVuSans-Oblique-54" transform="translate(122.328613 -27.875) scale(0.49)"/>
       <use xlink:href="#DejaVuSans-Oblique-41" transform="translate(152.259766 -27.875) scale(0.49)"/>
      </g>
     </g>
    </g>
   </g>
   <g id="matplotlib.axis_2">
    <g id="ytick_1">
     <g id="line2d_14">
      <defs>
       <path id="md9b51bdf06" d="M 0 0 
L -9 0 
" style="stroke: #000000; stroke-width: 1.875"/>
      </defs>
      <g>
       <use xlink:href="#md9b51bdf06" x="85.404" y="254.55866" style="stroke: #000000; stroke-width: 1.875"/>
      </g>
     </g>
     <g id="text_14">
      <!-- 0.0 -->
      <g transform="translate(46.663844 260.827371) scale(0.165 -0.165)">
       <defs>
        <path id="DejaVuSans-2e" d="M 684 794 
L 1344 794 
L 1344 0 
L 684 0 
L 684 794 
z
" transform="scale(0.015625)"/>
       </defs>
       <use xlink:href="#DejaVuSans-30"/>
       <use xlink:href="#DejaVuSans-2e" transform="translate(63.623047 0)"/>
       <use xlink:href="#DejaVuSans-30" transform="translate(95.410156 0)"/>
      </g>
     </g>
    </g>
    <g id="ytick_2">
     <g id="line2d_15">
      <g>
       <use xlink:href="#md9b51bdf06" x="85.404" y="199.982147" style="stroke: #000000; stroke-width: 1.875"/>
      </g>
     </g>
     <g id="text_15">
      <!-- 0.2 -->
      <g transform="translate(46.663844 206.250858) scale(0.165 -0.165)">
       <defs>
        <path id="DejaVuSans-32" d="M 1228 531 
L 3431 531 
L 3431 0 
L 469 0 
L 469 531 
Q 828 903 1448 1529 
Q 2069 2156 2228 2338 
Q 2531 2678 2651 2914 
Q 2772 3150 2772 3378 
Q 2772 3750 2511 3984 
Q 2250 4219 1831 4219 
Q 1534 4219 1204 4116 
Q 875 4013 500 3803 
L 500 4441 
Q 881 4594 1212 4672 
Q 1544 4750 1819 4750 
Q 2544 4750 2975 4387 
Q 3406 4025 3406 3419 
Q 3406 3131 3298 2873 
Q 3191 2616 2906 2266 
Q 2828 2175 2409 1742 
Q 1991 1309 1228 531 
z
" transform="scale(0.015625)"/>
       </defs>
       <use xlink:href="#DejaVuSans-30"/>
       <use xlink:href="#DejaVuSans-2e" transform="translate(63.623047 0)"/>
       <use xlink:href="#DejaVuSans-32" transform="translate(95.410156 0)"/>
      </g>
     </g>
    </g>
    <g id="ytick_3">
     <g id="line2d_16">
      <g>
       <use xlink:href="#md9b51bdf06" x="85.404" y="145.405635" style="stroke: #000000; stroke-width: 1.875"/>
      </g>
     </g>
     <g id="text_16">
      <!-- 0.4 -->
      <g transform="translate(46.663844 151.674346) scale(0.165 -0.165)">
       <defs>
        <path id="DejaVuSans-34" d="M 2419 4116 
L 825 1625 
L 2419 1625 
L 2419 4116 
z
M 2253 4666 
L 3047 4666 
L 3047 1625 
L 3713 1625 
L 3713 1100 
L 3047 1100 
L 3047 0 
L 2419 0 
L 2419 1100 
L 313 1100 
L 313 1709 
L 2253 4666 
z
" transform="scale(0.015625)"/>
       </defs>
       <use xlink:href="#DejaVuSans-30"/>
       <use xlink:href="#DejaVuSans-2e" transform="translate(63.623047 0)"/>
       <use xlink:href="#DejaVuSans-34" transform="translate(95.410156 0)"/>
      </g>
     </g>
    </g>
    <g id="ytick_4">
     <g id="line2d_17">
      <g>
       <use xlink:href="#md9b51bdf06" x="85.404" y="90.829122" style="stroke: #000000; stroke-width: 1.875"/>
      </g>
     </g>
     <g id="text_17">
      <!-- 0.6 -->
      <g transform="translate(46.663844 97.097833) scale(0.165 -0.165)">
       <defs>
        <path id="DejaVuSans-36" d="M 2113 2584 
Q 1688 2584 1439 2293 
Q 1191 2003 1191 1497 
Q 1191 994 1439 701 
Q 1688 409 2113 409 
Q 2538 409 2786 701 
Q 3034 994 3034 1497 
Q 3034 2003 2786 2293 
Q 2538 2584 2113 2584 
z
M 3366 4563 
L 3366 3988 
Q 3128 4100 2886 4159 
Q 2644 4219 2406 4219 
Q 1781 4219 1451 3797 
Q 1122 3375 1075 2522 
Q 1259 2794 1537 2939 
Q 1816 3084 2150 3084 
Q 2853 3084 3261 2657 
Q 3669 2231 3669 1497 
Q 3669 778 3244 343 
Q 2819 -91 2113 -91 
Q 1303 -91 875 529 
Q 447 1150 447 2328 
Q 447 3434 972 4092 
Q 1497 4750 2381 4750 
Q 2619 4750 2861 4703 
Q 3103 4656 3366 4563 
z
" transform="scale(0.015625)"/>
       </defs>
       <use xlink:href="#DejaVuSans-30"/>
       <use xlink:href="#DejaVuSans-2e" transform="translate(63.623047 0)"/>
       <use xlink:href="#DejaVuSans-36" transform="translate(95.410156 0)"/>
      </g>
     </g>
    </g>
    <g id="ytick_5">
     <g id="line2d_18">
      <g>
       <use xlink:href="#md9b51bdf06" x="85.404" y="36.25261" style="stroke: #000000; stroke-width: 1.875"/>
      </g>
     </g>
     <g id="text_18">
      <!-- 0.8 -->
      <g transform="translate(46.663844 42.521321) scale(0.165 -0.165)">
       <defs>
        <path id="DejaVuSans-38" d="M 2034 2216 
Q 1584 2216 1326 1975 
Q 1069 1734 1069 1313 
Q 1069 891 1326 650 
Q 1584 409 2034 409 
Q 2484 409 2743 651 
Q 3003 894 3003 1313 
Q 3003 1734 2745 1975 
Q 2488 2216 2034 2216 
z
M 1403 2484 
Q 997 2584 770 2862 
Q 544 3141 544 3541 
Q 544 4100 942 4425 
Q 1341 4750 2034 4750 
Q 2731 4750 3128 4425 
Q 3525 4100 3525 3541 
Q 3525 3141 3298 2862 
Q 3072 2584 2669 2484 
Q 3125 2378 3379 2068 
Q 3634 1759 3634 1313 
Q 3634 634 3220 271 
Q 2806 -91 2034 -91 
Q 1263 -91 848 271 
Q 434 634 434 1313 
Q 434 1759 690 2068 
Q 947 2378 1403 2484 
z
M 1172 3481 
Q 1172 3119 1398 2916 
Q 1625 2713 2034 2713 
Q 2441 2713 2670 2916 
Q 2900 3119 2900 3481 
Q 2900 3844 2670 4047 
Q 2441 4250 2034 4250 
Q 1625 4250 1398 4047 
Q 1172 3844 1172 3481 
z
" transform="scale(0.015625)"/>
       </defs>
       <use xlink:href="#DejaVuSans-30"/>
       <use xlink:href="#DejaVuSans-2e" transform="translate(63.623047 0)"/>
       <use xlink:href="#DejaVuSans-38" transform="translate(95.410156 0)"/>
      </g>
     </g>
    </g>
    <g id="text_19">
     <!-- Mean Morris Sensitivty, $µ^*$ -->
     <g transform="translate(38.883844 257.23933) rotate(-90) scale(0.18 -0.18)">
      <defs>
       <path id="DejaVuSans-4d" d="M 628 4666 
L 1569 4666 
L 2759 1491 
L 3956 4666 
L 4897 4666 
L 4897 0 
L 4281 0 
L 4281 4097 
L 3078 897 
L 2444 897 
L 1241 4097 
L 1241 0 
L 628 0 
L 628 4666 
z
" transform="scale(0.015625)"/>
       <path id="DejaVuSans-65" d="M 3597 1894 
L 3597 1613 
L 953 1613 
Q 991 1019 1311 708 
Q 1631 397 2203 397 
Q 2534 397 2845 478 
Q 3156 559 3463 722 
L 3463 178 
Q 3153 47 2828 -22 
Q 2503 -91 2169 -91 
Q 1331 -91 842 396 
Q 353 884 353 1716 
Q 353 2575 817 3079 
Q 1281 3584 2069 3584 
Q 2775 3584 3186 3129 
Q 3597 2675 3597 1894 
z
M 3022 2063 
Q 3016 2534 2758 2815 
Q 2500 3097 2075 3097 
Q 1594 3097 1305 2825 
Q 1016 2553 972 2059 
L 3022 2063 
z
" transform="scale(0.015625)"/>
       <path id="DejaVuSans-61" d="M 2194 1759 
Q 1497 1759 1228 1600 
Q 959 1441 959 1056 
Q 959 750 1161 570 
Q 1363 391 1709 391 
Q 2188 391 2477 730 
Q 2766 1069 2766 1631 
L 2766 1759 
L 2194 1759 
z
M 3341 1997 
L 3341 0 
L 2766 0 
L 2766 531 
Q 2569 213 2275 61 
Q 1981 -91 1556 -91 
Q 1019 -91 701 211 
Q 384 513 384 1019 
Q 384 1609 779 1909 
Q 1175 2209 1959 2209 
L 2766 2209 
L 2766 2266 
Q 2766 2663 2505 2880 
Q 2244 3097 1772 3097 
Q 1472 3097 1187 3025 
Q 903 2953 641 2809 
L 641 3341 
Q 956 3463 1253 3523 
Q 1550 3584 1831 3584 
Q 2591 3584 2966 3190 
Q 3341 2797 3341 1997 
z
" transform="scale(0.015625)"/>
       <path id="DejaVuSans-6e" d="M 3513 2113 
L 3513 0 
L 2938 0 
L 2938 2094 
Q 2938 2591 2744 2837 
Q 2550 3084 2163 3084 
Q 1697 3084 1428 2787 
Q 1159 2491 1159 1978 
L 1159 0 
L 581 0 
L 581 3500 
L 1159 3500 
L 1159 2956 
Q 1366 3272 1645 3428 
Q 1925 3584 2291 3584 
Q 2894 3584 3203 3211 
Q 3513 2838 3513 2113 
z
" transform="scale(0.015625)"/>
       <path id="DejaVuSans-20" transform="scale(0.015625)"/>
       <path id="DejaVuSans-6f" d="M 1959 3097 
Q 1497 3097 1228 2736 
Q 959 2375 959 1747 
Q 959 1119 1226 758 
Q 1494 397 1959 397 
Q 2419 397 2687 759 
Q 2956 1122 2956 1747 
Q 2956 2369 2687 2733 
Q 2419 3097 1959 3097 
z
M 1959 3584 
Q 2709 3584 3137 3096 
Q 3566 2609 3566 1747 
Q 3566 888 3137 398 
Q 2709 -91 1959 -91 
Q 1206 -91 779 398 
Q 353 888 353 1747 
Q 353 2609 779 3096 
Q 1206 3584 1959 3584 
z
" transform="scale(0.015625)"/>
       <path id="DejaVuSans-72" d="M 2631 2963 
Q 2534 3019 2420 3045 
Q 2306 3072 2169 3072 
Q 1681 3072 1420 2755 
Q 1159 2438 1159 1844 
L 1159 0 
L 581 0 
L 581 3500 
L 1159 3500 
L 1159 2956 
Q 1341 3275 1631 3429 
Q 1922 3584 2338 3584 
Q 2397 3584 2469 3576 
Q 2541 3569 2628 3553 
L 2631 2963 
z
" transform="scale(0.015625)"/>
       <path id="DejaVuSans-69" d="M 603 3500 
L 1178 3500 
L 1178 0 
L 603 0 
L 603 3500 
z
M 603 4863 
L 1178 4863 
L 1178 4134 
L 603 4134 
L 603 4863 
z
" transform="scale(0.015625)"/>
       <path id="DejaVuSans-73" d="M 2834 3397 
L 2834 2853 
Q 2591 2978 2328 3040 
Q 2066 3103 1784 3103 
Q 1356 3103 1142 2972 
Q 928 2841 928 2578 
Q 928 2378 1081 2264 
Q 1234 2150 1697 2047 
L 1894 2003 
Q 2506 1872 2764 1633 
Q 3022 1394 3022 966 
Q 3022 478 2636 193 
Q 2250 -91 1575 -91 
Q 1294 -91 989 -36 
Q 684 19 347 128 
L 347 722 
Q 666 556 975 473 
Q 1284 391 1588 391 
Q 1994 391 2212 530 
Q 2431 669 2431 922 
Q 2431 1156 2273 1281 
Q 2116 1406 1581 1522 
L 1381 1569 
Q 847 1681 609 1914 
Q 372 2147 372 2553 
Q 372 3047 722 3315 
Q 1072 3584 1716 3584 
Q 2034 3584 2315 3537 
Q 2597 3491 2834 3397 
z
" transform="scale(0.015625)"/>
       <path id="DejaVuSans-53" d="M 3425 4513 
L 3425 3897 
Q 3066 4069 2747 4153 
Q 2428 4238 2131 4238 
Q 1616 4238 1336 4038 
Q 1056 3838 1056 3469 
Q 1056 3159 1242 3001 
Q 1428 2844 1947 2747 
L 2328 2669 
Q 3034 2534 3370 2195 
Q 3706 1856 3706 1288 
Q 3706 609 3251 259 
Q 2797 -91 1919 -91 
Q 1588 -91 1214 -16 
Q 841 59 441 206 
L 441 856 
Q 825 641 1194 531 
Q 1563 422 1919 422 
Q 2459 422 2753 634 
Q 3047 847 3047 1241 
Q 3047 1584 2836 1778 
Q 2625 1972 2144 2069 
L 1759 2144 
Q 1053 2284 737 2584 
Q 422 2884 422 3419 
Q 422 4038 858 4394 
Q 1294 4750 2059 4750 
Q 2388 4750 2728 4690 
Q 3069 4631 3425 4513 
z
" transform="scale(0.015625)"/>
       <path id="DejaVuSans-74" d="M 1172 4494 
L 1172 3500 
L 2356 3500 
L 2356 3053 
L 1172 3053 
L 1172 1153 
Q 1172 725 1289 603 
Q 1406 481 1766 481 
L 2356 481 
L 2356 0 
L 1766 0 
Q 1100 0 847 248 
Q 594 497 594 1153 
L 594 3053 
L 172 3053 
L 172 3500 
L 594 3500 
L 594 4494 
L 1172 4494 
z
" transform="scale(0.015625)"/>
       <path id="DejaVuSans-76" d="M 191 3500 
L 800 3500 
L 1894 563 
L 2988 3500 
L 3597 3500 
L 2284 0 
L 1503 0 
L 191 3500 
z
" transform="scale(0.015625)"/>
       <path id="DejaVuSans-79" d="M 2059 -325 
Q 1816 -950 1584 -1140 
Q 1353 -1331 966 -1331 
L 506 -1331 
L 506 -850 
L 844 -850 
Q 1081 -850 1212 -737 
Q 1344 -625 1503 -206 
L 1606 56 
L 191 3500 
L 800 3500 
L 1894 763 
L 2988 3500 
L 3597 3500 
L 2059 -325 
z
" transform="scale(0.015625)"/>
       <path id="DejaVuSans-2c" d="M 750 794 
L 1409 794 
L 1409 256 
L 897 -744 
L 494 -744 
L 750 256 
L 750 794 
z
" transform="scale(0.015625)"/>
       <path id="DejaVuSans-Oblique-b5" d="M -84 -1331 
L 856 3500 
L 1434 3500 
L 1009 1322 
Q 997 1256 987 1175 
Q 978 1094 978 1013 
Q 978 722 1161 565 
Q 1344 409 1684 409 
Q 2147 409 2431 671 
Q 2716 934 2816 1459 
L 3213 3500 
L 3788 3500 
L 3266 809 
Q 3253 750 3248 706 
Q 3244 663 3244 628 
Q 3244 531 3283 486 
Q 3322 441 3406 441 
Q 3438 441 3492 456 
Q 3547 472 3647 513 
L 3559 50 
Q 3422 -19 3297 -55 
Q 3172 -91 3053 -91 
Q 2847 -91 2730 40 
Q 2613 172 2613 403 
Q 2438 153 2195 31 
Q 1953 -91 1625 -91 
Q 1334 -91 1117 43 
Q 900 178 831 397 
L 494 -1331 
L -84 -1331 
z
" transform="scale(0.015625)"/>
       <path id="DejaVuSans-2a" d="M 3009 3897 
L 1888 3291 
L 3009 2681 
L 2828 2375 
L 1778 3009 
L 1778 1831 
L 1422 1831 
L 1422 3009 
L 372 2375 
L 191 2681 
L 1313 3291 
L 191 3897 
L 372 4206 
L 1422 3572 
L 1422 4750 
L 1778 4750 
L 1778 3572 
L 2828 4206 
L 3009 3897 
z
" transform="scale(0.015625)"/>
      </defs>
      <use xlink:href="#DejaVuSans-4d" transform="translate(0 0.765625)"/>
      <use xlink:href="#DejaVuSans-65" transform="translate(86.279297 0.765625)"/>
      <use xlink:href="#DejaVuSans-61" transform="translate(147.802734 0.765625)"/>
      <use xlink:href="#DejaVuSans-6e" transform="translate(209.082031 0.765625)"/>
      <use xlink:href="#DejaVuSans-20" transform="translate(272.460938 0.765625)"/>
      <use xlink:href="#DejaVuSans-4d" transform="translate(304.248047 0.765625)"/>
      <use xlink:href="#DejaVuSans-6f" transform="translate(390.527344 0.765625)"/>
      <use xlink:href="#DejaVuSans-72" transform="translate(451.708984 0.765625)"/>
      <use xlink:href="#DejaVuSans-72" transform="translate(492.822266 0.765625)"/>
      <use xlink:href="#DejaVuSans-69" transform="translate(533.935547 0.765625)"/>
      <use xlink:href="#DejaVuSans-73" transform="translate(561.71875 0.765625)"/>
      <use xlink:href="#DejaVuSans-20" transform="translate(613.818359 0.765625)"/>
      <use xlink:href="#DejaVuSans-53" transform="translate(645.605469 0.765625)"/>
      <use xlink:href="#DejaVuSans-65" transform="translate(709.082031 0.765625)"/>
      <use xlink:href="#DejaVuSans-6e" transform="translate(770.605469 0.765625)"/>
      <use xlink:href="#DejaVuSans-73" transform="translate(833.984375 0.765625)"/>
      <use xlink:href="#DejaVuSans-69" transform="translate(886.083984 0.765625)"/>
      <use xlink:href="#DejaVuSans-74" transform="translate(913.867188 0.765625)"/>
      <use xlink:href="#DejaVuSans-69" transform="translate(953.076172 0.765625)"/>
      <use xlink:href="#DejaVuSans-76" transform="translate(980.859375 0.765625)"/>
      <use xlink:href="#DejaVuSans-74" transform="translate(1040.039062 0.765625)"/>
      <use xlink:href="#DejaVuSans-79" transform="translate(1079.248047 0.765625)"/>
      <use xlink:href="#DejaVuSans-2c" transform="translate(1138.427734 0.765625)"/>
      <use xlink:href="#DejaVuSans-20" transform="translate(1170.214844 0.765625)"/>
      <use xlink:href="#DejaVuSans-Oblique-b5" transform="translate(1202.001953 0.765625)"/>
      <use xlink:href="#DejaVuSans-2a" transform="translate(1283.728841 39.046875) scale(0.7)"/>
     </g>
    </g>
   </g>
   <g id="LineCollection_1">
    <path d="M 111.696205 39.094752 
L 111.696205 30.636127 
" clip-path="url(#p0690c6656d)" style="fill: none; stroke: #000000; stroke-width: 2.25"/>
    <path d="M 136.97717 250.708553 
L 136.97717 249.444665 
" clip-path="url(#p0690c6656d)" style="fill: none; stroke: #000000; stroke-width: 2.25"/>
    <path d="M 162.258136 223.277586 
L 162.258136 220.559372 
" clip-path="url(#p0690c6656d)" style="fill: none; stroke: #000000; stroke-width: 2.25"/>
    <path d="M 187.539102 254.299352 
L 187.539102 254.248567 
" clip-path="url(#p0690c6656d)" style="fill: none; stroke: #000000; stroke-width: 2.25"/>
    <path d="M 212.820068 224.497401 
L 212.820068 218.864833 
" clip-path="url(#p0690c6656d)" style="fill: none; stroke: #000000; stroke-width: 2.25"/>
    <path d="M 238.101034 166.827132 
L 238.101034 153.859222 
" clip-path="url(#p0690c6656d)" style="fill: none; stroke: #000000; stroke-width: 2.25"/>
    <path d="M 263.382 223.438431 
L 263.382 217.937449 
" clip-path="url(#p0690c6656d)" style="fill: none; stroke: #000000; stroke-width: 2.25"/>
    <path d="M 288.662966 254.55866 
L 288.662966 254.55866 
" clip-path="url(#p0690c6656d)" style="fill: none; stroke: #000000; stroke-width: 2.25"/>
    <path d="M 313.943932 254.55866 
L 313.943932 254.55866 
" clip-path="url(#p0690c6656d)" style="fill: none; stroke: #000000; stroke-width: 2.25"/>
    <path d="M 339.224898 242.989779 
L 339.224898 239.873302 
" clip-path="url(#p0690c6656d)" style="fill: none; stroke: #000000; stroke-width: 2.25"/>
    <path d="M 364.505864 242.854529 
L 364.505864 240.312173 
" clip-path="url(#p0690c6656d)" style="fill: none; stroke: #000000; stroke-width: 2.25"/>
    <path d="M 389.78683 249.418104 
L 389.78683 249.112747 
" clip-path="url(#p0690c6656d)" style="fill: none; stroke: #000000; stroke-width: 2.25"/>
    <path d="M 415.067795 253.496329 
L 415.067795 253.30033 
" clip-path="url(#p0690c6656d)" style="fill: none; stroke: #000000; stroke-width: 2.25"/>
   </g>
   <g id="patch_16">
    <path d="M 85.404 254.55866 
L 85.404 19.44 
" style="fill: none; stroke: #000000; stroke-width: 1.875; stroke-linejoin: miter; stroke-linecap: square"/>
   </g>
   <g id="patch_17">
    <path d="M 85.404 254.55866 
L 441.36 254.55866 
" style="fill: none; stroke: #000000; stroke-width: 1.875; stroke-linejoin: miter; stroke-linecap: square"/>
   </g>
  </g>
 </g>
 <defs>
  <clipPath id="p0690c6656d">
   <rect x="85.404" y="19.44" width="355.956" height="235.11866"/>
  </clipPath>
 </defs>
</svg>
