<?xml version="1.0" encoding="utf-8" standalone="no"?>
<!DOCTYPE svg PUBLIC "-//W3C//DTD SVG 1.1//EN"
  "http://www.w3.org/Graphics/SVG/1.1/DTD/svg11.dtd">
<svg xmlns:xlink="http://www.w3.org/1999/xlink" width="460.8pt" height="345.6pt" viewBox="0 0 460.8 345.6" xmlns="http://www.w3.org/2000/svg" version="1.1">
 <metadata>
  <rdf:RDF xmlns:dc="http://purl.org/dc/elements/1.1/" xmlns:cc="http://creativecommons.org/ns#" xmlns:rdf="http://www.w3.org/1999/02/22-rdf-syntax-ns#">
   <cc:Work>
    <dc:type rdf:resource="http://purl.org/dc/dcmitype/StillImage"/>
    <dc:date>2025-06-16T16:09:49.817391</dc:date>
    <dc:format>image/svg+xml</dc:format>
    <dc:creator>
     <cc:Agent>
      <dc:title>Matplotlib v3.10.3, https://matplotlib.org/</dc:title>
     </cc:Agent>
    </dc:creator>
   </cc:Work>
  </rdf:RDF>
 </metadata>
 <defs>
  <style type="text/css">*{stroke-linejoin: round; stroke-linecap: butt}</style>
 </defs>
 <g id="figure_1">
  <g id="patch_1">
   <path d="M 0 345.6 
L 460.8 345.6 
L 460.8 0 
L 0 0 
z
" style="fill: #ffffff"/>
  </g>
  <g id="axes_1">
   <g id="patch_2">
    <path d="M 84.63 278.7 
L 441.36 278.7 
L 441.36 19.44 
L 84.63 19.44 
z
" style="fill: #ffffff"/>
   </g>
   <g id="matplotlib.axis_1">
    <g id="xtick_1">
     <g id="line2d_1">
      <defs>
       <path id="mb998b460d0" d="M 0 0 
L 0 9 
" style="stroke: #262626; stroke-width: 1.875"/>
      </defs>
      <g>
       <use xlink:href="#mb998b460d0" x="100.845" y="278.7" style="fill: #262626; stroke: #262626; stroke-width: 1.875"/>
      </g>
     </g>
     <g id="text_1">
      <!-- 0 -->
      <g style="fill: #262626" transform="translate(96.257227 303.010391) scale(0.165 -0.165)">
       <defs>
        <path id="ArialMT-30" d="M 266 2259 
Q 266 3072 433 3567 
Q 600 4063 929 4331 
Q 1259 4600 1759 4600 
Q 2128 4600 2406 4451 
Q 2684 4303 2865 4023 
Q 3047 3744 3150 3342 
Q 3253 2941 3253 2259 
Q 3253 1453 3087 958 
Q 2922 463 2592 192 
Q 2263 -78 1759 -78 
Q 1097 -78 719 397 
Q 266 969 266 2259 
z
M 844 2259 
Q 844 1131 1108 757 
Q 1372 384 1759 384 
Q 2147 384 2411 759 
Q 2675 1134 2675 2259 
Q 2675 3391 2411 3762 
Q 2147 4134 1753 4134 
Q 1366 4134 1134 3806 
Q 844 3388 844 2259 
z
" transform="scale(0.015625)"/>
       </defs>
       <use xlink:href="#ArialMT-30"/>
      </g>
     </g>
    </g>
    <g id="xtick_2">
     <g id="line2d_2">
      <g>
       <use xlink:href="#mb998b460d0" x="165.190238" y="278.7" style="fill: #262626; stroke: #262626; stroke-width: 1.875"/>
      </g>
     </g>
     <g id="text_2">
      <!-- 100 -->
      <g style="fill: #262626" transform="translate(151.426918 303.010391) scale(0.165 -0.165)">
       <defs>
        <path id="ArialMT-31" d="M 2384 0 
L 1822 0 
L 1822 3584 
Q 1619 3391 1289 3197 
Q 959 3003 697 2906 
L 697 3450 
Q 1169 3672 1522 3987 
Q 1875 4303 2022 4600 
L 2384 4600 
L 2384 0 
z
" transform="scale(0.015625)"/>
       </defs>
       <use xlink:href="#ArialMT-31"/>
       <use xlink:href="#ArialMT-30" transform="translate(55.615234 0)"/>
       <use xlink:href="#ArialMT-30" transform="translate(111.230469 0)"/>
      </g>
     </g>
    </g>
    <g id="xtick_3">
     <g id="line2d_3">
      <g>
       <use xlink:href="#mb998b460d0" x="229.535476" y="278.7" style="fill: #262626; stroke: #262626; stroke-width: 1.875"/>
      </g>
     </g>
     <g id="text_3">
      <!-- 200 -->
      <g style="fill: #262626" transform="translate(215.772156 303.010391) scale(0.165 -0.165)">
       <defs>
        <path id="ArialMT-32" d="M 3222 541 
L 3222 0 
L 194 0 
Q 188 203 259 391 
Q 375 700 629 1000 
Q 884 1300 1366 1694 
Q 2113 2306 2375 2664 
Q 2638 3022 2638 3341 
Q 2638 3675 2398 3904 
Q 2159 4134 1775 4134 
Q 1369 4134 1125 3890 
Q 881 3647 878 3216 
L 300 3275 
Q 359 3922 746 4261 
Q 1134 4600 1788 4600 
Q 2447 4600 2831 4234 
Q 3216 3869 3216 3328 
Q 3216 3053 3103 2787 
Q 2991 2522 2730 2228 
Q 2469 1934 1863 1422 
Q 1356 997 1212 845 
Q 1069 694 975 541 
L 3222 541 
z
" transform="scale(0.015625)"/>
       </defs>
       <use xlink:href="#ArialMT-32"/>
       <use xlink:href="#ArialMT-30" transform="translate(55.615234 0)"/>
       <use xlink:href="#ArialMT-30" transform="translate(111.230469 0)"/>
      </g>
     </g>
    </g>
    <g id="xtick_4">
     <g id="line2d_4">
      <g>
       <use xlink:href="#mb998b460d0" x="293.880714" y="278.7" style="fill: #262626; stroke: #262626; stroke-width: 1.875"/>
      </g>
     </g>
     <g id="text_4">
      <!-- 300 -->
      <g style="fill: #262626" transform="translate(280.117394 303.010391) scale(0.165 -0.165)">
       <defs>
        <path id="ArialMT-33" d="M 269 1209 
L 831 1284 
Q 928 806 1161 595 
Q 1394 384 1728 384 
Q 2125 384 2398 659 
Q 2672 934 2672 1341 
Q 2672 1728 2419 1979 
Q 2166 2231 1775 2231 
Q 1616 2231 1378 2169 
L 1441 2663 
Q 1497 2656 1531 2656 
Q 1891 2656 2178 2843 
Q 2466 3031 2466 3422 
Q 2466 3731 2256 3934 
Q 2047 4138 1716 4138 
Q 1388 4138 1169 3931 
Q 950 3725 888 3313 
L 325 3413 
Q 428 3978 793 4289 
Q 1159 4600 1703 4600 
Q 2078 4600 2393 4439 
Q 2709 4278 2876 4000 
Q 3044 3722 3044 3409 
Q 3044 3113 2884 2869 
Q 2725 2625 2413 2481 
Q 2819 2388 3044 2092 
Q 3269 1797 3269 1353 
Q 3269 753 2831 336 
Q 2394 -81 1725 -81 
Q 1122 -81 723 278 
Q 325 638 269 1209 
z
" transform="scale(0.015625)"/>
       </defs>
       <use xlink:href="#ArialMT-33"/>
       <use xlink:href="#ArialMT-30" transform="translate(55.615234 0)"/>
       <use xlink:href="#ArialMT-30" transform="translate(111.230469 0)"/>
      </g>
     </g>
    </g>
    <g id="xtick_5">
     <g id="line2d_5">
      <g>
       <use xlink:href="#mb998b460d0" x="358.225952" y="278.7" style="fill: #262626; stroke: #262626; stroke-width: 1.875"/>
      </g>
     </g>
     <g id="text_5">
      <!-- 400 -->
      <g style="fill: #262626" transform="translate(344.462632 303.010391) scale(0.165 -0.165)">
       <defs>
        <path id="ArialMT-34" d="M 2069 0 
L 2069 1097 
L 81 1097 
L 81 1613 
L 2172 4581 
L 2631 4581 
L 2631 1613 
L 3250 1613 
L 3250 1097 
L 2631 1097 
L 2631 0 
L 2069 0 
z
M 2069 1613 
L 2069 3678 
L 634 1613 
L 2069 1613 
z
" transform="scale(0.015625)"/>
       </defs>
       <use xlink:href="#ArialMT-34"/>
       <use xlink:href="#ArialMT-30" transform="translate(55.615234 0)"/>
       <use xlink:href="#ArialMT-30" transform="translate(111.230469 0)"/>
      </g>
     </g>
    </g>
    <g id="xtick_6">
     <g id="line2d_6">
      <g>
       <use xlink:href="#mb998b460d0" x="422.57119" y="278.7" style="fill: #262626; stroke: #262626; stroke-width: 1.875"/>
      </g>
     </g>
     <g id="text_6">
      <!-- 500 -->
      <g style="fill: #262626" transform="translate(408.80787 303.010391) scale(0.165 -0.165)">
       <defs>
        <path id="ArialMT-35" d="M 266 1200 
L 856 1250 
Q 922 819 1161 601 
Q 1400 384 1738 384 
Q 2144 384 2425 690 
Q 2706 997 2706 1503 
Q 2706 1984 2436 2262 
Q 2166 2541 1728 2541 
Q 1456 2541 1237 2417 
Q 1019 2294 894 2097 
L 366 2166 
L 809 4519 
L 3088 4519 
L 3088 3981 
L 1259 3981 
L 1013 2750 
Q 1425 3038 1878 3038 
Q 2478 3038 2890 2622 
Q 3303 2206 3303 1553 
Q 3303 931 2941 478 
Q 2500 -78 1738 -78 
Q 1113 -78 717 272 
Q 322 622 266 1200 
z
" transform="scale(0.015625)"/>
       </defs>
       <use xlink:href="#ArialMT-35"/>
       <use xlink:href="#ArialMT-30" transform="translate(55.615234 0)"/>
       <use xlink:href="#ArialMT-30" transform="translate(111.230469 0)"/>
      </g>
     </g>
    </g>
    <g id="text_7">
     <!-- Time (hr) -->
     <g style="fill: #262626" transform="translate(226.838906 323.393203) scale(0.18 -0.18)">
      <defs>
       <path id="ArialMT-54" d="M 1659 0 
L 1659 4041 
L 150 4041 
L 150 4581 
L 3781 4581 
L 3781 4041 
L 2266 4041 
L 2266 0 
L 1659 0 
z
" transform="scale(0.015625)"/>
       <path id="ArialMT-69" d="M 425 3934 
L 425 4581 
L 988 4581 
L 988 3934 
L 425 3934 
z
M 425 0 
L 425 3319 
L 988 3319 
L 988 0 
L 425 0 
z
" transform="scale(0.015625)"/>
       <path id="ArialMT-6d" d="M 422 0 
L 422 3319 
L 925 3319 
L 925 2853 
Q 1081 3097 1340 3245 
Q 1600 3394 1931 3394 
Q 2300 3394 2536 3241 
Q 2772 3088 2869 2813 
Q 3263 3394 3894 3394 
Q 4388 3394 4653 3120 
Q 4919 2847 4919 2278 
L 4919 0 
L 4359 0 
L 4359 2091 
Q 4359 2428 4304 2576 
Q 4250 2725 4106 2815 
Q 3963 2906 3769 2906 
Q 3419 2906 3187 2673 
Q 2956 2441 2956 1928 
L 2956 0 
L 2394 0 
L 2394 2156 
Q 2394 2531 2256 2718 
Q 2119 2906 1806 2906 
Q 1569 2906 1367 2781 
Q 1166 2656 1075 2415 
Q 984 2175 984 1722 
L 984 0 
L 422 0 
z
" transform="scale(0.015625)"/>
       <path id="ArialMT-65" d="M 2694 1069 
L 3275 997 
Q 3138 488 2766 206 
Q 2394 -75 1816 -75 
Q 1088 -75 661 373 
Q 234 822 234 1631 
Q 234 2469 665 2931 
Q 1097 3394 1784 3394 
Q 2450 3394 2872 2941 
Q 3294 2488 3294 1666 
Q 3294 1616 3291 1516 
L 816 1516 
Q 847 969 1125 678 
Q 1403 388 1819 388 
Q 2128 388 2347 550 
Q 2566 713 2694 1069 
z
M 847 1978 
L 2700 1978 
Q 2663 2397 2488 2606 
Q 2219 2931 1791 2931 
Q 1403 2931 1139 2672 
Q 875 2413 847 1978 
z
" transform="scale(0.015625)"/>
       <path id="ArialMT-20" transform="scale(0.015625)"/>
       <path id="ArialMT-28" d="M 1497 -1347 
Q 1031 -759 709 28 
Q 388 816 388 1659 
Q 388 2403 628 3084 
Q 909 3875 1497 4659 
L 1900 4659 
Q 1522 4009 1400 3731 
Q 1209 3300 1100 2831 
Q 966 2247 966 1656 
Q 966 153 1900 -1347 
L 1497 -1347 
z
" transform="scale(0.015625)"/>
       <path id="ArialMT-68" d="M 422 0 
L 422 4581 
L 984 4581 
L 984 2938 
Q 1378 3394 1978 3394 
Q 2347 3394 2619 3248 
Q 2891 3103 3008 2847 
Q 3125 2591 3125 2103 
L 3125 0 
L 2563 0 
L 2563 2103 
Q 2563 2525 2380 2717 
Q 2197 2909 1863 2909 
Q 1613 2909 1392 2779 
Q 1172 2650 1078 2428 
Q 984 2206 984 1816 
L 984 0 
L 422 0 
z
" transform="scale(0.015625)"/>
       <path id="ArialMT-72" d="M 416 0 
L 416 3319 
L 922 3319 
L 922 2816 
Q 1116 3169 1280 3281 
Q 1444 3394 1641 3394 
Q 1925 3394 2219 3213 
L 2025 2691 
Q 1819 2813 1613 2813 
Q 1428 2813 1281 2702 
Q 1134 2591 1072 2394 
Q 978 2094 978 1738 
L 978 0 
L 416 0 
z
" transform="scale(0.015625)"/>
       <path id="ArialMT-29" d="M 791 -1347 
L 388 -1347 
Q 1322 153 1322 1656 
Q 1322 2244 1188 2822 
Q 1081 3291 891 3722 
Q 769 4003 388 4659 
L 791 4659 
Q 1378 3875 1659 3084 
Q 1900 2403 1900 1659 
Q 1900 816 1576 28 
Q 1253 -759 791 -1347 
z
" transform="scale(0.015625)"/>
      </defs>
      <use xlink:href="#ArialMT-54"/>
      <use xlink:href="#ArialMT-69" transform="translate(57.333984 0)"/>
      <use xlink:href="#ArialMT-6d" transform="translate(79.550781 0)"/>
      <use xlink:href="#ArialMT-65" transform="translate(162.851562 0)"/>
      <use xlink:href="#ArialMT-20" transform="translate(218.466797 0)"/>
      <use xlink:href="#ArialMT-28" transform="translate(246.25 0)"/>
      <use xlink:href="#ArialMT-68" transform="translate(279.550781 0)"/>
      <use xlink:href="#ArialMT-72" transform="translate(335.166016 0)"/>
      <use xlink:href="#ArialMT-29" transform="translate(368.466797 0)"/>
     </g>
    </g>
   </g>
   <g id="matplotlib.axis_2">
    <g id="ytick_1">
     <g id="line2d_7">
      <defs>
       <path id="me285384806" d="M 0 0 
L -9 0 
" style="stroke: #262626; stroke-width: 1.875"/>
      </defs>
      <g>
       <use xlink:href="#me285384806" x="84.63" y="266.915455" style="fill: #262626; stroke: #262626; stroke-width: 1.875"/>
      </g>
     </g>
     <g id="text_8">
      <!-- 0.00 -->
      <g style="fill: #262626" transform="translate(40.019453 272.82065) scale(0.165 -0.165)">
       <defs>
        <path id="ArialMT-2e" d="M 581 0 
L 581 641 
L 1222 641 
L 1222 0 
L 581 0 
z
" transform="scale(0.015625)"/>
       </defs>
       <use xlink:href="#ArialMT-30"/>
       <use xlink:href="#ArialMT-2e" transform="translate(55.615234 0)"/>
       <use xlink:href="#ArialMT-30" transform="translate(83.398438 0)"/>
       <use xlink:href="#ArialMT-30" transform="translate(139.013672 0)"/>
      </g>
     </g>
    </g>
    <g id="ytick_2">
     <g id="line2d_8">
      <g>
       <use xlink:href="#me285384806" x="84.63" y="227.19527" style="fill: #262626; stroke: #262626; stroke-width: 1.875"/>
      </g>
     </g>
     <g id="text_9">
      <!-- 0.25 -->
      <g style="fill: #262626" transform="translate(40.019453 233.100465) scale(0.165 -0.165)">
       <use xlink:href="#ArialMT-30"/>
       <use xlink:href="#ArialMT-2e" transform="translate(55.615234 0)"/>
       <use xlink:href="#ArialMT-32" transform="translate(83.398438 0)"/>
       <use xlink:href="#ArialMT-35" transform="translate(139.013672 0)"/>
      </g>
     </g>
    </g>
    <g id="ytick_3">
     <g id="line2d_9">
      <g>
       <use xlink:href="#me285384806" x="84.63" y="187.475085" style="fill: #262626; stroke: #262626; stroke-width: 1.875"/>
      </g>
     </g>
     <g id="text_10">
      <!-- 0.50 -->
      <g style="fill: #262626" transform="translate(40.019453 193.38028) scale(0.165 -0.165)">
       <use xlink:href="#ArialMT-30"/>
       <use xlink:href="#ArialMT-2e" transform="translate(55.615234 0)"/>
       <use xlink:href="#ArialMT-35" transform="translate(83.398438 0)"/>
       <use xlink:href="#ArialMT-30" transform="translate(139.013672 0)"/>
      </g>
     </g>
    </g>
    <g id="ytick_4">
     <g id="line2d_10">
      <g>
       <use xlink:href="#me285384806" x="84.63" y="147.7549" style="fill: #262626; stroke: #262626; stroke-width: 1.875"/>
      </g>
     </g>
     <g id="text_11">
      <!-- 0.75 -->
      <g style="fill: #262626" transform="translate(40.019453 153.660095) scale(0.165 -0.165)">
       <defs>
        <path id="ArialMT-37" d="M 303 3981 
L 303 4522 
L 3269 4522 
L 3269 4084 
Q 2831 3619 2401 2847 
Q 1972 2075 1738 1259 
Q 1569 684 1522 0 
L 944 0 
Q 953 541 1156 1306 
Q 1359 2072 1739 2783 
Q 2119 3494 2547 3981 
L 303 3981 
z
" transform="scale(0.015625)"/>
       </defs>
       <use xlink:href="#ArialMT-30"/>
       <use xlink:href="#ArialMT-2e" transform="translate(55.615234 0)"/>
       <use xlink:href="#ArialMT-37" transform="translate(83.398438 0)"/>
       <use xlink:href="#ArialMT-35" transform="translate(139.013672 0)"/>
      </g>
     </g>
    </g>
    <g id="ytick_5">
     <g id="line2d_11">
      <g>
       <use xlink:href="#me285384806" x="84.63" y="108.034715" style="fill: #262626; stroke: #262626; stroke-width: 1.875"/>
      </g>
     </g>
     <g id="text_12">
      <!-- 1.00 -->
      <g style="fill: #262626" transform="translate(40.019453 113.93991) scale(0.165 -0.165)">
       <use xlink:href="#ArialMT-31"/>
       <use xlink:href="#ArialMT-2e" transform="translate(55.615234 0)"/>
       <use xlink:href="#ArialMT-30" transform="translate(83.398438 0)"/>
       <use xlink:href="#ArialMT-30" transform="translate(139.013672 0)"/>
      </g>
     </g>
    </g>
    <g id="ytick_6">
     <g id="line2d_12">
      <g>
       <use xlink:href="#me285384806" x="84.63" y="68.31453" style="fill: #262626; stroke: #262626; stroke-width: 1.875"/>
      </g>
     </g>
     <g id="text_13">
      <!-- 1.25 -->
      <g style="fill: #262626" transform="translate(40.019453 74.219725) scale(0.165 -0.165)">
       <use xlink:href="#ArialMT-31"/>
       <use xlink:href="#ArialMT-2e" transform="translate(55.615234 0)"/>
       <use xlink:href="#ArialMT-32" transform="translate(83.398438 0)"/>
       <use xlink:href="#ArialMT-35" transform="translate(139.013672 0)"/>
      </g>
     </g>
    </g>
    <g id="ytick_7">
     <g id="line2d_13">
      <g>
       <use xlink:href="#me285384806" x="84.63" y="28.594345" style="fill: #262626; stroke: #262626; stroke-width: 1.875"/>
      </g>
     </g>
     <g id="text_14">
      <!-- 1.50 -->
      <g style="fill: #262626" transform="translate(40.019453 34.49954) scale(0.165 -0.165)">
       <use xlink:href="#ArialMT-31"/>
       <use xlink:href="#ArialMT-2e" transform="translate(55.615234 0)"/>
       <use xlink:href="#ArialMT-35" transform="translate(83.398438 0)"/>
       <use xlink:href="#ArialMT-30" transform="translate(139.013672 0)"/>
      </g>
     </g>
    </g>
    <g id="text_15">
     <!-- Plasma RMA (nM) -->
     <g style="fill: #262626" transform="translate(32.231016 222.079687) rotate(-90) scale(0.18 -0.18)">
      <defs>
       <path id="ArialMT-50" d="M 494 0 
L 494 4581 
L 2222 4581 
Q 2678 4581 2919 4538 
Q 3256 4481 3484 4323 
Q 3713 4166 3852 3881 
Q 3991 3597 3991 3256 
Q 3991 2672 3619 2267 
Q 3247 1863 2275 1863 
L 1100 1863 
L 1100 0 
L 494 0 
z
M 1100 2403 
L 2284 2403 
Q 2872 2403 3119 2622 
Q 3366 2841 3366 3238 
Q 3366 3525 3220 3729 
Q 3075 3934 2838 4000 
Q 2684 4041 2272 4041 
L 1100 4041 
L 1100 2403 
z
" transform="scale(0.015625)"/>
       <path id="ArialMT-6c" d="M 409 0 
L 409 4581 
L 972 4581 
L 972 0 
L 409 0 
z
" transform="scale(0.015625)"/>
       <path id="ArialMT-61" d="M 2588 409 
Q 2275 144 1986 34 
Q 1697 -75 1366 -75 
Q 819 -75 525 192 
Q 231 459 231 875 
Q 231 1119 342 1320 
Q 453 1522 633 1644 
Q 813 1766 1038 1828 
Q 1203 1872 1538 1913 
Q 2219 1994 2541 2106 
Q 2544 2222 2544 2253 
Q 2544 2597 2384 2738 
Q 2169 2928 1744 2928 
Q 1347 2928 1158 2789 
Q 969 2650 878 2297 
L 328 2372 
Q 403 2725 575 2942 
Q 747 3159 1072 3276 
Q 1397 3394 1825 3394 
Q 2250 3394 2515 3294 
Q 2781 3194 2906 3042 
Q 3031 2891 3081 2659 
Q 3109 2516 3109 2141 
L 3109 1391 
Q 3109 606 3145 398 
Q 3181 191 3288 0 
L 2700 0 
Q 2613 175 2588 409 
z
M 2541 1666 
Q 2234 1541 1622 1453 
Q 1275 1403 1131 1340 
Q 988 1278 909 1158 
Q 831 1038 831 891 
Q 831 666 1001 516 
Q 1172 366 1500 366 
Q 1825 366 2078 508 
Q 2331 650 2450 897 
Q 2541 1088 2541 1459 
L 2541 1666 
z
" transform="scale(0.015625)"/>
       <path id="ArialMT-73" d="M 197 991 
L 753 1078 
Q 800 744 1014 566 
Q 1228 388 1613 388 
Q 2000 388 2187 545 
Q 2375 703 2375 916 
Q 2375 1106 2209 1216 
Q 2094 1291 1634 1406 
Q 1016 1563 777 1677 
Q 538 1791 414 1992 
Q 291 2194 291 2438 
Q 291 2659 392 2848 
Q 494 3038 669 3163 
Q 800 3259 1026 3326 
Q 1253 3394 1513 3394 
Q 1903 3394 2198 3281 
Q 2494 3169 2634 2976 
Q 2775 2784 2828 2463 
L 2278 2388 
Q 2241 2644 2061 2787 
Q 1881 2931 1553 2931 
Q 1166 2931 1000 2803 
Q 834 2675 834 2503 
Q 834 2394 903 2306 
Q 972 2216 1119 2156 
Q 1203 2125 1616 2013 
Q 2213 1853 2448 1751 
Q 2684 1650 2818 1456 
Q 2953 1263 2953 975 
Q 2953 694 2789 445 
Q 2625 197 2315 61 
Q 2006 -75 1616 -75 
Q 969 -75 630 194 
Q 291 463 197 991 
z
" transform="scale(0.015625)"/>
       <path id="ArialMT-52" d="M 503 0 
L 503 4581 
L 2534 4581 
Q 3147 4581 3465 4457 
Q 3784 4334 3975 4021 
Q 4166 3709 4166 3331 
Q 4166 2844 3850 2509 
Q 3534 2175 2875 2084 
Q 3116 1969 3241 1856 
Q 3506 1613 3744 1247 
L 4541 0 
L 3778 0 
L 3172 953 
Q 2906 1366 2734 1584 
Q 2563 1803 2427 1890 
Q 2291 1978 2150 2013 
Q 2047 2034 1813 2034 
L 1109 2034 
L 1109 0 
L 503 0 
z
M 1109 2559 
L 2413 2559 
Q 2828 2559 3062 2645 
Q 3297 2731 3419 2920 
Q 3541 3109 3541 3331 
Q 3541 3656 3305 3865 
Q 3069 4075 2559 4075 
L 1109 4075 
L 1109 2559 
z
" transform="scale(0.015625)"/>
       <path id="ArialMT-4d" d="M 475 0 
L 475 4581 
L 1388 4581 
L 2472 1338 
Q 2622 884 2691 659 
Q 2769 909 2934 1394 
L 4031 4581 
L 4847 4581 
L 4847 0 
L 4263 0 
L 4263 3834 
L 2931 0 
L 2384 0 
L 1059 3900 
L 1059 0 
L 475 0 
z
" transform="scale(0.015625)"/>
       <path id="ArialMT-41" d="M -9 0 
L 1750 4581 
L 2403 4581 
L 4278 0 
L 3588 0 
L 3053 1388 
L 1138 1388 
L 634 0 
L -9 0 
z
M 1313 1881 
L 2866 1881 
L 2388 3150 
Q 2169 3728 2063 4100 
Q 1975 3659 1816 3225 
L 1313 1881 
z
" transform="scale(0.015625)"/>
       <path id="ArialMT-6e" d="M 422 0 
L 422 3319 
L 928 3319 
L 928 2847 
Q 1294 3394 1984 3394 
Q 2284 3394 2536 3286 
Q 2788 3178 2913 3003 
Q 3038 2828 3088 2588 
Q 3119 2431 3119 2041 
L 3119 0 
L 2556 0 
L 2556 2019 
Q 2556 2363 2490 2533 
Q 2425 2703 2258 2804 
Q 2091 2906 1866 2906 
Q 1506 2906 1245 2678 
Q 984 2450 984 1813 
L 984 0 
L 422 0 
z
" transform="scale(0.015625)"/>
      </defs>
      <use xlink:href="#ArialMT-50"/>
      <use xlink:href="#ArialMT-6c" transform="translate(66.699219 0)"/>
      <use xlink:href="#ArialMT-61" transform="translate(88.916016 0)"/>
      <use xlink:href="#ArialMT-73" transform="translate(144.53125 0)"/>
      <use xlink:href="#ArialMT-6d" transform="translate(194.53125 0)"/>
      <use xlink:href="#ArialMT-61" transform="translate(277.832031 0)"/>
      <use xlink:href="#ArialMT-20" transform="translate(333.447266 0)"/>
      <use xlink:href="#ArialMT-52" transform="translate(361.230469 0)"/>
      <use xlink:href="#ArialMT-4d" transform="translate(433.447266 0)"/>
      <use xlink:href="#ArialMT-41" transform="translate(516.748047 0)"/>
      <use xlink:href="#ArialMT-20" transform="translate(577.947266 0)"/>
      <use xlink:href="#ArialMT-28" transform="translate(605.730469 0)"/>
      <use xlink:href="#ArialMT-6e" transform="translate(639.03125 0)"/>
      <use xlink:href="#ArialMT-4d" transform="translate(694.646484 0)"/>
      <use xlink:href="#ArialMT-29" transform="translate(777.947266 0)"/>
     </g>
    </g>
   </g>
   <g id="line2d_14">
    <path d="M 100.845 266.915455 
L 101.167046 266.784256 
L 101.489091 266.455558 
L 101.811137 265.959645 
L 102.133183 265.828649 
L 102.455228 265.10962 
L 103.09932 262.37112 
L 103.421365 264.844122 
L 103.743411 262.171429 
L 104.709548 259.388133 
L 105.031594 261.417446 
L 105.35364 261.567342 
L 105.675685 259.183394 
L 105.997731 260.540096 
L 106.319777 260.068901 
L 106.641822 255.646338 
L 106.963868 255.100978 
L 107.285914 259.454037 
L 107.607959 253.825934 
L 107.930005 254.302448 
L 108.574096 252.798965 
L 108.896142 251.456801 
L 109.218188 241.472634 
L 109.540233 250.276 
L 109.862279 245.307777 
L 110.184325 248.852152 
L 110.50637 245.068837 
L 110.828416 246.082523 
L 111.150462 238.8235 
L 111.472507 245.551128 
L 111.794553 248.320513 
L 112.116599 227.135703 
L 112.76069 238.905344 
L 113.082736 232.561488 
L 113.404782 240.135819 
L 113.726827 235.323219 
L 114.048873 226.496725 
L 114.370919 237.764443 
L 114.692964 224.072612 
L 115.01501 239.612796 
L 115.337056 228.702047 
L 115.659101 237.171869 
L 115.981147 231.220628 
L 116.303193 221.047216 
L 116.625238 231.16992 
L 116.947284 210.592873 
L 117.26933 228.015057 
L 117.591375 238.471226 
L 117.913421 216.997679 
L 118.235467 234.194699 
L 118.557512 225.044528 
L 118.879558 240.955791 
L 119.201604 218.686327 
L 119.523649 207.636367 
L 119.845695 222.671205 
L 120.167741 216.764293 
L 120.489786 233.383861 
L 120.811832 228.037519 
L 121.133878 212.206195 
L 121.455924 201.981536 
L 121.777969 218.501898 
L 122.100015 219.352979 
L 122.422061 206.675162 
L 122.744106 183.662655 
L 123.066152 211.603258 
L 123.388198 209.341919 
L 123.710243 203.36916 
L 124.032289 200.021804 
L 124.354335 205.768736 
L 124.67638 198.373072 
L 124.998426 223.827822 
L 125.642517 205.114439 
L 125.964563 202.135725 
L 126.286609 208.792651 
L 126.608654 207.138579 
L 126.9307 211.245856 
L 127.252746 217.833305 
L 127.574791 194.629743 
L 127.896837 189.131808 
L 128.218883 212.879905 
L 128.540929 202.664041 
L 128.862974 186.812323 
L 129.18502 185.737727 
L 129.507066 158.004209 
L 129.829111 216.890557 
L 130.151157 178.610073 
L 131.117294 202.337721 
L 131.43934 200.909776 
L 131.761385 192.434081 
L 132.083431 223.741485 
L 132.405477 191.225679 
L 132.727522 183.774779 
L 133.049568 165.482992 
L 133.371614 176.711679 
L 133.693659 175.052011 
L 134.015705 178.541564 
L 134.337751 208.503677 
L 134.659796 200.612733 
L 134.981842 184.543822 
L 135.303888 160.892606 
L 135.625933 177.938488 
L 135.947979 169.226247 
L 136.270025 236.396889 
L 136.592071 181.61259 
L 136.914116 208.88049 
L 137.236162 188.520269 
L 137.558208 184.440957 
L 137.880253 223.280804 
L 138.202299 198.385091 
L 138.524345 161.745413 
L 138.84639 168.864412 
L 139.168436 163.716252 
L 139.490482 186.933392 
L 139.812527 187.614066 
L 140.134573 182.813914 
L 140.456619 197.885772 
L 141.10071 171.414048 
L 141.422756 199.396287 
L 141.744801 194.848668 
L 142.066847 214.6872 
L 142.388893 184.498426 
L 142.710938 195.637428 
L 143.032984 153.405955 
L 143.35503 149.967137 
L 143.677075 203.771886 
L 143.999121 187.635729 
L 144.321167 179.774619 
L 144.965258 207.063333 
L 145.287304 205.666094 
L 145.60935 205.53767 
L 145.931395 194.108771 
L 146.253441 203.399733 
L 146.575487 179.112056 
L 146.897532 180.647386 
L 147.219578 184.734411 
L 147.541624 175.541924 
L 147.863669 196.566255 
L 148.507761 207.280858 
L 148.829806 225.376243 
L 149.151852 157.027897 
L 149.795943 197.288314 
L 150.117989 175.795237 
L 150.76208 208.543374 
L 151.084126 197.310039 
L 151.406172 222.691385 
L 151.728217 183.530205 
L 152.050263 178.9628 
L 152.372309 195.646582 
L 152.694355 205.034647 
L 153.0164 184.032943 
L 153.338446 202.032484 
L 153.660492 210.092676 
L 153.982537 183.934141 
L 154.304583 205.880285 
L 154.626629 196.039815 
L 154.948674 200.63857 
L 155.592766 215.808281 
L 155.914811 195.404988 
L 156.236857 197.163177 
L 156.880948 212.996608 
L 157.202994 203.651807 
L 157.52504 190.827143 
L 157.847085 192.946532 
L 158.169131 182.490452 
L 158.491177 184.430555 
L 158.813222 211.20133 
L 159.135268 206.34403 
L 159.457314 207.509781 
L 159.779359 189.562588 
L 160.101405 215.193274 
L 160.423451 199.443928 
L 160.745497 192.173464 
L 161.067542 209.590479 
L 161.389588 198.47558 
L 161.711634 204.621956 
L 162.033679 180.363221 
L 162.677771 219.465189 
L 163.321862 199.780355 
L 163.643908 198.397373 
L 163.965953 177.50738 
L 164.287999 206.716836 
L 164.610045 194.747758 
L 164.93209 191.893889 
L 165.254136 199.935356 
L 165.576182 203.816416 
L 165.898227 209.065709 
L 166.542319 175.80658 
L 166.864364 203.806161 
L 167.18641 210.932527 
L 167.508456 209.275783 
L 167.830501 185.558337 
L 168.152547 190.303762 
L 168.796639 176.767809 
L 169.118684 160.384439 
L 169.44073 169.034731 
L 169.762776 170.49388 
L 170.084821 217.395063 
L 170.406867 196.327282 
L 170.728913 200.633085 
L 171.050958 166.905038 
L 171.373004 202.038176 
L 171.69505 181.944614 
L 172.017095 217.226613 
L 172.983232 151.999507 
L 173.305278 162.845874 
L 173.627324 161.088118 
L 173.949369 178.456242 
L 174.271415 162.886934 
L 174.593461 161.527372 
L 174.915506 173.321514 
L 175.237552 193.967672 
L 175.559598 167.670842 
L 175.881643 178.731957 
L 176.203689 217.991662 
L 176.525735 169.212818 
L 176.847781 170.949385 
L 177.169826 191.984687 
L 177.491872 142.934163 
L 177.813918 181.359811 
L 178.135963 158.287411 
L 178.458009 177.665346 
L 178.780055 174.307705 
L 179.1021 169.234637 
L 179.424146 166.211576 
L 179.746192 153.302289 
L 180.068237 205.350317 
L 180.390283 202.42828 
L 180.712329 188.236674 
L 181.034374 212.45941 
L 181.35642 152.385441 
L 181.678466 139.130984 
L 182.000511 166.667592 
L 182.322557 155.564421 
L 182.644603 162.506032 
L 182.966648 135.685181 
L 183.288694 147.015433 
L 183.61074 173.072699 
L 183.932786 168.018399 
L 184.254831 173.919125 
L 184.576877 216.674299 
L 184.898923 99.195885 
L 185.220968 182.798908 
L 185.543014 190.97779 
L 185.86506 195.932275 
L 186.187105 134.600752 
L 186.509151 142.754475 
L 186.831197 177.944189 
L 187.153242 183.146416 
L 187.475288 117.560172 
L 187.797334 130.315438 
L 188.119379 161.149559 
L 188.441425 137.561887 
L 188.763471 139.483391 
L 189.085516 181.24213 
L 189.407562 171.681922 
L 189.729608 121.895815 
L 190.051653 196.006344 
L 190.373699 150.807621 
L 190.695745 151.063391 
L 191.01779 130.647932 
L 191.339836 170.405009 
L 191.661882 121.823392 
L 191.983928 108.784533 
L 192.305973 155.606176 
L 192.950065 129.15788 
L 193.27211 165.940935 
L 193.594156 180.647187 
L 193.916202 132.897835 
L 194.238247 156.961963 
L 194.560293 120.417191 
L 194.882339 191.277859 
L 195.204384 147.213147 
L 195.52643 119.30911 
L 195.848476 132.162784 
L 196.170521 152.087648 
L 196.492567 99.15287 
L 196.814613 160.506353 
L 197.136658 123.436149 
L 197.458704 139.25168 
L 197.78075 147.84179 
L 198.102795 120.549173 
L 198.424841 128.714028 
L 198.746887 197.433322 
L 199.390978 119.028805 
L 199.713024 169.812771 
L 200.03507 173.202265 
L 200.357115 160.253154 
L 200.679161 91.185602 
L 201.001207 151.435284 
L 201.323252 123.466052 
L 201.645298 185.625489 
L 201.967344 175.76539 
L 202.289389 154.621285 
L 202.611435 164.401792 
L 202.933481 185.299816 
L 203.255526 123.808382 
L 203.577572 120.03219 
L 203.899618 179.80762 
L 204.221663 137.239237 
L 204.543709 116.195881 
L 204.865755 128.526364 
L 205.1878 133.900058 
L 205.509846 158.668645 
L 205.831892 143.799818 
L 206.153937 183.23787 
L 206.475983 131.890389 
L 206.798029 179.043969 
L 207.120074 130.383888 
L 207.44212 111.490389 
L 207.764166 100.853138 
L 208.408257 143.061907 
L 208.730303 141.77549 
L 209.052349 165.464845 
L 209.374394 147.481948 
L 209.69644 136.112992 
L 210.018486 190.595413 
L 210.340531 164.564353 
L 210.662577 148.274352 
L 210.984623 153.23441 
L 211.306668 99.451505 
L 211.95076 144.059678 
L 212.272805 141.729878 
L 212.594851 166.326945 
L 212.916897 134.788208 
L 213.238942 139.665978 
L 213.560988 170.032512 
L 213.883034 106.860396 
L 214.205079 185.339532 
L 214.527125 171.722951 
L 214.849171 131.306581 
L 215.171216 194.694344 
L 215.493262 179.144297 
L 215.815308 181.70936 
L 216.137354 141.444314 
L 216.459399 176.477628 
L 216.781445 157.432185 
L 217.103491 168.389021 
L 217.425536 169.352327 
L 218.069628 141.231366 
L 218.391673 159.935565 
L 218.713719 149.895333 
L 219.035765 166.404297 
L 219.35781 163.745218 
L 219.679856 181.523373 
L 220.001902 154.893454 
L 220.323947 146.942623 
L 220.645993 153.408881 
L 220.968039 193.679673 
L 221.61213 148.061458 
L 221.934176 177.337113 
L 222.256221 167.538837 
L 222.578267 161.465125 
L 222.900313 158.701281 
L 223.222358 136.900476 
L 223.544404 143.633745 
L 223.86645 174.851892 
L 224.188496 127.815536 
L 224.510541 140.618146 
L 224.832587 160.558176 
L 225.154633 166.105362 
L 225.476678 194.263237 
L 225.798724 204.270821 
L 226.12077 146.761847 
L 226.442815 169.009071 
L 226.764861 130.784085 
L 227.086907 145.695887 
L 227.408952 168.968835 
L 227.730998 150.462191 
L 228.053044 144.667053 
L 228.375089 196.905349 
L 228.697135 170.537539 
L 229.019181 189.849947 
L 229.663272 105.046214 
L 229.985318 158.375949 
L 230.307363 175.474443 
L 230.629409 175.792258 
L 230.951455 160.785063 
L 231.2735 170.989752 
L 231.595546 161.085862 
L 231.917592 141.66267 
L 232.239638 173.172868 
L 232.561683 116.45215 
L 232.883729 108.212672 
L 233.205775 169.775631 
L 233.52782 131.363026 
L 233.849866 171.257531 
L 234.171912 106.415445 
L 234.493957 194.330053 
L 234.816003 175.777657 
L 235.138049 179.296686 
L 235.460094 113.867662 
L 235.78214 181.703657 
L 236.104186 163.27804 
L 237.070323 130.68663 
L 237.392368 130.421509 
L 237.714414 180.133467 
L 238.358505 135.011923 
L 238.680551 193.890757 
L 239.324643 117.900171 
L 239.646688 130.518875 
L 239.968734 130.603915 
L 240.29078 152.800855 
L 240.612825 153.789876 
L 240.934871 151.033695 
L 241.256917 165.543697 
L 241.578962 135.783856 
L 241.901008 217.471987 
L 242.223054 170.471069 
L 242.545099 158.171111 
L 242.867145 94.404725 
L 243.189191 134.922661 
L 243.511236 135.235224 
L 243.833282 168.090972 
L 244.155328 150.577493 
L 244.477373 147.139271 
L 244.799419 127.88506 
L 245.121465 138.929571 
L 245.44351 76.71002 
L 245.765556 68.711267 
L 246.087602 141.274071 
L 246.409647 74.196891 
L 247.053739 181.748733 
L 247.375785 139.484544 
L 247.69783 121.044407 
L 248.019876 182.244411 
L 248.341922 120.382233 
L 248.663967 122.617622 
L 248.986013 158.315139 
L 249.308059 179.15274 
L 249.630104 131.264798 
L 249.95215 113.881765 
L 250.274196 143.418552 
L 250.596241 137.133339 
L 250.918287 196.656457 
L 251.240333 120.004341 
L 251.562378 176.717075 
L 251.884424 100.904836 
L 252.20647 120.695995 
L 252.528515 112.33883 
L 252.850561 111.869738 
L 253.172607 31.224545 
L 253.494652 148.760721 
L 253.816698 126.943812 
L 254.138744 137.399311 
L 254.460789 126.360233 
L 254.782835 148.163829 
L 255.104881 130.179364 
L 255.426927 148.710779 
L 255.748972 50.613789 
L 256.071018 59.680605 
L 256.393064 135.662722 
L 256.715109 86.748686 
L 257.037155 134.121616 
L 257.359201 84.299477 
L 257.681246 58.649022 
L 258.003292 82.669031 
L 258.325338 167.10473 
L 258.647383 100.272409 
L 258.969429 126.512057 
L 259.291475 129.692933 
L 259.61352 146.957932 
L 259.935566 111.957923 
L 260.257612 117.131582 
L 260.579657 155.433934 
L 260.901703 73.405129 
L 261.223749 137.107359 
L 261.545794 92.494621 
L 261.86784 88.927334 
L 262.511931 138.729959 
L 262.833977 100.431386 
L 263.156023 139.31069 
L 263.478069 149.113692 
L 263.800114 76.990756 
L 264.12216 56.771834 
L 264.444206 110.882666 
L 264.766251 125.604538 
L 265.088297 95.241817 
L 265.410343 134.044846 
L 265.732388 101.838975 
L 266.054434 148.183046 
L 266.37648 151.369468 
L 266.698525 107.778598 
L 267.020571 103.673957 
L 267.342617 103.052269 
L 267.664662 168.380041 
L 267.986708 88.262359 
L 268.308754 94.764464 
L 268.630799 140.435517 
L 268.952845 93.948438 
L 269.274891 97.534675 
L 269.596936 89.58034 
L 270.241028 192.49467 
L 270.563073 74.306621 
L 271.207165 160.035756 
L 271.529211 107.22508 
L 271.851256 110.954201 
L 272.173302 112.248125 
L 272.495348 108.382559 
L 272.817393 143.194385 
L 273.139439 104.016819 
L 273.461485 139.601054 
L 273.78353 117.608589 
L 274.105576 130.683063 
L 274.427622 139.04038 
L 274.749667 102.958127 
L 275.071713 87.117936 
L 275.393759 139.659755 
L 275.715804 118.103619 
L 276.03785 145.094768 
L 276.359896 117.25915 
L 276.681941 108.802832 
L 277.003987 109.612747 
L 277.648078 165.041998 
L 277.970124 117.020821 
L 278.29217 133.963857 
L 278.614215 126.318906 
L 278.936261 149.696436 
L 279.258307 64.34749 
L 279.580353 81.748513 
L 279.902398 62.507175 
L 280.224444 122.832959 
L 280.54649 137.374381 
L 280.868535 112.413479 
L 281.190581 107.551927 
L 281.512627 199.966206 
L 281.834672 121.246785 
L 282.156718 168.583195 
L 282.478764 167.569506 
L 282.800809 172.397879 
L 283.122855 137.06059 
L 283.444901 152.823047 
L 283.766946 140.342779 
L 284.088992 108.770485 
L 284.411038 115.899017 
L 284.733083 167.58329 
L 285.055129 134.883085 
L 285.377175 151.860709 
L 285.69922 130.510355 
L 286.343312 156.614914 
L 286.665357 133.671316 
L 286.987403 143.893 
L 287.309449 135.310801 
L 287.95354 167.000421 
L 288.275586 173.761083 
L 288.597632 132.695695 
L 288.919677 131.27726 
L 289.241723 118.276711 
L 289.563769 137.598097 
L 289.885814 105.877986 
L 290.20786 157.292364 
L 290.529906 138.884521 
L 290.851951 151.183882 
L 291.173997 131.439652 
L 291.496043 124.07396 
L 291.818088 158.261421 
L 292.140134 169.265255 
L 292.46218 153.313817 
L 292.784225 150.305964 
L 293.106271 128.674561 
L 293.428317 137.315355 
L 293.750362 134.588785 
L 294.394454 154.091038 
L 294.7165 116.846973 
L 295.038545 184.928293 
L 295.360591 171.684965 
L 295.682637 163.106143 
L 296.004682 135.234916 
L 296.326728 131.567074 
L 296.648774 158.421841 
L 296.970819 173.806783 
L 297.292865 158.929742 
L 297.614911 117.681245 
L 297.936956 128.684921 
L 298.259002 154.26524 
L 298.581048 166.77369 
L 298.903093 131.228553 
L 299.225139 155.567561 
L 299.547185 152.652314 
L 299.86923 134.716309 
L 300.191276 161.816255 
L 300.513322 126.374058 
L 300.835367 141.782784 
L 301.157413 164.555921 
L 301.479459 156.896212 
L 301.801504 85.893927 
L 302.12355 103.468875 
L 302.445596 137.611489 
L 302.767642 195.690515 
L 303.089687 133.091015 
L 303.411733 127.549007 
L 303.733779 126.197337 
L 304.055824 120.174946 
L 304.37787 217.148426 
L 304.699916 123.725307 
L 305.021961 120.225505 
L 305.344007 147.164851 
L 305.666053 128.456664 
L 305.988098 152.547042 
L 306.310144 128.886124 
L 306.63219 179.786999 
L 307.276281 66.91985 
L 307.598327 170.764526 
L 307.920372 177.765667 
L 308.242418 109.575184 
L 308.564464 108.259497 
L 308.886509 149.250417 
L 309.208555 98.600008 
L 309.530601 103.230441 
L 309.852646 114.20845 
L 310.174692 89.786888 
L 310.496738 126.825721 
L 310.818784 135.792139 
L 311.140829 112.410723 
L 311.462875 120.503688 
L 311.784921 146.691172 
L 312.106966 63.256793 
L 312.429012 71.163772 
L 312.751058 95.289058 
L 313.073103 152.71716 
L 313.395149 111.492835 
L 313.717195 167.747788 
L 314.03924 172.340135 
L 314.361286 82.208663 
L 314.683332 37.198023 
L 315.005377 112.215654 
L 315.327423 128.966851 
L 315.649469 80.650376 
L 316.29356 141.629674 
L 316.615606 97.428234 
L 317.259697 101.501524 
L 317.581743 76.681079 
L 317.903788 147.689211 
L 318.225834 125.686237 
L 318.54788 66.856585 
L 318.869926 114.313004 
L 319.191971 69.377101 
L 319.514017 92.69289 
L 319.836063 48.648351 
L 320.480154 105.770747 
L 320.8022 94.938448 
L 321.124245 88.169014 
L 321.446291 91.123054 
L 321.768337 96.257285 
L 322.412428 67.426053 
L 322.734474 96.24502 
L 323.056519 89.425129 
L 323.378565 131.42001 
L 323.700611 101.441509 
L 324.022656 140.514519 
L 324.666748 78.83862 
L 324.988793 72.481552 
L 325.310839 45.4409 
L 325.632885 154.249783 
L 326.276976 78.371603 
L 326.599022 86.701457 
L 326.921068 146.222898 
L 327.243113 77.795755 
L 327.565159 117.121751 
L 327.887205 89.576238 
L 328.20925 131.113247 
L 328.531296 90.461155 
L 328.853342 139.222441 
L 329.175387 79.103152 
L 329.497433 92.171711 
L 329.819479 99.90825 
L 330.141524 155.014292 
L 330.46357 73.904698 
L 330.785616 106.056864 
L 331.107661 95.405379 
L 331.429707 107.230578 
L 331.751753 99.040532 
L 332.395844 59.62203 
L 332.71789 63.388623 
L 333.039935 57.717324 
L 333.684027 161.231612 
L 334.006072 148.184783 
L 334.328118 115.655554 
L 334.650164 147.168936 
L 334.97221 134.670846 
L 335.294255 83.141745 
L 335.616301 107.244789 
L 335.938347 58.707813 
L 336.260392 99.339321 
L 336.582438 121.942243 
L 336.904484 110.490001 
L 337.226529 136.512565 
L 337.548575 118.584048 
L 337.870621 114.414655 
L 338.192666 89.686576 
L 338.836758 118.952502 
L 339.158803 122.620346 
L 339.480849 82.882377 
L 339.802895 68.708166 
L 340.12494 97.305833 
L 340.446986 136.683932 
L 340.769032 141.778618 
L 341.091077 106.951778 
L 341.413123 124.441926 
L 341.735169 106.015935 
L 342.057214 95.287288 
L 342.37926 130.825952 
L 342.701306 80.059614 
L 343.023352 132.515464 
L 343.345397 100.549634 
L 343.667443 95.014914 
L 343.989489 125.461601 
L 344.311534 174.858001 
L 344.63358 155.796319 
L 344.955626 100.231142 
L 345.277671 126.892232 
L 345.599717 109.495038 
L 345.921763 135.452991 
L 346.243808 150.909001 
L 346.565854 110.695781 
L 346.8879 109.147717 
L 347.209945 111.097667 
L 347.531991 206.108769 
L 347.854037 141.565809 
L 348.176082 139.287538 
L 348.498128 100.245662 
L 348.820174 136.275311 
L 349.142219 102.533394 
L 349.464265 93.333381 
L 349.786311 125.506375 
L 350.108357 138.930652 
L 350.430402 136.162304 
L 350.752448 159.166475 
L 351.074494 128.524818 
L 351.396539 160.007917 
L 351.718585 138.206663 
L 352.040631 124.888259 
L 352.362676 144.059746 
L 352.684722 143.56527 
L 353.006768 117.264473 
L 353.328813 176.703077 
L 353.650859 96.617257 
L 353.972905 90.094423 
L 354.29495 162.480808 
L 354.616996 101.120077 
L 354.939042 107.342478 
L 355.261087 90.904015 
L 355.583133 131.191895 
L 355.905179 140.70309 
L 356.227224 137.997688 
L 356.54927 142.673448 
L 356.871316 88.201332 
L 357.515407 158.952628 
L 358.159499 135.953974 
L 358.481544 162.827771 
L 358.80359 124.067667 
L 359.125636 104.201109 
L 359.447681 176.705285 
L 359.769727 118.034812 
L 360.091773 156.888166 
L 360.413818 154.703864 
L 360.735864 131.101108 
L 361.05791 161.763929 
L 361.379955 163.273705 
L 361.702001 114.146388 
L 362.024047 105.87242 
L 362.346092 128.732817 
L 362.668138 119.629971 
L 363.312229 152.44581 
L 363.956321 116.011546 
L 364.278366 138.661516 
L 364.600412 131.147401 
L 364.922458 155.850194 
L 365.244503 146.20683 
L 365.566549 160.482091 
L 365.888595 120.303064 
L 366.210641 117.141638 
L 366.532686 144.100752 
L 366.854732 70.323285 
L 367.176778 96.859228 
L 367.498823 145.624603 
L 367.820869 115.724476 
L 368.46496 80.879434 
L 369.109052 100.122029 
L 369.431097 136.398998 
L 369.753143 138.622453 
L 370.075189 81.630924 
L 370.397234 73.476204 
L 370.71928 106.179317 
L 371.041326 165.610981 
L 371.363371 122.537545 
L 371.685417 132.15471 
L 372.007463 106.115142 
L 372.651554 144.853132 
L 372.9736 39.693329 
L 373.295645 174.543331 
L 373.617691 146.267286 
L 373.939737 77.023718 
L 374.583828 119.850368 
L 374.905874 94.200545 
L 375.22792 138.930622 
L 375.549965 87.936741 
L 375.872011 129.298151 
L 376.194057 125.990012 
L 376.516102 82.029804 
L 376.838148 166.043813 
L 377.160194 108.479356 
L 377.482239 81.782747 
L 377.804285 66.783096 
L 378.448376 104.496911 
L 378.770422 62.012423 
L 379.092468 111.830177 
L 379.414513 59.605004 
L 379.736559 103.712598 
L 380.058605 93.557445 
L 380.38065 99.048464 
L 381.024742 37.647528 
L 381.346787 123.048788 
L 381.668833 90.755522 
L 381.990879 172.994468 
L 382.312925 107.317269 
L 382.63497 85.999642 
L 382.957016 93.644565 
L 383.279062 78.986956 
L 383.601107 119.001068 
L 383.923153 121.232541 
L 384.245199 80.550647 
L 384.88929 166.431526 
L 385.211336 79.428466 
L 385.533381 165.313339 
L 385.855427 67.056497 
L 386.177473 99.052174 
L 386.499518 47.630462 
L 386.821564 129.59917 
L 387.14361 88.437529 
L 387.787701 51.73334 
L 388.109747 130.978687 
L 388.431792 114.846337 
L 388.753838 65.050801 
L 389.075884 181.250919 
L 389.397929 94.314492 
L 389.719975 66.795809 
L 390.042021 57.02896 
L 390.364067 53.34761 
L 390.686112 51.451758 
L 391.008158 89.159389 
L 391.330204 109.058446 
L 391.652249 73.325906 
L 391.974295 121.141576 
L 392.296341 126.798136 
L 392.618386 156.399406 
L 393.262478 34.513801 
L 393.584523 135.445256 
L 393.906569 108.277131 
L 394.228615 167.052015 
L 394.55066 74.153441 
L 394.872706 48.63 
L 395.194752 123.711637 
L 395.516797 79.92124 
L 395.838843 101.420435 
L 396.160889 143.026412 
L 396.482934 94.373909 
L 396.80498 132.976662 
L 397.127026 123.909421 
L 397.449071 139.250439 
L 397.771117 95.468563 
L 398.093163 68.208238 
L 398.415209 100.814446 
L 398.737254 122.076699 
L 399.0593 115.867514 
L 399.381346 74.626266 
L 399.703391 50.534957 
L 400.025437 89.647039 
L 400.347483 73.71594 
L 400.991574 91.087027 
L 401.31362 80.950743 
L 401.635665 112.657215 
L 401.957711 132.159145 
L 402.279757 144.606082 
L 402.601802 78.747526 
L 402.923848 93.201055 
L 403.245894 101.481654 
L 403.889985 146.669005 
L 404.212031 95.147818 
L 404.534076 137.203058 
L 404.856122 147.092481 
L 405.178168 153.140218 
L 405.500214 97.868316 
L 405.822259 127.049217 
L 406.144305 134.893282 
L 406.466351 89.189614 
L 406.788396 108.352369 
L 407.110442 110.266275 
L 407.432488 79.655263 
L 407.754533 86.163218 
L 408.076579 110.692709 
L 408.398625 111.633157 
L 408.72067 148.970553 
L 409.042716 111.294596 
L 409.364762 91.150329 
L 409.686807 114.350129 
L 410.008853 178.572395 
L 410.330899 139.081088 
L 410.652944 141.046586 
L 410.97499 42.187379 
L 411.297036 97.336346 
L 411.619081 127.580571 
L 411.941127 96.622864 
L 412.263173 147.782747 
L 412.585218 122.210697 
L 412.907264 109.430257 
L 413.22931 108.373899 
L 413.551356 97.212456 
L 414.517493 191.701518 
L 415.161584 107.218315 
L 415.48363 141.395058 
L 415.805675 149.978455 
L 416.127721 127.221409 
L 416.449767 60.040641 
L 416.771812 133.345802 
L 417.093858 100.768847 
L 417.415904 139.348237 
L 417.737949 112.298884 
L 418.059995 98.548568 
L 418.382041 104.588402 
L 418.704086 66.751534 
L 419.026132 144.963859 
L 419.348178 134.78731 
L 419.670223 141.702138 
L 419.992269 169.102764 
L 420.314315 88.283884 
L 420.63636 130.985959 
L 420.958406 119.540587 
L 421.280452 89.740498 
L 421.602498 136.049553 
L 421.924543 135.043559 
L 422.246589 158.547886 
L 422.568635 131.016088 
L 422.89068 125.999991 
L 423.212726 96.042628 
L 423.534772 169.078241 
L 423.856817 128.648631 
L 424.178863 135.30914 
L 424.500909 45.390792 
L 424.822954 123.311859 
L 425.145 64.63195 
L 425.145 64.63195 
" clip-path="url(#p77f7dfaf89)" style="fill: none; stroke: #d3d3d3; stroke-width: 2.25; stroke-linecap: round"/>
   </g>
   <g id="line2d_15">
    <path d="M 100.845 266.915455 
L 101.167046 266.795721 
L 101.811137 266.085227 
L 102.777274 264.4816 
L 104.387502 261.252436 
L 106.319777 256.854026 
L 108.574096 251.140274 
L 111.150462 243.994009 
L 115.01501 232.517404 
L 120.489786 216.262029 
L 123.066152 209.263965 
L 125.320472 203.75234 
L 127.252746 199.590402 
L 128.862974 196.570356 
L 130.473203 193.988343 
L 132.083431 191.862593 
L 133.371614 190.496091 
L 134.659796 189.425457 
L 135.947979 188.645648 
L 137.236162 188.146982 
L 138.524345 187.915703 
L 139.812527 187.934105 
L 141.10071 188.180896 
L 142.388893 188.631425 
L 143.999121 189.438839 
L 145.931395 190.687072 
L 148.829806 192.897524 
L 152.694355 195.860521 
L 154.626629 197.089089 
L 156.236857 197.879881 
L 157.847085 198.400976 
L 159.135268 198.592055 
L 160.423451 198.560434 
L 161.711634 198.289758 
L 162.999816 197.76771 
L 164.287999 196.98625 
L 165.576182 195.94135 
L 166.864364 194.634245 
L 168.474593 192.63907 
L 170.084821 190.260809 
L 172.017095 186.94285 
L 173.949369 183.1833 
L 176.525735 177.631441 
L 180.390283 168.640808 
L 184.898923 158.231092 
L 187.475288 152.847937 
L 189.407562 149.26862 
L 191.339836 146.178305 
L 192.950065 144.026996 
L 194.560293 142.293598 
L 195.848476 141.221783 
L 197.136658 140.435855 
L 198.424841 139.937183 
L 199.713024 139.722238 
L 201.001207 139.783585 
L 202.289389 140.109512 
L 203.577572 140.684223 
L 204.865755 141.488023 
L 206.475983 142.779574 
L 208.408257 144.680793 
L 210.662577 147.254252 
L 219.035765 157.220788 
L 220.968039 158.957104 
L 222.578267 160.084833 
L 223.86645 160.745438 
L 225.154633 161.170621 
L 226.442815 161.345301 
L 227.730998 161.258438 
L 229.019181 160.903544 
L 230.307363 160.277876 
L 231.595546 159.3841 
L 232.883729 158.228207 
L 234.493957 156.431302 
L 236.104186 154.271394 
L 238.03646 151.255674 
L 240.29078 147.258979 
L 243.189191 141.605475 
L 249.95215 128.18649 
L 252.20647 124.281408 
L 254.138744 121.372067 
L 255.748972 119.320558 
L 257.359201 117.650114 
L 258.647383 116.608416 
L 259.935566 115.840649 
L 261.223749 115.353317 
L 262.511931 115.148298 
L 263.800114 115.222922 
L 265.088297 115.570931 
L 266.37648 116.181493 
L 267.664662 117.039602 
L 269.274891 118.431295 
L 270.885119 120.135761 
L 272.817393 122.520374 
L 275.393759 126.106954 
L 282.478764 136.2795 
L 284.411038 138.598919 
L 286.021266 140.237393 
L 287.631495 141.555806 
L 288.919677 142.352396 
L 290.20786 142.901155 
L 291.496043 143.18923 
L 292.784225 143.20792 
L 294.072408 142.953371 
L 295.360591 142.42532 
L 296.648774 141.628441 
L 297.936956 140.571449 
L 299.547185 138.904428 
L 301.157413 136.885312 
L 303.089687 134.058299 
L 305.344007 130.316117 
L 308.564464 124.453209 
L 313.717195 115.01766 
L 315.971514 111.338668 
L 317.903788 108.586142 
L 319.514017 106.642783 
L 321.124245 105.063363 
L 322.412428 104.084528 
L 323.700611 103.372604 
L 324.988793 102.936334 
L 326.276976 102.779203 
L 327.565159 102.901343 
L 328.853342 103.297921 
L 330.141524 103.95996 
L 331.429707 104.874449 
L 333.039935 106.346209 
L 334.650164 108.144071 
L 336.582438 110.662139 
L 338.836758 113.972272 
L 343.345397 121.116556 
L 346.243808 125.520731 
L 348.498128 128.551541 
L 350.430402 130.740973 
L 352.040631 132.211707 
L 353.328813 133.127027 
L 354.616996 133.791971 
L 355.905179 134.193877 
L 357.193361 134.324355 
L 358.481544 134.179677 
L 359.769727 133.759977 
L 361.05791 133.070104 
L 362.346092 132.118951 
L 363.634275 130.919651 
L 365.244503 129.098045 
L 366.854732 126.957186 
L 368.787006 124.036635 
L 371.363371 119.709005 
L 379.414513 105.787263 
L 381.346787 102.99263 
L 382.957016 100.981769 
L 384.567244 99.310208 
L 385.855427 98.243395 
L 387.14361 97.433866 
L 388.431792 96.892944 
L 389.719975 96.628215 
L 391.008158 96.641639 
L 392.296341 96.932216 
L 393.584523 97.493786 
L 394.872706 98.316165 
L 396.160889 99.385131 
L 397.771117 101.04003 
L 399.381346 103.008153 
L 401.31362 105.711148 
L 403.889985 109.727609 
L 411.297036 121.59153 
L 413.22931 124.196924 
L 414.839538 126.064206 
L 416.449767 127.603496 
L 417.737949 128.57161 
L 419.026132 129.287685 
L 420.314315 129.739288 
L 421.602498 129.91846 
L 422.89068 129.821026 
L 424.178863 129.448406 
L 425.145 128.99078 
L 425.145 128.99078 
" clip-path="url(#p77f7dfaf89)" style="fill: none; stroke: #1a1a1a; stroke-width: 2.25; stroke-linecap: round"/>
   </g>
   <g id="patch_3">
    <path d="M 84.63 278.7 
L 84.63 19.44 
" style="fill: none; stroke: #262626; stroke-width: 1.875; stroke-linejoin: miter; stroke-linecap: square"/>
   </g>
   <g id="patch_4">
    <path d="M 441.36 278.7 
L 441.36 19.44 
" style="fill: none; stroke: #262626; stroke-width: 1.875; stroke-linejoin: miter; stroke-linecap: square"/>
   </g>
   <g id="patch_5">
    <path d="M 84.63 278.7 
L 441.36 278.7 
" style="fill: none; stroke: #262626; stroke-width: 1.875; stroke-linejoin: miter; stroke-linecap: square"/>
   </g>
   <g id="patch_6">
    <path d="M 84.63 19.44 
L 441.36 19.44 
" style="fill: none; stroke: #262626; stroke-width: 1.875; stroke-linejoin: miter; stroke-linecap: square"/>
   </g>
   <g id="legend_1">
    <g id="line2d_16">
     <path d="M 284.963203 231.455859 
L 301.463203 231.455859 
L 317.963203 231.455859 
" style="fill: none; stroke: #d3d3d3; stroke-width: 2.25; stroke-linecap: round"/>
    </g>
    <g id="text_16">
     <!-- $\sigma$ = 0.2 -->
     <g style="fill: #262626" transform="translate(331.163203 237.230859) scale(0.165 -0.165)">
      <defs>
       <path id="DejaVuSans-Oblique-3c3" d="M 2219 3044 
Q 1744 3044 1422 2700 
Q 1081 2341 969 1747 
Q 844 1119 1044 756 
Q 1241 397 1706 397 
Q 2166 397 2503 759 
Q 2844 1122 2966 1747 
Q 3075 2319 2881 2700 
Q 2700 3044 2219 3044 
z
M 2309 3503 
L 4219 3500 
L 4106 2925 
L 3463 2925 
Q 3706 2438 3575 1747 
Q 3406 888 2884 400 
Q 2359 -91 1609 -91 
Q 856 -91 525 400 
Q 194 888 363 1747 
Q 528 2609 1050 3097 
Q 1484 3503 2309 3503 
z
" transform="scale(0.015625)"/>
       <path id="ArialMT-3d" d="M 3381 2694 
L 356 2694 
L 356 3219 
L 3381 3219 
L 3381 2694 
z
M 3381 1303 
L 356 1303 
L 356 1828 
L 3381 1828 
L 3381 1303 
z
" transform="scale(0.015625)"/>
      </defs>
      <use xlink:href="#DejaVuSans-Oblique-3c3" transform="translate(0 0.125)"/>
      <use xlink:href="#ArialMT-20" transform="translate(63.378906 0.125)"/>
      <use xlink:href="#ArialMT-3d" transform="translate(91.162109 0.125)"/>
      <use xlink:href="#ArialMT-20" transform="translate(149.560547 0.125)"/>
      <use xlink:href="#ArialMT-30" transform="translate(177.34375 0.125)"/>
      <use xlink:href="#ArialMT-2e" transform="translate(232.958984 0.125)"/>
      <use xlink:href="#ArialMT-32" transform="translate(260.742188 0.125)"/>
     </g>
    </g>
    <g id="line2d_17">
     <path d="M 284.963203 254.795625 
L 301.463203 254.795625 
L 317.963203 254.795625 
" style="fill: none; stroke: #1a1a1a; stroke-width: 2.25; stroke-linecap: round"/>
    </g>
    <g id="text_17">
     <!-- Deterministic -->
     <g style="fill: #262626" transform="translate(331.163203 260.570625) scale(0.165 -0.165)">
      <defs>
       <path id="ArialMT-44" d="M 494 0 
L 494 4581 
L 2072 4581 
Q 2606 4581 2888 4516 
Q 3281 4425 3559 4188 
Q 3922 3881 4101 3404 
Q 4281 2928 4281 2316 
Q 4281 1794 4159 1391 
Q 4038 988 3847 723 
Q 3656 459 3429 307 
Q 3203 156 2883 78 
Q 2563 0 2147 0 
L 494 0 
z
M 1100 541 
L 2078 541 
Q 2531 541 2789 625 
Q 3047 709 3200 863 
Q 3416 1078 3536 1442 
Q 3656 1806 3656 2325 
Q 3656 3044 3420 3430 
Q 3184 3816 2847 3947 
Q 2603 4041 2063 4041 
L 1100 4041 
L 1100 541 
z
" transform="scale(0.015625)"/>
       <path id="ArialMT-74" d="M 1650 503 
L 1731 6 
Q 1494 -44 1306 -44 
Q 1000 -44 831 53 
Q 663 150 594 308 
Q 525 466 525 972 
L 525 2881 
L 113 2881 
L 113 3319 
L 525 3319 
L 525 4141 
L 1084 4478 
L 1084 3319 
L 1650 3319 
L 1650 2881 
L 1084 2881 
L 1084 941 
Q 1084 700 1114 631 
Q 1144 563 1211 522 
Q 1278 481 1403 481 
Q 1497 481 1650 503 
z
" transform="scale(0.015625)"/>
       <path id="ArialMT-63" d="M 2588 1216 
L 3141 1144 
Q 3050 572 2676 248 
Q 2303 -75 1759 -75 
Q 1078 -75 664 370 
Q 250 816 250 1647 
Q 250 2184 428 2587 
Q 606 2991 970 3192 
Q 1334 3394 1763 3394 
Q 2303 3394 2647 3120 
Q 2991 2847 3088 2344 
L 2541 2259 
Q 2463 2594 2264 2762 
Q 2066 2931 1784 2931 
Q 1359 2931 1093 2626 
Q 828 2322 828 1663 
Q 828 994 1084 691 
Q 1341 388 1753 388 
Q 2084 388 2306 591 
Q 2528 794 2588 1216 
z
" transform="scale(0.015625)"/>
      </defs>
      <use xlink:href="#ArialMT-44"/>
      <use xlink:href="#ArialMT-65" transform="translate(72.216797 0)"/>
      <use xlink:href="#ArialMT-74" transform="translate(127.832031 0)"/>
      <use xlink:href="#ArialMT-65" transform="translate(155.615234 0)"/>
      <use xlink:href="#ArialMT-72" transform="translate(211.230469 0)"/>
      <use xlink:href="#ArialMT-6d" transform="translate(244.53125 0)"/>
      <use xlink:href="#ArialMT-69" transform="translate(327.832031 0)"/>
      <use xlink:href="#ArialMT-6e" transform="translate(350.048828 0)"/>
      <use xlink:href="#ArialMT-69" transform="translate(405.664062 0)"/>
      <use xlink:href="#ArialMT-73" transform="translate(427.880859 0)"/>
      <use xlink:href="#ArialMT-74" transform="translate(477.880859 0)"/>
      <use xlink:href="#ArialMT-69" transform="translate(505.664062 0)"/>
      <use xlink:href="#ArialMT-63" transform="translate(527.880859 0)"/>
     </g>
    </g>
   </g>
  </g>
 </g>
 <defs>
  <clipPath id="p77f7dfaf89">
   <rect x="84.63" y="19.44" width="356.73" height="259.26"/>
  </clipPath>
 </defs>
</svg>
