<?xml version="1.0" encoding="utf-8" standalone="no"?>
<!DOCTYPE svg PUBLIC "-//W3C//DTD SVG 1.1//EN"
  "http://www.w3.org/Graphics/SVG/1.1/DTD/svg11.dtd">
<svg xmlns:xlink="http://www.w3.org/1999/xlink" width="460.8pt" height="345.6pt" viewBox="0 0 460.8 345.6" xmlns="http://www.w3.org/2000/svg" version="1.1">
 <metadata>
  <rdf:RDF xmlns:dc="http://purl.org/dc/elements/1.1/" xmlns:cc="http://creativecommons.org/ns#" xmlns:rdf="http://www.w3.org/1999/02/22-rdf-syntax-ns#">
   <cc:Work>
    <dc:type rdf:resource="http://purl.org/dc/dcmitype/StillImage"/>
    <dc:date>2025-06-16T16:16:17.472159</dc:date>
    <dc:format>image/svg+xml</dc:format>
    <dc:creator>
     <cc:Agent>
      <dc:title>Matplotlib v3.10.3, https://matplotlib.org/</dc:title>
     </cc:Agent>
    </dc:creator>
   </cc:Work>
  </rdf:RDF>
 </metadata>
 <defs>
  <style type="text/css">*{stroke-linejoin: round; stroke-linecap: butt}</style>
 </defs>
 <g id="figure_1">
  <g id="patch_1">
   <path d="M 0 345.6 
L 460.8 345.6 
L 460.8 0 
L 0 0 
z
" style="fill: #ffffff"/>
  </g>
  <g id="axes_1">
   <g id="patch_2">
    <path d="M 75.45 278.7 
L 275.64 278.7 
L 275.64 19.44 
L 75.45 19.44 
z
" style="fill: #ffffff"/>
   </g>
   <g id="matplotlib.axis_1">
    <g id="xtick_1">
     <g id="line2d_1">
      <defs>
       <path id="m64bf153aa2" d="M 0 0 
L 0 9 
" style="stroke: #262626; stroke-width: 1.875"/>
      </defs>
      <g>
       <use xlink:href="#m64bf153aa2" x="84.549545" y="278.7" style="fill: #262626; stroke: #262626; stroke-width: 1.875"/>
      </g>
     </g>
     <g id="text_1">
      <!-- 0 -->
      <g style="fill: #262626" transform="translate(79.961772 303.010391) scale(0.165 -0.165)">
       <defs>
        <path id="ArialMT-30" d="M 266 2259 
Q 266 3072 433 3567 
Q 600 4063 929 4331 
Q 1259 4600 1759 4600 
Q 2128 4600 2406 4451 
Q 2684 4303 2865 4023 
Q 3047 3744 3150 3342 
Q 3253 2941 3253 2259 
Q 3253 1453 3087 958 
Q 2922 463 2592 192 
Q 2263 -78 1759 -78 
Q 1097 -78 719 397 
Q 266 969 266 2259 
z
M 844 2259 
Q 844 1131 1108 757 
Q 1372 384 1759 384 
Q 2147 384 2411 759 
Q 2675 1134 2675 2259 
Q 2675 3391 2411 3762 
Q 2147 4134 1753 4134 
Q 1366 4134 1134 3806 
Q 844 3388 844 2259 
z
" transform="scale(0.015625)"/>
       </defs>
       <use xlink:href="#ArialMT-30"/>
      </g>
     </g>
    </g>
    <g id="xtick_2">
     <g id="line2d_2">
      <g>
       <use xlink:href="#m64bf153aa2" x="156.76816" y="278.7" style="fill: #262626; stroke: #262626; stroke-width: 1.875"/>
      </g>
     </g>
     <g id="text_2">
      <!-- 200 -->
      <g style="fill: #262626" transform="translate(143.00484 303.010391) scale(0.165 -0.165)">
       <defs>
        <path id="ArialMT-32" d="M 3222 541 
L 3222 0 
L 194 0 
Q 188 203 259 391 
Q 375 700 629 1000 
Q 884 1300 1366 1694 
Q 2113 2306 2375 2664 
Q 2638 3022 2638 3341 
Q 2638 3675 2398 3904 
Q 2159 4134 1775 4134 
Q 1369 4134 1125 3890 
Q 881 3647 878 3216 
L 300 3275 
Q 359 3922 746 4261 
Q 1134 4600 1788 4600 
Q 2447 4600 2831 4234 
Q 3216 3869 3216 3328 
Q 3216 3053 3103 2787 
Q 2991 2522 2730 2228 
Q 2469 1934 1863 1422 
Q 1356 997 1212 845 
Q 1069 694 975 541 
L 3222 541 
z
" transform="scale(0.015625)"/>
       </defs>
       <use xlink:href="#ArialMT-32"/>
       <use xlink:href="#ArialMT-30" transform="translate(55.615234 0)"/>
       <use xlink:href="#ArialMT-30" transform="translate(111.230469 0)"/>
      </g>
     </g>
    </g>
    <g id="xtick_3">
     <g id="line2d_3">
      <g>
       <use xlink:href="#m64bf153aa2" x="228.986775" y="278.7" style="fill: #262626; stroke: #262626; stroke-width: 1.875"/>
      </g>
     </g>
     <g id="text_3">
      <!-- 400 -->
      <g style="fill: #262626" transform="translate(215.223455 303.010391) scale(0.165 -0.165)">
       <defs>
        <path id="ArialMT-34" d="M 2069 0 
L 2069 1097 
L 81 1097 
L 81 1613 
L 2172 4581 
L 2631 4581 
L 2631 1613 
L 3250 1613 
L 3250 1097 
L 2631 1097 
L 2631 0 
L 2069 0 
z
M 2069 1613 
L 2069 3678 
L 634 1613 
L 2069 1613 
z
" transform="scale(0.015625)"/>
       </defs>
       <use xlink:href="#ArialMT-34"/>
       <use xlink:href="#ArialMT-30" transform="translate(55.615234 0)"/>
       <use xlink:href="#ArialMT-30" transform="translate(111.230469 0)"/>
      </g>
     </g>
    </g>
    <g id="text_4">
     <!-- Time (hr) -->
     <g style="fill: #262626" transform="translate(139.388906 323.393203) scale(0.18 -0.18)">
      <defs>
       <path id="ArialMT-54" d="M 1659 0 
L 1659 4041 
L 150 4041 
L 150 4581 
L 3781 4581 
L 3781 4041 
L 2266 4041 
L 2266 0 
L 1659 0 
z
" transform="scale(0.015625)"/>
       <path id="ArialMT-69" d="M 425 3934 
L 425 4581 
L 988 4581 
L 988 3934 
L 425 3934 
z
M 425 0 
L 425 3319 
L 988 3319 
L 988 0 
L 425 0 
z
" transform="scale(0.015625)"/>
       <path id="ArialMT-6d" d="M 422 0 
L 422 3319 
L 925 3319 
L 925 2853 
Q 1081 3097 1340 3245 
Q 1600 3394 1931 3394 
Q 2300 3394 2536 3241 
Q 2772 3088 2869 2813 
Q 3263 3394 3894 3394 
Q 4388 3394 4653 3120 
Q 4919 2847 4919 2278 
L 4919 0 
L 4359 0 
L 4359 2091 
Q 4359 2428 4304 2576 
Q 4250 2725 4106 2815 
Q 3963 2906 3769 2906 
Q 3419 2906 3187 2673 
Q 2956 2441 2956 1928 
L 2956 0 
L 2394 0 
L 2394 2156 
Q 2394 2531 2256 2718 
Q 2119 2906 1806 2906 
Q 1569 2906 1367 2781 
Q 1166 2656 1075 2415 
Q 984 2175 984 1722 
L 984 0 
L 422 0 
z
" transform="scale(0.015625)"/>
       <path id="ArialMT-65" d="M 2694 1069 
L 3275 997 
Q 3138 488 2766 206 
Q 2394 -75 1816 -75 
Q 1088 -75 661 373 
Q 234 822 234 1631 
Q 234 2469 665 2931 
Q 1097 3394 1784 3394 
Q 2450 3394 2872 2941 
Q 3294 2488 3294 1666 
Q 3294 1616 3291 1516 
L 816 1516 
Q 847 969 1125 678 
Q 1403 388 1819 388 
Q 2128 388 2347 550 
Q 2566 713 2694 1069 
z
M 847 1978 
L 2700 1978 
Q 2663 2397 2488 2606 
Q 2219 2931 1791 2931 
Q 1403 2931 1139 2672 
Q 875 2413 847 1978 
z
" transform="scale(0.015625)"/>
       <path id="ArialMT-20" transform="scale(0.015625)"/>
       <path id="ArialMT-28" d="M 1497 -1347 
Q 1031 -759 709 28 
Q 388 816 388 1659 
Q 388 2403 628 3084 
Q 909 3875 1497 4659 
L 1900 4659 
Q 1522 4009 1400 3731 
Q 1209 3300 1100 2831 
Q 966 2247 966 1656 
Q 966 153 1900 -1347 
L 1497 -1347 
z
" transform="scale(0.015625)"/>
       <path id="ArialMT-68" d="M 422 0 
L 422 4581 
L 984 4581 
L 984 2938 
Q 1378 3394 1978 3394 
Q 2347 3394 2619 3248 
Q 2891 3103 3008 2847 
Q 3125 2591 3125 2103 
L 3125 0 
L 2563 0 
L 2563 2103 
Q 2563 2525 2380 2717 
Q 2197 2909 1863 2909 
Q 1613 2909 1392 2779 
Q 1172 2650 1078 2428 
Q 984 2206 984 1816 
L 984 0 
L 422 0 
z
" transform="scale(0.015625)"/>
       <path id="ArialMT-72" d="M 416 0 
L 416 3319 
L 922 3319 
L 922 2816 
Q 1116 3169 1280 3281 
Q 1444 3394 1641 3394 
Q 1925 3394 2219 3213 
L 2025 2691 
Q 1819 2813 1613 2813 
Q 1428 2813 1281 2702 
Q 1134 2591 1072 2394 
Q 978 2094 978 1738 
L 978 0 
L 416 0 
z
" transform="scale(0.015625)"/>
       <path id="ArialMT-29" d="M 791 -1347 
L 388 -1347 
Q 1322 153 1322 1656 
Q 1322 2244 1188 2822 
Q 1081 3291 891 3722 
Q 769 4003 388 4659 
L 791 4659 
Q 1378 3875 1659 3084 
Q 1900 2403 1900 1659 
Q 1900 816 1576 28 
Q 1253 -759 791 -1347 
z
" transform="scale(0.015625)"/>
      </defs>
      <use xlink:href="#ArialMT-54"/>
      <use xlink:href="#ArialMT-69" transform="translate(57.333984 0)"/>
      <use xlink:href="#ArialMT-6d" transform="translate(79.550781 0)"/>
      <use xlink:href="#ArialMT-65" transform="translate(162.851562 0)"/>
      <use xlink:href="#ArialMT-20" transform="translate(218.466797 0)"/>
      <use xlink:href="#ArialMT-28" transform="translate(246.25 0)"/>
      <use xlink:href="#ArialMT-68" transform="translate(279.550781 0)"/>
      <use xlink:href="#ArialMT-72" transform="translate(335.166016 0)"/>
      <use xlink:href="#ArialMT-29" transform="translate(368.466797 0)"/>
     </g>
    </g>
   </g>
   <g id="matplotlib.axis_2">
    <g id="ytick_1">
     <g id="line2d_4">
      <defs>
       <path id="m9d90e3fe13" d="M 0 0 
L -9 0 
" style="stroke: #262626; stroke-width: 1.875"/>
      </defs>
      <g>
       <use xlink:href="#m9d90e3fe13" x="75.45" y="239.635218" style="fill: #262626; stroke: #262626; stroke-width: 1.875"/>
      </g>
     </g>
     <g id="text_5">
      <!-- 0.6 -->
      <g style="fill: #262626" transform="translate(40.015 245.540413) scale(0.165 -0.165)">
       <defs>
        <path id="ArialMT-2e" d="M 581 0 
L 581 641 
L 1222 641 
L 1222 0 
L 581 0 
z
" transform="scale(0.015625)"/>
        <path id="ArialMT-36" d="M 3184 3459 
L 2625 3416 
Q 2550 3747 2413 3897 
Q 2184 4138 1850 4138 
Q 1581 4138 1378 3988 
Q 1113 3794 959 3422 
Q 806 3050 800 2363 
Q 1003 2672 1297 2822 
Q 1591 2972 1913 2972 
Q 2475 2972 2870 2558 
Q 3266 2144 3266 1488 
Q 3266 1056 3080 686 
Q 2894 316 2569 119 
Q 2244 -78 1831 -78 
Q 1128 -78 684 439 
Q 241 956 241 2144 
Q 241 3472 731 4075 
Q 1159 4600 1884 4600 
Q 2425 4600 2770 4297 
Q 3116 3994 3184 3459 
z
M 888 1484 
Q 888 1194 1011 928 
Q 1134 663 1356 523 
Q 1578 384 1822 384 
Q 2178 384 2434 671 
Q 2691 959 2691 1453 
Q 2691 1928 2437 2201 
Q 2184 2475 1800 2475 
Q 1419 2475 1153 2201 
Q 888 1928 888 1484 
z
" transform="scale(0.015625)"/>
       </defs>
       <use xlink:href="#ArialMT-30"/>
       <use xlink:href="#ArialMT-2e" transform="translate(55.615234 0)"/>
       <use xlink:href="#ArialMT-36" transform="translate(83.398438 0)"/>
      </g>
     </g>
    </g>
    <g id="ytick_2">
     <g id="line2d_5">
      <g>
       <use xlink:href="#m9d90e3fe13" x="75.45" y="198.99397" style="fill: #262626; stroke: #262626; stroke-width: 1.875"/>
      </g>
     </g>
     <g id="text_6">
      <!-- 0.8 -->
      <g style="fill: #262626" transform="translate(40.015 204.899165) scale(0.165 -0.165)">
       <defs>
        <path id="ArialMT-38" d="M 1131 2484 
Q 781 2613 612 2850 
Q 444 3088 444 3419 
Q 444 3919 803 4259 
Q 1163 4600 1759 4600 
Q 2359 4600 2725 4251 
Q 3091 3903 3091 3403 
Q 3091 3084 2923 2848 
Q 2756 2613 2416 2484 
Q 2838 2347 3058 2040 
Q 3278 1734 3278 1309 
Q 3278 722 2862 322 
Q 2447 -78 1769 -78 
Q 1091 -78 675 323 
Q 259 725 259 1325 
Q 259 1772 486 2073 
Q 713 2375 1131 2484 
z
M 1019 3438 
Q 1019 3113 1228 2906 
Q 1438 2700 1772 2700 
Q 2097 2700 2305 2904 
Q 2513 3109 2513 3406 
Q 2513 3716 2298 3927 
Q 2084 4138 1766 4138 
Q 1444 4138 1231 3931 
Q 1019 3725 1019 3438 
z
M 838 1322 
Q 838 1081 952 856 
Q 1066 631 1291 507 
Q 1516 384 1775 384 
Q 2178 384 2440 643 
Q 2703 903 2703 1303 
Q 2703 1709 2433 1975 
Q 2163 2241 1756 2241 
Q 1359 2241 1098 1978 
Q 838 1716 838 1322 
z
" transform="scale(0.015625)"/>
       </defs>
       <use xlink:href="#ArialMT-30"/>
       <use xlink:href="#ArialMT-2e" transform="translate(55.615234 0)"/>
       <use xlink:href="#ArialMT-38" transform="translate(83.398438 0)"/>
      </g>
     </g>
    </g>
    <g id="ytick_3">
     <g id="line2d_6">
      <g>
       <use xlink:href="#m9d90e3fe13" x="75.45" y="158.352723" style="fill: #262626; stroke: #262626; stroke-width: 1.875"/>
      </g>
     </g>
     <g id="text_7">
      <!-- 1.0 -->
      <g style="fill: #262626" transform="translate(40.015 164.257918) scale(0.165 -0.165)">
       <defs>
        <path id="ArialMT-31" d="M 2384 0 
L 1822 0 
L 1822 3584 
Q 1619 3391 1289 3197 
Q 959 3003 697 2906 
L 697 3450 
Q 1169 3672 1522 3987 
Q 1875 4303 2022 4600 
L 2384 4600 
L 2384 0 
z
" transform="scale(0.015625)"/>
       </defs>
       <use xlink:href="#ArialMT-31"/>
       <use xlink:href="#ArialMT-2e" transform="translate(55.615234 0)"/>
       <use xlink:href="#ArialMT-30" transform="translate(83.398438 0)"/>
      </g>
     </g>
    </g>
    <g id="ytick_4">
     <g id="line2d_7">
      <g>
       <use xlink:href="#m9d90e3fe13" x="75.45" y="117.711475" style="fill: #262626; stroke: #262626; stroke-width: 1.875"/>
      </g>
     </g>
     <g id="text_8">
      <!-- 1.2 -->
      <g style="fill: #262626" transform="translate(40.015 123.61667) scale(0.165 -0.165)">
       <use xlink:href="#ArialMT-31"/>
       <use xlink:href="#ArialMT-2e" transform="translate(55.615234 0)"/>
       <use xlink:href="#ArialMT-32" transform="translate(83.398438 0)"/>
      </g>
     </g>
    </g>
    <g id="ytick_5">
     <g id="line2d_8">
      <g>
       <use xlink:href="#m9d90e3fe13" x="75.45" y="77.070227" style="fill: #262626; stroke: #262626; stroke-width: 1.875"/>
      </g>
     </g>
     <g id="text_9">
      <!-- 1.4 -->
      <g style="fill: #262626" transform="translate(40.015 82.975423) scale(0.165 -0.165)">
       <use xlink:href="#ArialMT-31"/>
       <use xlink:href="#ArialMT-2e" transform="translate(55.615234 0)"/>
       <use xlink:href="#ArialMT-34" transform="translate(83.398438 0)"/>
      </g>
     </g>
    </g>
    <g id="ytick_6">
     <g id="line2d_9">
      <g>
       <use xlink:href="#m9d90e3fe13" x="75.45" y="36.42898" style="fill: #262626; stroke: #262626; stroke-width: 1.875"/>
      </g>
     </g>
     <g id="text_10">
      <!-- 1.6 -->
      <g style="fill: #262626" transform="translate(40.015 42.334175) scale(0.165 -0.165)">
       <use xlink:href="#ArialMT-31"/>
       <use xlink:href="#ArialMT-2e" transform="translate(55.615234 0)"/>
       <use xlink:href="#ArialMT-36" transform="translate(83.398438 0)"/>
      </g>
     </g>
    </g>
    <g id="text_11">
     <!-- Normalized Plasma RMA (A.U.) -->
     <g style="fill: #262626" transform="translate(32.226563 275.093906) rotate(-90) scale(0.18 -0.18)">
      <defs>
       <path id="ArialMT-4e" d="M 488 0 
L 488 4581 
L 1109 4581 
L 3516 984 
L 3516 4581 
L 4097 4581 
L 4097 0 
L 3475 0 
L 1069 3600 
L 1069 0 
L 488 0 
z
" transform="scale(0.015625)"/>
       <path id="ArialMT-6f" d="M 213 1659 
Q 213 2581 725 3025 
Q 1153 3394 1769 3394 
Q 2453 3394 2887 2945 
Q 3322 2497 3322 1706 
Q 3322 1066 3130 698 
Q 2938 331 2570 128 
Q 2203 -75 1769 -75 
Q 1072 -75 642 372 
Q 213 819 213 1659 
z
M 791 1659 
Q 791 1022 1069 705 
Q 1347 388 1769 388 
Q 2188 388 2466 706 
Q 2744 1025 2744 1678 
Q 2744 2294 2464 2611 
Q 2184 2928 1769 2928 
Q 1347 2928 1069 2612 
Q 791 2297 791 1659 
z
" transform="scale(0.015625)"/>
       <path id="ArialMT-61" d="M 2588 409 
Q 2275 144 1986 34 
Q 1697 -75 1366 -75 
Q 819 -75 525 192 
Q 231 459 231 875 
Q 231 1119 342 1320 
Q 453 1522 633 1644 
Q 813 1766 1038 1828 
Q 1203 1872 1538 1913 
Q 2219 1994 2541 2106 
Q 2544 2222 2544 2253 
Q 2544 2597 2384 2738 
Q 2169 2928 1744 2928 
Q 1347 2928 1158 2789 
Q 969 2650 878 2297 
L 328 2372 
Q 403 2725 575 2942 
Q 747 3159 1072 3276 
Q 1397 3394 1825 3394 
Q 2250 3394 2515 3294 
Q 2781 3194 2906 3042 
Q 3031 2891 3081 2659 
Q 3109 2516 3109 2141 
L 3109 1391 
Q 3109 606 3145 398 
Q 3181 191 3288 0 
L 2700 0 
Q 2613 175 2588 409 
z
M 2541 1666 
Q 2234 1541 1622 1453 
Q 1275 1403 1131 1340 
Q 988 1278 909 1158 
Q 831 1038 831 891 
Q 831 666 1001 516 
Q 1172 366 1500 366 
Q 1825 366 2078 508 
Q 2331 650 2450 897 
Q 2541 1088 2541 1459 
L 2541 1666 
z
" transform="scale(0.015625)"/>
       <path id="ArialMT-6c" d="M 409 0 
L 409 4581 
L 972 4581 
L 972 0 
L 409 0 
z
" transform="scale(0.015625)"/>
       <path id="ArialMT-7a" d="M 125 0 
L 125 456 
L 2238 2881 
Q 1878 2863 1603 2863 
L 250 2863 
L 250 3319 
L 2963 3319 
L 2963 2947 
L 1166 841 
L 819 456 
Q 1197 484 1528 484 
L 3063 484 
L 3063 0 
L 125 0 
z
" transform="scale(0.015625)"/>
       <path id="ArialMT-64" d="M 2575 0 
L 2575 419 
Q 2259 -75 1647 -75 
Q 1250 -75 917 144 
Q 584 363 401 755 
Q 219 1147 219 1656 
Q 219 2153 384 2558 
Q 550 2963 881 3178 
Q 1213 3394 1622 3394 
Q 1922 3394 2156 3267 
Q 2391 3141 2538 2938 
L 2538 4581 
L 3097 4581 
L 3097 0 
L 2575 0 
z
M 797 1656 
Q 797 1019 1065 703 
Q 1334 388 1700 388 
Q 2069 388 2326 689 
Q 2584 991 2584 1609 
Q 2584 2291 2321 2609 
Q 2059 2928 1675 2928 
Q 1300 2928 1048 2622 
Q 797 2316 797 1656 
z
" transform="scale(0.015625)"/>
       <path id="ArialMT-50" d="M 494 0 
L 494 4581 
L 2222 4581 
Q 2678 4581 2919 4538 
Q 3256 4481 3484 4323 
Q 3713 4166 3852 3881 
Q 3991 3597 3991 3256 
Q 3991 2672 3619 2267 
Q 3247 1863 2275 1863 
L 1100 1863 
L 1100 0 
L 494 0 
z
M 1100 2403 
L 2284 2403 
Q 2872 2403 3119 2622 
Q 3366 2841 3366 3238 
Q 3366 3525 3220 3729 
Q 3075 3934 2838 4000 
Q 2684 4041 2272 4041 
L 1100 4041 
L 1100 2403 
z
" transform="scale(0.015625)"/>
       <path id="ArialMT-73" d="M 197 991 
L 753 1078 
Q 800 744 1014 566 
Q 1228 388 1613 388 
Q 2000 388 2187 545 
Q 2375 703 2375 916 
Q 2375 1106 2209 1216 
Q 2094 1291 1634 1406 
Q 1016 1563 777 1677 
Q 538 1791 414 1992 
Q 291 2194 291 2438 
Q 291 2659 392 2848 
Q 494 3038 669 3163 
Q 800 3259 1026 3326 
Q 1253 3394 1513 3394 
Q 1903 3394 2198 3281 
Q 2494 3169 2634 2976 
Q 2775 2784 2828 2463 
L 2278 2388 
Q 2241 2644 2061 2787 
Q 1881 2931 1553 2931 
Q 1166 2931 1000 2803 
Q 834 2675 834 2503 
Q 834 2394 903 2306 
Q 972 2216 1119 2156 
Q 1203 2125 1616 2013 
Q 2213 1853 2448 1751 
Q 2684 1650 2818 1456 
Q 2953 1263 2953 975 
Q 2953 694 2789 445 
Q 2625 197 2315 61 
Q 2006 -75 1616 -75 
Q 969 -75 630 194 
Q 291 463 197 991 
z
" transform="scale(0.015625)"/>
       <path id="ArialMT-52" d="M 503 0 
L 503 4581 
L 2534 4581 
Q 3147 4581 3465 4457 
Q 3784 4334 3975 4021 
Q 4166 3709 4166 3331 
Q 4166 2844 3850 2509 
Q 3534 2175 2875 2084 
Q 3116 1969 3241 1856 
Q 3506 1613 3744 1247 
L 4541 0 
L 3778 0 
L 3172 953 
Q 2906 1366 2734 1584 
Q 2563 1803 2427 1890 
Q 2291 1978 2150 2013 
Q 2047 2034 1813 2034 
L 1109 2034 
L 1109 0 
L 503 0 
z
M 1109 2559 
L 2413 2559 
Q 2828 2559 3062 2645 
Q 3297 2731 3419 2920 
Q 3541 3109 3541 3331 
Q 3541 3656 3305 3865 
Q 3069 4075 2559 4075 
L 1109 4075 
L 1109 2559 
z
" transform="scale(0.015625)"/>
       <path id="ArialMT-4d" d="M 475 0 
L 475 4581 
L 1388 4581 
L 2472 1338 
Q 2622 884 2691 659 
Q 2769 909 2934 1394 
L 4031 4581 
L 4847 4581 
L 4847 0 
L 4263 0 
L 4263 3834 
L 2931 0 
L 2384 0 
L 1059 3900 
L 1059 0 
L 475 0 
z
" transform="scale(0.015625)"/>
       <path id="ArialMT-41" d="M -9 0 
L 1750 4581 
L 2403 4581 
L 4278 0 
L 3588 0 
L 3053 1388 
L 1138 1388 
L 634 0 
L -9 0 
z
M 1313 1881 
L 2866 1881 
L 2388 3150 
Q 2169 3728 2063 4100 
Q 1975 3659 1816 3225 
L 1313 1881 
z
" transform="scale(0.015625)"/>
       <path id="ArialMT-55" d="M 3500 4581 
L 4106 4581 
L 4106 1934 
Q 4106 1244 3950 837 
Q 3794 431 3386 176 
Q 2978 -78 2316 -78 
Q 1672 -78 1262 144 
Q 853 366 678 786 
Q 503 1206 503 1934 
L 503 4581 
L 1109 4581 
L 1109 1938 
Q 1109 1341 1220 1058 
Q 1331 775 1601 622 
Q 1872 469 2263 469 
Q 2931 469 3215 772 
Q 3500 1075 3500 1938 
L 3500 4581 
z
" transform="scale(0.015625)"/>
      </defs>
      <use xlink:href="#ArialMT-4e"/>
      <use xlink:href="#ArialMT-6f" transform="translate(72.216797 0)"/>
      <use xlink:href="#ArialMT-72" transform="translate(127.832031 0)"/>
      <use xlink:href="#ArialMT-6d" transform="translate(161.132812 0)"/>
      <use xlink:href="#ArialMT-61" transform="translate(244.433594 0)"/>
      <use xlink:href="#ArialMT-6c" transform="translate(300.048828 0)"/>
      <use xlink:href="#ArialMT-69" transform="translate(322.265625 0)"/>
      <use xlink:href="#ArialMT-7a" transform="translate(344.482422 0)"/>
      <use xlink:href="#ArialMT-65" transform="translate(394.482422 0)"/>
      <use xlink:href="#ArialMT-64" transform="translate(450.097656 0)"/>
      <use xlink:href="#ArialMT-20" transform="translate(505.712891 0)"/>
      <use xlink:href="#ArialMT-50" transform="translate(533.496094 0)"/>
      <use xlink:href="#ArialMT-6c" transform="translate(600.195312 0)"/>
      <use xlink:href="#ArialMT-61" transform="translate(622.412109 0)"/>
      <use xlink:href="#ArialMT-73" transform="translate(678.027344 0)"/>
      <use xlink:href="#ArialMT-6d" transform="translate(728.027344 0)"/>
      <use xlink:href="#ArialMT-61" transform="translate(811.328125 0)"/>
      <use xlink:href="#ArialMT-20" transform="translate(866.943359 0)"/>
      <use xlink:href="#ArialMT-52" transform="translate(894.726562 0)"/>
      <use xlink:href="#ArialMT-4d" transform="translate(966.943359 0)"/>
      <use xlink:href="#ArialMT-41" transform="translate(1050.244141 0)"/>
      <use xlink:href="#ArialMT-20" transform="translate(1111.443359 0)"/>
      <use xlink:href="#ArialMT-28" transform="translate(1139.226562 0)"/>
      <use xlink:href="#ArialMT-41" transform="translate(1172.527344 0)"/>
      <use xlink:href="#ArialMT-2e" transform="translate(1239.226562 0)"/>
      <use xlink:href="#ArialMT-55" transform="translate(1267.009766 0)"/>
      <use xlink:href="#ArialMT-2e" transform="translate(1339.226562 0)"/>
      <use xlink:href="#ArialMT-29" transform="translate(1367.009766 0)"/>
     </g>
    </g>
   </g>
   <g id="line2d_10">
    <path d="M 84.549545 158.352723 
L 85.272449 158.246429 
L 85.814626 157.915006 
L 86.356804 157.329121 
L 87.079707 156.162667 
L 87.983336 154.142306 
L 89.067691 151.039228 
L 90.513498 146.141318 
L 93.405111 136.190549 
L 94.489466 133.248031 
L 95.393095 131.39708 
L 96.115998 130.383185 
L 96.658176 129.920157 
L 97.200353 129.723572 
L 97.742531 129.799989 
L 98.284708 130.14887 
L 98.826886 130.767365 
L 99.549789 131.995914 
L 100.272693 133.655923 
L 101.176322 136.267249 
L 102.441402 140.712883 
L 104.610112 149.410451 
L 106.417371 156.317881 
L 107.501726 159.751419 
L 108.405355 162.001802 
L 109.128258 163.329372 
L 109.851161 164.196713 
L 110.393339 164.530981 
L 110.935516 164.590128 
L 111.477694 164.374243 
L 112.019871 163.889095 
L 112.742775 162.841194 
L 113.465678 161.368632 
L 114.369307 159.006229 
L 115.634388 154.946177 
L 120.333259 138.883358 
L 121.236889 136.839056 
L 121.959792 135.660633 
L 122.682695 134.93189 
L 123.224873 134.696377 
L 123.76705 134.733788 
L 124.309228 135.044739 
L 124.851405 135.62529 
L 125.574308 136.803486 
L 126.297212 138.412588 
L 127.200841 140.958945 
L 128.465922 145.309665 
L 130.634632 153.83035 
L 132.44189 160.575655 
L 133.526245 163.906362 
L 134.429874 166.068925 
L 135.152777 167.325301 
L 135.875681 168.121069 
L 136.417858 168.401969 
L 136.960036 168.407609 
L 137.502213 168.139335 
L 138.044391 167.602473 
L 138.767294 166.487095 
L 139.490197 164.949281 
L 140.393826 162.509179 
L 141.658907 158.348592 
L 146.177053 142.492928 
L 147.080682 140.293476 
L 147.803585 138.979984 
L 148.526489 138.109404 
L 149.068666 137.765075 
L 149.610844 137.692636 
L 150.153021 137.894891 
L 150.695199 138.36832 
L 151.418102 139.408944 
L 152.141005 140.889234 
L 153.044634 143.29095 
L 154.128989 146.832259 
L 155.755522 152.988638 
L 158.285683 162.583555 
L 159.550764 166.453576 
L 160.454393 168.555755 
L 161.177297 169.762678 
L 161.9002 170.50854 
L 162.442377 170.751745 
L 162.984555 170.720392 
L 163.526732 170.415001 
L 164.06891 169.841743 
L 164.791813 168.679302 
L 165.514717 167.096416 
L 166.418346 164.603328 
L 167.683426 160.376178 
L 172.201572 144.365486 
L 173.105201 142.149118 
L 173.828105 140.824503 
L 174.551008 139.944472 
L 175.093185 139.593554 
L 175.635363 139.515471 
L 176.17754 139.711525 
L 176.719718 140.179183 
L 177.442621 141.211607 
L 178.165525 142.68265 
L 179.069154 145.070701 
L 180.153509 148.591635 
L 181.960767 155.414929 
L 184.310203 164.211534 
L 185.394558 167.541402 
L 186.298187 169.722706 
L 187.02109 171.003873 
L 187.743993 171.830567 
L 188.286171 172.137214 
L 188.828348 172.169369 
L 189.370526 171.927346 
L 189.912703 171.415364 
L 190.635607 170.329172 
L 191.35851 168.813761 
L 192.262139 166.388827 
L 193.52722 162.219153 
L 195.876656 153.364575 
L 197.503188 147.633135 
L 198.587543 144.515737 
L 199.491172 142.537115 
L 200.214076 141.43047 
L 200.756253 140.90203 
L 201.298431 140.642742 
L 201.840608 140.657918 
L 202.382786 140.946687 
L 202.924963 141.50488 
L 203.647866 142.65141 
L 204.37077 144.225704 
L 205.274399 146.721959 
L 206.53948 150.986444 
L 209.069641 160.688407 
L 210.696174 166.406199 
L 211.780529 169.458914 
L 212.684158 171.356889 
L 213.407061 172.386159 
L 213.949239 172.851549 
L 214.491416 173.044852 
L 215.033593 172.963573 
L 215.575771 172.609024 
L 216.117948 171.987496 
L 216.840852 170.763135 
L 217.744481 168.652101 
L 218.828836 165.404874 
L 220.274643 160.239528 
L 223.527707 148.276566 
L 224.612062 145.161388 
L 225.515692 143.188455 
L 226.238595 142.088136 
L 226.780772 141.565075 
L 227.32295 141.312098 
L 227.865127 141.332818 
L 228.407305 141.627799 
L 228.949482 142.19168 
L 229.672386 143.345163 
L 230.395289 144.925041 
L 231.298918 147.425763 
L 232.563999 151.690388 
L 235.274886 162.045227 
L 236.720693 167.050435 
L 237.805048 170.073415 
L 238.708677 171.943442 
L 239.43158 172.94895 
L 239.973758 173.396049 
L 240.515935 173.57065 
L 241.058113 173.470945 
L 241.60029 173.098048 
L 242.142468 172.458814 
L 242.865371 171.211808 
L 243.769 169.07493 
L 244.853355 165.801321 
L 246.299162 160.610355 
L 249.552227 148.634429 
L 250.636582 145.527599 
L 251.540211 143.565107 
L 252.263114 142.474978 
L 252.805292 141.960476 
L 253.347469 141.715795 
L 253.889647 141.746337 
L 254.431824 142.049942 
L 254.974002 142.622332 
L 255.696905 143.786228 
L 256.419808 145.375135 
L 257.323437 147.884441 
L 258.588518 152.154949 
L 263.28739 169.068224 
L 264.191019 171.286662 
L 264.913922 172.605404 
L 265.636825 173.474634 
L 266.179003 173.81531 
L 266.540455 173.890681 
L 266.540455 173.890681 
" clip-path="url(#paf5c4ea83e)" style="fill: none; stroke: #254b7f; stroke-width: 2.25; stroke-linecap: round"/>
   </g>
   <g id="line2d_11">
    <path d="M 84.549545 158.352723 
L 85.091723 158.25385 
L 85.453175 157.97662 
L 85.995352 157.153068 
L 86.53753 155.831324 
L 87.260433 153.338383 
L 88.164062 149.188732 
L 89.248417 143.021745 
L 91.236401 129.985113 
L 93.043659 118.640282 
L 94.128014 113.145287 
L 95.031643 109.726438 
L 95.754547 107.898242 
L 96.296724 107.106677 
L 96.658176 106.867917 
L 97.019628 106.864498 
L 97.381079 107.09959 
L 97.742531 107.573017 
L 98.284708 108.725378 
L 98.826886 110.397471 
L 99.549789 113.396198 
L 100.453418 118.27018 
L 101.537773 125.496047 
L 103.164306 138.198018 
L 106.055919 161.12441 
L 107.140274 168.112687 
L 108.043903 172.725324 
L 108.766806 175.476947 
L 109.48971 177.313822 
L 110.031887 178.062898 
L 110.393339 178.25741 
L 110.754791 178.207438 
L 111.116242 177.915305 
L 111.65842 177.029851 
L 112.200597 175.626119 
L 112.9235 172.997892 
L 113.82713 168.626955 
L 114.911485 162.093674 
L 116.538017 150.675302 
L 118.887453 134.163357 
L 119.971808 127.885472 
L 120.875437 123.788569 
L 121.59834 121.407601 
L 122.140518 120.198914 
L 122.682695 119.512105 
L 123.044147 119.351553 
L 123.405599 119.432177 
L 123.76705 119.75272 
L 124.309228 120.68023 
L 124.851405 122.131628 
L 125.574308 124.84204 
L 126.477938 129.363291 
L 127.562293 136.174391 
L 129.008099 146.85619 
L 132.080438 170.126875 
L 133.164793 176.721988 
L 134.068422 181.011133 
L 134.791326 183.507522 
L 135.333503 184.784979 
L 135.875681 185.529182 
L 136.237132 185.723485 
L 136.598584 185.674875 
L 136.960036 185.383894 
L 137.502213 184.499985 
L 138.044391 183.094362 
L 138.767294 180.454 
L 139.670923 176.044685 
L 140.755278 169.419498 
L 142.381811 157.744939 
L 144.911972 139.389369 
L 145.996327 132.922677 
L 146.899956 128.68276 
L 147.62286 126.195486 
L 148.165037 124.911115 
L 148.707214 124.151626 
L 149.068666 123.943948 
L 149.430118 123.978557 
L 149.791569 124.253946 
L 150.333747 125.114631 
L 150.875924 126.500328 
L 151.598828 129.123939 
L 152.502457 133.53658 
L 153.586812 140.21487 
L 155.032618 150.71152 
L 158.104958 173.547164 
L 159.189313 179.976464 
L 160.092942 184.124305 
L 160.815845 186.506847 
L 161.358022 187.699131 
L 161.9002 188.358815 
L 162.261652 188.496585 
L 162.623103 188.391507 
L 162.984555 188.045806 
L 163.526732 187.081223 
L 164.06891 185.597044 
L 164.791813 182.855929 
L 165.695442 178.328405 
L 166.779797 171.574413 
L 168.40633 159.737121 
L 170.936491 141.204765 
L 172.020846 134.688608 
L 172.924475 130.417443 
L 173.647379 127.910475 
L 174.189556 126.613852 
L 174.731734 125.843514 
L 175.093185 125.629719 
L 175.454637 125.658029 
L 175.816089 125.927235 
L 176.17754 126.436273 
L 176.719718 127.640537 
L 177.442621 130.035245 
L 178.165525 133.263956 
L 179.069154 138.321816 
L 180.334234 146.870026 
L 184.85238 179.302154 
L 185.756009 183.850521 
L 186.478913 186.602572 
L 187.201816 188.474566 
L 187.743993 189.265784 
L 188.105445 189.493622 
L 188.466897 189.479026 
L 188.828348 189.222448 
L 189.1898 188.726305 
L 189.731978 187.5408 
L 190.454881 185.1713 
L 191.177784 181.968192 
L 192.081413 176.943585 
L 193.346494 168.445584 
L 197.86464 136.240905 
L 198.768269 131.746085 
L 199.491172 129.03797 
L 200.214076 127.210344 
L 200.756253 126.452106 
L 201.117705 126.246968 
L 201.479156 126.283875 
L 201.840608 126.56173 
L 202.382786 127.427104 
L 202.924963 128.816399 
L 203.647866 131.442 
L 204.551495 135.849919 
L 205.63585 142.507953 
L 207.081657 152.945681 
L 210.153996 175.518347 
L 211.238351 181.813707 
L 212.14198 185.83792 
L 212.864884 188.116004 
L 213.407061 189.227988 
L 213.949239 189.806312 
L 214.31069 189.890556 
L 214.672142 189.732182 
L 215.033593 189.333375 
L 215.575771 188.290269 
L 216.117948 186.730416 
L 216.840852 183.894021 
L 217.744481 179.258858 
L 218.828836 172.396269 
L 220.455368 160.445929 
L 222.98553 141.865339 
L 224.069885 135.372233 
L 224.973514 131.13623 
L 225.696417 128.665537 
L 226.238595 127.399703 
L 226.780772 126.662039 
L 227.142224 126.471038 
L 227.503676 126.521986 
L 227.865127 126.813892 
L 228.407305 127.700054 
L 228.949482 129.109307 
L 229.672386 131.759472 
L 230.576015 136.193531 
L 231.66037 142.874255 
L 233.106176 153.324098 
L 235.99779 174.673981 
L 237.082145 181.161166 
L 237.985774 185.388392 
L 238.708677 187.849998 
L 239.250854 189.108226 
L 239.793032 189.83729 
L 240.154484 190.023445 
L 240.515935 189.966886 
L 240.877387 189.66895 
L 241.419564 188.774559 
L 241.961742 187.357342 
L 242.684645 184.697473 
L 243.588274 180.253406 
L 244.672629 173.564979 
L 246.299162 161.738924 
L 249.010049 141.79492 
L 250.094404 135.330099 
L 250.998033 131.125058 
L 251.720937 128.682834 
L 252.263114 127.439923 
L 252.805292 126.725986 
L 253.166743 126.551124 
L 253.528195 126.618129 
L 253.889647 126.926077 
L 254.431824 127.835879 
L 254.974002 129.267883 
L 255.696905 131.946216 
L 256.600534 136.410739 
L 257.684889 143.119081 
L 259.311421 154.963264 
L 262.022309 174.903506 
L 263.106664 181.355787 
L 264.010293 185.546725 
L 264.733196 187.975764 
L 265.275374 189.208134 
L 265.817551 189.910545 
L 266.179003 190.07877 
L 266.540455 190.004806 
L 266.540455 190.004806 
" clip-path="url(#paf5c4ea83e)" style="fill: none; stroke: #1c6488; stroke-width: 2.25; stroke-linecap: round"/>
   </g>
   <g id="line2d_12">
    <path d="M 84.549545 158.352723 
L 84.910997 158.287227 
L 85.272449 157.932372 
L 85.6339 157.176248 
L 86.176078 155.237287 
L 86.718255 152.36233 
L 87.441159 147.211205 
L 88.344788 139.005459 
L 89.609869 125.237161 
L 92.682208 90.673999 
L 93.585837 82.83466 
L 94.30874 77.990897 
L 95.031643 74.638108 
L 95.573821 73.196396 
L 95.935273 72.773239 
L 96.296724 72.79134 
L 96.658176 73.256256 
L 97.019628 74.171217 
L 97.561805 76.379578 
L 98.103983 79.574411 
L 98.826886 85.300372 
L 99.730515 94.614782 
L 100.81487 108.45019 
L 102.260677 130.007136 
L 105.513742 179.614656 
L 106.598097 192.769407 
L 107.501726 201.327837 
L 108.224629 206.328533 
L 108.766806 208.910164 
L 109.308984 210.447866 
L 109.670436 210.881486 
L 109.851161 210.920751 
L 110.212613 210.645477 
L 110.574065 209.900396 
L 111.116242 207.920768 
L 111.65842 204.943169 
L 112.381323 199.521667 
L 113.284952 190.671979 
L 114.369307 177.612896 
L 116.176565 152.419356 
L 118.345275 122.643536 
L 119.42963 110.400676 
L 120.333259 102.430744 
L 121.056163 97.806881 
L 121.59834 95.46203 
L 122.140518 94.129473 
L 122.501969 93.817252 
L 122.682695 93.835747 
L 123.044147 94.220421 
L 123.405599 95.066776 
L 123.947776 97.191026 
L 124.489954 100.308506 
L 125.212857 105.919435 
L 126.116486 115.02859 
L 127.200841 128.461235 
L 128.827373 151.7967 
L 131.357535 188.067171 
L 132.44189 200.771247 
L 133.345519 209.088331 
L 134.068422 213.968054 
L 134.6106 216.492778 
L 135.152777 217.996283 
L 135.514229 218.418235 
L 135.694955 218.454094 
L 136.056407 218.173892 
L 136.417858 217.428141 
L 136.960036 215.449885 
L 137.502213 212.472626 
L 138.225116 207.040459 
L 139.128746 198.143895 
L 140.213101 184.954007 
L 141.839633 161.964923 
L 144.369795 126.207274 
L 145.45415 113.71541 
L 146.357779 105.571046 
L 147.080682 100.826394 
L 147.62286 98.400261 
L 148.165037 96.993729 
L 148.526489 96.63438 
L 148.707214 96.630385 
L 149.068666 96.97226 
L 149.430118 97.777442 
L 149.972295 99.842641 
L 150.514473 102.903231 
L 151.237376 108.440336 
L 152.141005 117.457359 
L 153.22536 130.77486 
L 154.851893 153.918339 
L 157.382054 189.828038 
L 158.466409 202.355476 
L 159.370038 210.518253 
L 160.092942 215.271815 
L 160.635119 217.701408 
L 161.177297 219.110208 
L 161.538748 219.4693 
L 161.719474 219.47403 
L 162.080926 219.132643 
L 162.442377 218.326429 
L 162.984555 216.260204 
L 163.526732 213.198623 
L 164.249636 207.661018 
L 165.153265 198.646103 
L 166.23762 185.337415 
L 167.864152 162.224051 
L 170.394314 126.407496 
L 171.478669 113.935899 
L 172.382298 105.825044 
L 173.105201 101.115751 
L 173.647379 98.719901 
L 174.189556 97.34598 
L 174.551008 97.009074 
L 174.731734 97.016394 
L 175.093185 97.381156 
L 175.454637 98.209305 
L 175.996815 100.308315 
L 176.538992 103.401203 
L 177.261895 108.977605 
L 178.165525 118.035233 
L 179.249879 131.385053 
L 180.876412 154.535775 
L 183.406574 190.348914 
L 184.490929 202.798179 
L 185.394558 210.882781 
L 186.117461 215.567443 
L 186.659638 217.942798 
L 187.201816 219.296059 
L 187.563268 219.617861 
L 187.743993 219.603955 
L 188.105445 219.225429 
L 188.466897 218.382537 
L 189.009074 216.2626 
L 189.551252 213.149654 
L 190.274155 207.548558 
L 191.177784 198.464683 
L 192.262139 185.092195 
L 193.888672 161.929128 
L 196.238107 128.4611 
L 197.322462 115.616649 
L 198.226091 107.109825 
L 198.948995 102.041084 
L 199.491172 99.358145 
L 200.03335 97.686763 
L 200.394801 97.148804 
L 200.756253 97.078062 
L 201.117705 97.47466 
L 201.479156 98.334424 
L 202.021334 100.479742 
L 202.563511 103.616908 
L 203.286415 109.247746 
L 204.190044 118.36366 
L 205.274399 131.765331 
L 207.081657 157.625059 
L 209.250367 188.396569 
L 210.334722 201.212351 
L 211.238351 209.687739 
L 211.961254 214.727737 
L 212.503432 217.387691 
L 213.045609 219.035571 
L 213.407061 219.556314 
L 213.768513 219.611232 
L 214.129964 219.198833 
L 214.491416 218.322521 
L 215.033593 216.153581 
L 215.575771 212.993838 
L 216.298674 207.335125 
L 217.202303 198.189286 
L 218.286658 184.760903 
L 220.093917 158.883293 
L 222.262627 128.137556 
L 223.346982 115.352278 
L 224.250611 106.909277 
L 224.973514 101.89896 
L 225.515692 99.262911 
L 226.057869 97.640283 
L 226.419321 97.135299 
L 226.780772 97.097852 
L 227.142224 97.52748 
L 227.503676 98.420012 
L 228.045853 100.613248 
L 228.588031 103.796211 
L 229.310934 109.483346 
L 230.214563 118.65964 
L 231.298918 132.115355 
L 233.106176 158.011763 
L 235.274886 188.732945 
L 236.359241 201.488241 
L 237.26287 209.898801 
L 237.985774 214.879681 
L 238.527951 217.492186 
L 239.070129 219.090882 
L 239.43158 219.578316 
L 239.793032 219.599838 
L 240.154484 219.154018 
L 240.515935 218.244761 
L 241.058113 216.027527 
L 241.60029 212.82171 
L 242.323194 207.106367 
L 243.226823 197.899816 
L 244.311178 184.417064 
L 246.118436 158.502409 
L 248.287146 127.806699 
L 249.371501 115.08177 
L 250.27513 106.703452 
L 250.998033 101.752146 
L 251.540211 99.163361 
L 252.082388 97.58982 
L 252.44384 97.118008 
L 252.624566 97.057404 
L 252.805292 97.114034 
L 253.166743 97.576835 
L 253.528195 98.502271 
L 254.070372 100.743562 
L 254.61255 103.972418 
L 255.335453 109.715911 
L 256.239082 118.952564 
L 257.323437 132.462164 
L 259.130696 158.394793 
L 261.299406 189.065015 
L 262.38376 201.759576 
L 263.28739 210.105179 
L 264.010293 215.026894 
L 264.55247 217.591951 
L 265.094648 219.141489 
L 265.4561 219.595671 
L 265.636825 219.648087 
L 265.998277 219.402592 
L 266.359729 218.691176 
L 266.540455 218.162702 
L 266.540455 218.162702 
" clip-path="url(#paf5c4ea83e)" style="fill: none; stroke: #287a8c; stroke-width: 2.25; stroke-linecap: round"/>
   </g>
   <g id="line2d_13">
    <path d="M 84.549545 158.352723 
L 84.910997 158.222661 
L 85.272449 157.524412 
L 85.6339 156.052845 
L 86.176078 152.337423 
L 86.718255 146.929912 
L 87.441159 137.462139 
L 88.525514 119.641366 
L 92.501482 49.522151 
L 93.405111 39.272431 
L 93.947289 34.998222 
L 94.489466 32.28502 
L 94.850918 31.390486 
L 95.031643 31.224545 
L 95.212369 31.248605 
L 95.393095 31.465364 
L 95.754547 32.478444 
L 96.115998 34.262596 
L 96.658176 38.379289 
L 97.200353 44.187104 
L 97.923257 54.436701 
L 98.826886 70.908722 
L 99.911241 95.127624 
L 101.537773 137.352595 
L 104.248661 208.265079 
L 105.333016 231.429268 
L 106.236645 246.681183 
L 106.959548 255.720472 
L 107.501726 260.477883 
L 108.043903 263.41515 
L 108.405355 264.337441 
L 108.586081 264.485281 
L 108.766806 264.424779 
L 108.947532 264.156329 
L 109.308984 262.996722 
L 109.670436 261.015353 
L 110.212613 256.541301 
L 110.935516 247.904477 
L 111.65842 236.468985 
L 112.562049 218.787688 
L 113.82713 189.281162 
L 117.983824 87.406734 
L 118.887453 71.242167 
L 119.610356 61.235034 
L 120.333259 54.165822 
L 120.875437 50.926717 
L 121.236889 49.782583 
L 121.417614 49.519925 
L 121.59834 49.465076 
L 121.779066 49.617098 
L 122.140518 50.538005 
L 122.501969 52.275298 
L 123.044147 56.387782 
L 123.586324 62.242057 
L 124.309228 72.580632 
L 125.212857 89.118452 
L 126.297212 113.208588 
L 128.10447 159.265867 
L 130.27318 213.490709 
L 131.357535 235.834164 
L 132.261164 250.461246 
L 132.984067 259.0359 
L 133.526245 263.464654 
L 134.068422 266.08945 
L 134.429874 266.813346 
L 134.6106 266.864228 
L 134.791326 266.708471 
L 135.152777 265.779418 
L 135.514229 264.030696 
L 136.056407 259.901847 
L 136.598584 254.030825 
L 137.321487 243.671455 
L 138.225116 227.112278 
L 139.309471 203.008089 
L 141.11673 156.964362 
L 143.28544 102.825956 
L 144.369795 80.552334 
L 145.273424 65.994023 
L 145.996327 57.479704 
L 146.538505 53.098296 
L 147.080682 50.522588 
L 147.442134 49.829718 
L 147.62286 49.79452 
L 147.803585 49.966499 
L 148.165037 50.928334 
L 148.526489 52.70832 
L 149.068666 56.883395 
L 149.610844 62.79807 
L 150.333747 73.210751 
L 151.237376 89.826653 
L 152.321731 113.981811 
L 154.128989 160.061307 
L 156.297699 214.157513 
L 157.382054 236.378422 
L 158.285683 250.879689 
L 159.008587 259.342218 
L 159.550764 263.682008 
L 160.092942 266.215937 
L 160.454393 266.877575 
L 160.635119 266.897992 
L 160.815845 266.712007 
L 161.177297 265.722277 
L 161.538748 263.912794 
L 162.080926 259.696097 
L 162.623103 253.741765 
L 163.346007 243.280197 
L 164.249636 226.612122 
L 165.333991 202.411221 
L 167.141249 156.30329 
L 169.309959 102.256536 
L 170.394314 80.09116 
L 171.297943 65.648373 
L 172.020846 57.238931 
L 172.563024 52.941317 
L 173.105201 50.45211 
L 173.466653 49.818328 
L 173.647379 49.812857 
L 173.828105 50.014255 
L 174.189556 51.034298 
L 174.551008 52.87214 
L 175.093185 57.131317 
L 175.635363 63.126149 
L 176.358266 73.636872 
L 177.261895 90.357065 
L 178.526976 118.984004 
L 180.876412 179.570737 
L 182.502944 218.73611 
L 183.587299 240.049071 
L 184.490929 253.599244 
L 185.213832 261.205582 
L 185.756009 264.86389 
L 186.117461 266.291637 
L 186.478913 266.893994 
L 186.659638 266.884968 
L 186.840364 266.669604 
L 187.201816 265.620985 
L 187.563268 263.753409 
L 188.105445 259.451982 
L 188.828348 251.037238 
L 189.551252 239.800833 
L 190.454881 222.315629 
L 191.719962 192.946027 
L 196.057382 86.445369 
L 196.961011 70.531352 
L 197.683914 60.773919 
L 198.406817 53.98759 
L 198.948995 50.976281 
L 199.310446 49.988438 
L 199.491172 49.805078 
L 199.671898 49.829255 
L 199.852624 50.060143 
L 200.214076 51.138753 
L 200.575527 53.034686 
L 201.117705 57.378308 
L 201.840608 65.845783 
L 202.563511 77.129747 
L 203.46714 94.664635 
L 204.732221 124.081246 
L 209.069641 230.51437 
L 209.97327 246.373817 
L 210.696174 256.080472 
L 211.419077 262.811582 
L 211.961254 265.780017 
L 212.322706 266.73726 
L 212.503432 266.905381 
L 212.684158 266.866875 
L 212.864884 266.622081 
L 213.226335 265.514635 
L 213.587787 263.589133 
L 214.129964 259.203215 
L 214.852868 250.682743 
L 215.575771 239.351425 
L 216.4794 221.76709 
L 217.744481 192.303302 
L 222.081901 85.939299 
L 222.98553 70.134797 
L 223.708433 60.47885 
L 224.431337 53.802994 
L 224.973514 50.878501 
L 225.334966 49.949517 
L 225.515692 49.795875 
L 225.696417 49.84964 
L 225.877143 50.109992 
L 226.238595 51.247167 
L 226.600046 53.201131 
L 227.142224 57.629071 
L 227.865127 66.202121 
L 228.588031 77.580791 
L 229.49166 95.214451 
L 230.756741 124.724665 
L 235.09416 231.019065 
L 235.99779 246.768657 
L 236.720693 256.373582 
L 237.443596 262.994048 
L 237.985774 265.875794 
L 238.347225 266.773943 
L 238.527951 266.912527 
L 238.708677 266.844534 
L 238.889403 266.570302 
L 239.250854 265.404061 
L 239.612306 263.420726 
L 240.154484 258.950492 
L 240.877387 250.324628 
L 241.60029 238.898838 
L 242.503919 221.216051 
L 243.769 191.659234 
L 247.925694 89.017427 
L 248.829323 72.565091 
L 249.552227 62.306023 
L 250.27513 54.971367 
L 250.817307 51.527718 
L 251.178759 50.246732 
L 251.540211 49.790882 
L 251.720937 49.874211 
L 252.082388 50.659451 
L 252.44384 52.264295 
L 252.986017 56.183978 
L 253.528195 61.855172 
L 254.251098 71.969328 
L 255.154727 88.26637 
L 256.239082 112.138255 
L 258.046341 158.031648 
L 260.215051 212.406414 
L 261.299406 234.953239 
L 262.203035 249.801879 
L 262.925938 258.580013 
L 263.468115 263.172429 
L 264.010293 265.967385 
L 264.371745 266.806402 
L 264.55247 266.915455 
L 264.733196 266.817979 
L 265.094648 266.004743 
L 265.4561 264.369745 
L 265.998277 260.407774 
L 266.540455 254.695836 
L 266.540455 254.695836 
" clip-path="url(#paf5c4ea83e)" style="fill: none; stroke: #40908e; stroke-width: 2.25; stroke-linecap: round"/>
   </g>
   <g id="patch_3">
    <path d="M 75.45 278.7 
L 75.45 19.44 
" style="fill: none; stroke: #262626; stroke-width: 1.875; stroke-linejoin: miter; stroke-linecap: square"/>
   </g>
   <g id="patch_4">
    <path d="M 75.45 278.7 
L 275.64 278.7 
" style="fill: none; stroke: #262626; stroke-width: 1.875; stroke-linejoin: miter; stroke-linecap: square"/>
   </g>
   <g id="legend_1">
    <g id="text_12">
     <!-- RMA Half-Life (hr) -->
     <g style="fill: #262626" transform="translate(290.49 47.393438) scale(0.18 -0.18)">
      <defs>
       <path id="ArialMT-48" d="M 513 0 
L 513 4581 
L 1119 4581 
L 1119 2700 
L 3500 2700 
L 3500 4581 
L 4106 4581 
L 4106 0 
L 3500 0 
L 3500 2159 
L 1119 2159 
L 1119 0 
L 513 0 
z
" transform="scale(0.015625)"/>
       <path id="ArialMT-66" d="M 556 0 
L 556 2881 
L 59 2881 
L 59 3319 
L 556 3319 
L 556 3672 
Q 556 4006 616 4169 
Q 697 4388 901 4523 
Q 1106 4659 1475 4659 
Q 1713 4659 2000 4603 
L 1916 4113 
Q 1741 4144 1584 4144 
Q 1328 4144 1222 4034 
Q 1116 3925 1116 3625 
L 1116 3319 
L 1763 3319 
L 1763 2881 
L 1116 2881 
L 1116 0 
L 556 0 
z
" transform="scale(0.015625)"/>
       <path id="ArialMT-2d" d="M 203 1375 
L 203 1941 
L 1931 1941 
L 1931 1375 
L 203 1375 
z
" transform="scale(0.015625)"/>
       <path id="ArialMT-4c" d="M 469 0 
L 469 4581 
L 1075 4581 
L 1075 541 
L 3331 541 
L 3331 0 
L 469 0 
z
" transform="scale(0.015625)"/>
      </defs>
      <use xlink:href="#ArialMT-52"/>
      <use xlink:href="#ArialMT-4d" transform="translate(72.216797 0)"/>
      <use xlink:href="#ArialMT-41" transform="translate(155.517578 0)"/>
      <use xlink:href="#ArialMT-20" transform="translate(216.716797 0)"/>
      <use xlink:href="#ArialMT-48" transform="translate(244.5 0)"/>
      <use xlink:href="#ArialMT-61" transform="translate(316.716797 0)"/>
      <use xlink:href="#ArialMT-6c" transform="translate(372.332031 0)"/>
      <use xlink:href="#ArialMT-66" transform="translate(394.548828 0)"/>
      <use xlink:href="#ArialMT-2d" transform="translate(422.332031 0)"/>
      <use xlink:href="#ArialMT-4c" transform="translate(455.632812 0)"/>
      <use xlink:href="#ArialMT-69" transform="translate(511.248047 0)"/>
      <use xlink:href="#ArialMT-66" transform="translate(533.464844 0)"/>
      <use xlink:href="#ArialMT-65" transform="translate(561.248047 0)"/>
      <use xlink:href="#ArialMT-20" transform="translate(616.863281 0)"/>
      <use xlink:href="#ArialMT-28" transform="translate(644.646484 0)"/>
      <use xlink:href="#ArialMT-68" transform="translate(677.947266 0)"/>
      <use xlink:href="#ArialMT-72" transform="translate(733.5625 0)"/>
      <use xlink:href="#ArialMT-29" transform="translate(766.863281 0)"/>
     </g>
    </g>
    <g id="line2d_14">
     <path d="M 323.345977 65.467266 
L 339.845977 65.467266 
L 356.345977 65.467266 
" style="fill: none; stroke: #254b7f; stroke-width: 2.25; stroke-linecap: round"/>
    </g>
    <g id="text_13">
     <!-- 100 -->
     <g style="fill: #262626" transform="translate(369.545977 71.242266) scale(0.165 -0.165)">
      <use xlink:href="#ArialMT-31"/>
      <use xlink:href="#ArialMT-30" transform="translate(55.615234 0)"/>
      <use xlink:href="#ArialMT-30" transform="translate(111.230469 0)"/>
     </g>
    </g>
    <g id="line2d_15">
     <path d="M 323.345977 88.807031 
L 339.845977 88.807031 
L 356.345977 88.807031 
" style="fill: none; stroke: #1c6488; stroke-width: 2.25; stroke-linecap: round"/>
    </g>
    <g id="text_14">
     <!-- 50 -->
     <g style="fill: #262626" transform="translate(369.545977 94.582031) scale(0.165 -0.165)">
      <defs>
       <path id="ArialMT-35" d="M 266 1200 
L 856 1250 
Q 922 819 1161 601 
Q 1400 384 1738 384 
Q 2144 384 2425 690 
Q 2706 997 2706 1503 
Q 2706 1984 2436 2262 
Q 2166 2541 1728 2541 
Q 1456 2541 1237 2417 
Q 1019 2294 894 2097 
L 366 2166 
L 809 4519 
L 3088 4519 
L 3088 3981 
L 1259 3981 
L 1013 2750 
Q 1425 3038 1878 3038 
Q 2478 3038 2890 2622 
Q 3303 2206 3303 1553 
Q 3303 931 2941 478 
Q 2500 -78 1738 -78 
Q 1113 -78 717 272 
Q 322 622 266 1200 
z
" transform="scale(0.015625)"/>
      </defs>
      <use xlink:href="#ArialMT-35"/>
      <use xlink:href="#ArialMT-30" transform="translate(55.615234 0)"/>
     </g>
    </g>
    <g id="line2d_16">
     <path d="M 323.345977 112.146797 
L 339.845977 112.146797 
L 356.345977 112.146797 
" style="fill: none; stroke: #287a8c; stroke-width: 2.25; stroke-linecap: round"/>
    </g>
    <g id="text_15">
     <!-- 25 -->
     <g style="fill: #262626" transform="translate(369.545977 117.921797) scale(0.165 -0.165)">
      <use xlink:href="#ArialMT-32"/>
      <use xlink:href="#ArialMT-35" transform="translate(55.615234 0)"/>
     </g>
    </g>
    <g id="line2d_17">
     <path d="M 323.345977 135.486563 
L 339.845977 135.486563 
L 356.345977 135.486563 
" style="fill: none; stroke: #40908e; stroke-width: 2.25; stroke-linecap: round"/>
    </g>
    <g id="text_16">
     <!-- 12.5 -->
     <g style="fill: #262626" transform="translate(369.545977 141.261563) scale(0.165 -0.165)">
      <use xlink:href="#ArialMT-31"/>
      <use xlink:href="#ArialMT-32" transform="translate(55.615234 0)"/>
      <use xlink:href="#ArialMT-2e" transform="translate(111.230469 0)"/>
      <use xlink:href="#ArialMT-35" transform="translate(139.013672 0)"/>
     </g>
    </g>
   </g>
  </g>
 </g>
 <defs>
  <clipPath id="paf5c4ea83e">
   <rect x="75.45" y="19.44" width="200.19" height="259.26"/>
  </clipPath>
 </defs>
</svg>
