<?xml version="1.0" encoding="utf-8" standalone="no"?>
<!DOCTYPE svg PUBLIC "-//W3C//DTD SVG 1.1//EN"
  "http://www.w3.org/Graphics/SVG/1.1/DTD/svg11.dtd">
<svg xmlns:xlink="http://www.w3.org/1999/xlink" width="864pt" height="576pt" viewBox="0 0 864 576" xmlns="http://www.w3.org/2000/svg" version="1.1">
 <metadata>
  <rdf:RDF xmlns:dc="http://purl.org/dc/elements/1.1/" xmlns:cc="http://creativecommons.org/ns#" xmlns:rdf="http://www.w3.org/1999/02/22-rdf-syntax-ns#">
   <cc:Work>
    <dc:type rdf:resource="http://purl.org/dc/dcmitype/StillImage"/>
    <dc:date>2025-06-16T20:30:11.461190</dc:date>
    <dc:format>image/svg+xml</dc:format>
    <dc:creator>
     <cc:Agent>
      <dc:title>Matplotlib v3.10.3, https://matplotlib.org/</dc:title>
     </cc:Agent>
    </dc:creator>
   </cc:Work>
  </rdf:RDF>
 </metadata>
 <defs>
  <style type="text/css">*{stroke-linejoin: round; stroke-linecap: butt}</style>
 </defs>
 <g id="figure_1">
  <g id="patch_1">
   <path d="M 0 576 
L 864 576 
L 864 0 
L 0 0 
z
" style="fill: #ffffff"/>
  </g>
  <g id="axes_1">
   <g id="patch_2">
    <path d="M 95.07 248.61 
L 427.455 248.61 
L 427.455 19.44 
L 95.07 19.44 
z
" style="fill: #ffffff"/>
   </g>
   <g id="matplotlib.axis_1">
    <g id="xtick_1">
     <g id="line2d_1">
      <defs>
       <path id="m0101b49622" d="M 0 0 
L 0 9 
" style="stroke: #000000; stroke-width: 1.875"/>
      </defs>
      <g>
       <use xlink:href="#m0101b49622" x="110.178409" y="248.61" style="stroke: #000000; stroke-width: 1.875"/>
      </g>
     </g>
    </g>
    <g id="xtick_2">
     <g id="line2d_2">
      <g>
       <use xlink:href="#m0101b49622" x="210.901136" y="248.61" style="stroke: #000000; stroke-width: 1.875"/>
      </g>
     </g>
    </g>
    <g id="xtick_3">
     <g id="line2d_3">
      <g>
       <use xlink:href="#m0101b49622" x="311.623864" y="248.61" style="stroke: #000000; stroke-width: 1.875"/>
      </g>
     </g>
    </g>
    <g id="xtick_4">
     <g id="line2d_4">
      <g>
       <use xlink:href="#m0101b49622" x="412.346591" y="248.61" style="stroke: #000000; stroke-width: 1.875"/>
      </g>
     </g>
    </g>
   </g>
   <g id="matplotlib.axis_2">
    <g id="ytick_1">
     <g id="line2d_5">
      <defs>
       <path id="mb5b140de44" d="M 0 0 
L -9 0 
" style="stroke: #000000; stroke-width: 1.875"/>
      </defs>
      <g>
       <use xlink:href="#mb5b140de44" x="95.07" y="238.193182" style="stroke: #000000; stroke-width: 1.875"/>
      </g>
     </g>
     <g id="text_1">
      <!-- 0 -->
      <g transform="translate(72.071875 244.461893) scale(0.165 -0.165)">
       <defs>
        <path id="DejaVuSans-30" d="M 2034 4250 
Q 1547 4250 1301 3770 
Q 1056 3291 1056 2328 
Q 1056 1369 1301 889 
Q 1547 409 2034 409 
Q 2525 409 2770 889 
Q 3016 1369 3016 2328 
Q 3016 3291 2770 3770 
Q 2525 4250 2034 4250 
z
M 2034 4750 
Q 2819 4750 3233 4129 
Q 3647 3509 3647 2328 
Q 3647 1150 3233 529 
Q 2819 -91 2034 -91 
Q 1250 -91 836 529 
Q 422 1150 422 2328 
Q 422 3509 836 4129 
Q 1250 4750 2034 4750 
z
" transform="scale(0.015625)"/>
       </defs>
       <use xlink:href="#DejaVuSans-30"/>
      </g>
     </g>
    </g>
    <g id="ytick_2">
     <g id="line2d_6">
      <g>
       <use xlink:href="#mb5b140de44" x="95.07" y="187.378606" style="stroke: #000000; stroke-width: 1.875"/>
      </g>
     </g>
     <g id="text_2">
      <!-- 2000 -->
      <g transform="translate(40.5775 193.647317) scale(0.165 -0.165)">
       <defs>
        <path id="DejaVuSans-32" d="M 1228 531 
L 3431 531 
L 3431 0 
L 469 0 
L 469 531 
Q 828 903 1448 1529 
Q 2069 2156 2228 2338 
Q 2531 2678 2651 2914 
Q 2772 3150 2772 3378 
Q 2772 3750 2511 3984 
Q 2250 4219 1831 4219 
Q 1534 4219 1204 4116 
Q 875 4013 500 3803 
L 500 4441 
Q 881 4594 1212 4672 
Q 1544 4750 1819 4750 
Q 2544 4750 2975 4387 
Q 3406 4025 3406 3419 
Q 3406 3131 3298 2873 
Q 3191 2616 2906 2266 
Q 2828 2175 2409 1742 
Q 1991 1309 1228 531 
z
" transform="scale(0.015625)"/>
       </defs>
       <use xlink:href="#DejaVuSans-32"/>
       <use xlink:href="#DejaVuSans-30" transform="translate(63.623047 0)"/>
       <use xlink:href="#DejaVuSans-30" transform="translate(127.246094 0)"/>
       <use xlink:href="#DejaVuSans-30" transform="translate(190.869141 0)"/>
      </g>
     </g>
    </g>
    <g id="ytick_3">
     <g id="line2d_7">
      <g>
       <use xlink:href="#mb5b140de44" x="95.07" y="136.56403" style="stroke: #000000; stroke-width: 1.875"/>
      </g>
     </g>
     <g id="text_3">
      <!-- 4000 -->
      <g transform="translate(40.5775 142.832741) scale(0.165 -0.165)">
       <defs>
        <path id="DejaVuSans-34" d="M 2419 4116 
L 825 1625 
L 2419 1625 
L 2419 4116 
z
M 2253 4666 
L 3047 4666 
L 3047 1625 
L 3713 1625 
L 3713 1100 
L 3047 1100 
L 3047 0 
L 2419 0 
L 2419 1100 
L 313 1100 
L 313 1709 
L 2253 4666 
z
" transform="scale(0.015625)"/>
       </defs>
       <use xlink:href="#DejaVuSans-34"/>
       <use xlink:href="#DejaVuSans-30" transform="translate(63.623047 0)"/>
       <use xlink:href="#DejaVuSans-30" transform="translate(127.246094 0)"/>
       <use xlink:href="#DejaVuSans-30" transform="translate(190.869141 0)"/>
      </g>
     </g>
    </g>
    <g id="ytick_4">
     <g id="line2d_8">
      <g>
       <use xlink:href="#mb5b140de44" x="95.07" y="85.749455" style="stroke: #000000; stroke-width: 1.875"/>
      </g>
     </g>
     <g id="text_4">
      <!-- 6000 -->
      <g transform="translate(40.5775 92.018165) scale(0.165 -0.165)">
       <defs>
        <path id="DejaVuSans-36" d="M 2113 2584 
Q 1688 2584 1439 2293 
Q 1191 2003 1191 1497 
Q 1191 994 1439 701 
Q 1688 409 2113 409 
Q 2538 409 2786 701 
Q 3034 994 3034 1497 
Q 3034 2003 2786 2293 
Q 2538 2584 2113 2584 
z
M 3366 4563 
L 3366 3988 
Q 3128 4100 2886 4159 
Q 2644 4219 2406 4219 
Q 1781 4219 1451 3797 
Q 1122 3375 1075 2522 
Q 1259 2794 1537 2939 
Q 1816 3084 2150 3084 
Q 2853 3084 3261 2657 
Q 3669 2231 3669 1497 
Q 3669 778 3244 343 
Q 2819 -91 2113 -91 
Q 1303 -91 875 529 
Q 447 1150 447 2328 
Q 447 3434 972 4092 
Q 1497 4750 2381 4750 
Q 2619 4750 2861 4703 
Q 3103 4656 3366 4563 
z
" transform="scale(0.015625)"/>
       </defs>
       <use xlink:href="#DejaVuSans-36"/>
       <use xlink:href="#DejaVuSans-30" transform="translate(63.623047 0)"/>
       <use xlink:href="#DejaVuSans-30" transform="translate(127.246094 0)"/>
       <use xlink:href="#DejaVuSans-30" transform="translate(190.869141 0)"/>
      </g>
     </g>
    </g>
    <g id="ytick_5">
     <g id="line2d_9">
      <g>
       <use xlink:href="#mb5b140de44" x="95.07" y="34.934879" style="stroke: #000000; stroke-width: 1.875"/>
      </g>
     </g>
     <g id="text_5">
      <!-- 8000 -->
      <g transform="translate(40.5775 41.20359) scale(0.165 -0.165)">
       <defs>
        <path id="DejaVuSans-38" d="M 2034 2216 
Q 1584 2216 1326 1975 
Q 1069 1734 1069 1313 
Q 1069 891 1326 650 
Q 1584 409 2034 409 
Q 2484 409 2743 651 
Q 3003 894 3003 1313 
Q 3003 1734 2745 1975 
Q 2488 2216 2034 2216 
z
M 1403 2484 
Q 997 2584 770 2862 
Q 544 3141 544 3541 
Q 544 4100 942 4425 
Q 1341 4750 2034 4750 
Q 2731 4750 3128 4425 
Q 3525 4100 3525 3541 
Q 3525 3141 3298 2862 
Q 3072 2584 2669 2484 
Q 3125 2378 3379 2068 
Q 3634 1759 3634 1313 
Q 3634 634 3220 271 
Q 2806 -91 2034 -91 
Q 1263 -91 848 271 
Q 434 634 434 1313 
Q 434 1759 690 2068 
Q 947 2378 1403 2484 
z
M 1172 3481 
Q 1172 3119 1398 2916 
Q 1625 2713 2034 2713 
Q 2441 2713 2670 2916 
Q 2900 3119 2900 3481 
Q 2900 3844 2670 4047 
Q 2441 4250 2034 4250 
Q 1625 4250 1398 4047 
Q 1172 3844 1172 3481 
z
" transform="scale(0.015625)"/>
       </defs>
       <use xlink:href="#DejaVuSans-38"/>
       <use xlink:href="#DejaVuSans-30" transform="translate(63.623047 0)"/>
       <use xlink:href="#DejaVuSans-30" transform="translate(127.246094 0)"/>
       <use xlink:href="#DejaVuSans-30" transform="translate(190.869141 0)"/>
      </g>
     </g>
    </g>
    <g id="text_6">
     <!-- Plasma CNO (nM) -->
     <g transform="translate(32.834063 212.7525) rotate(-90) scale(0.18 -0.18)">
      <defs>
       <path id="DejaVuSans-50" d="M 1259 4147 
L 1259 2394 
L 2053 2394 
Q 2494 2394 2734 2622 
Q 2975 2850 2975 3272 
Q 2975 3691 2734 3919 
Q 2494 4147 2053 4147 
L 1259 4147 
z
M 628 4666 
L 2053 4666 
Q 2838 4666 3239 4311 
Q 3641 3956 3641 3272 
Q 3641 2581 3239 2228 
Q 2838 1875 2053 1875 
L 1259 1875 
L 1259 0 
L 628 0 
L 628 4666 
z
" transform="scale(0.015625)"/>
       <path id="DejaVuSans-6c" d="M 603 4863 
L 1178 4863 
L 1178 0 
L 603 0 
L 603 4863 
z
" transform="scale(0.015625)"/>
       <path id="DejaVuSans-61" d="M 2194 1759 
Q 1497 1759 1228 1600 
Q 959 1441 959 1056 
Q 959 750 1161 570 
Q 1363 391 1709 391 
Q 2188 391 2477 730 
Q 2766 1069 2766 1631 
L 2766 1759 
L 2194 1759 
z
M 3341 1997 
L 3341 0 
L 2766 0 
L 2766 531 
Q 2569 213 2275 61 
Q 1981 -91 1556 -91 
Q 1019 -91 701 211 
Q 384 513 384 1019 
Q 384 1609 779 1909 
Q 1175 2209 1959 2209 
L 2766 2209 
L 2766 2266 
Q 2766 2663 2505 2880 
Q 2244 3097 1772 3097 
Q 1472 3097 1187 3025 
Q 903 2953 641 2809 
L 641 3341 
Q 956 3463 1253 3523 
Q 1550 3584 1831 3584 
Q 2591 3584 2966 3190 
Q 3341 2797 3341 1997 
z
" transform="scale(0.015625)"/>
       <path id="DejaVuSans-73" d="M 2834 3397 
L 2834 2853 
Q 2591 2978 2328 3040 
Q 2066 3103 1784 3103 
Q 1356 3103 1142 2972 
Q 928 2841 928 2578 
Q 928 2378 1081 2264 
Q 1234 2150 1697 2047 
L 1894 2003 
Q 2506 1872 2764 1633 
Q 3022 1394 3022 966 
Q 3022 478 2636 193 
Q 2250 -91 1575 -91 
Q 1294 -91 989 -36 
Q 684 19 347 128 
L 347 722 
Q 666 556 975 473 
Q 1284 391 1588 391 
Q 1994 391 2212 530 
Q 2431 669 2431 922 
Q 2431 1156 2273 1281 
Q 2116 1406 1581 1522 
L 1381 1569 
Q 847 1681 609 1914 
Q 372 2147 372 2553 
Q 372 3047 722 3315 
Q 1072 3584 1716 3584 
Q 2034 3584 2315 3537 
Q 2597 3491 2834 3397 
z
" transform="scale(0.015625)"/>
       <path id="DejaVuSans-6d" d="M 3328 2828 
Q 3544 3216 3844 3400 
Q 4144 3584 4550 3584 
Q 5097 3584 5394 3201 
Q 5691 2819 5691 2113 
L 5691 0 
L 5113 0 
L 5113 2094 
Q 5113 2597 4934 2840 
Q 4756 3084 4391 3084 
Q 3944 3084 3684 2787 
Q 3425 2491 3425 1978 
L 3425 0 
L 2847 0 
L 2847 2094 
Q 2847 2600 2669 2842 
Q 2491 3084 2119 3084 
Q 1678 3084 1418 2786 
Q 1159 2488 1159 1978 
L 1159 0 
L 581 0 
L 581 3500 
L 1159 3500 
L 1159 2956 
Q 1356 3278 1631 3431 
Q 1906 3584 2284 3584 
Q 2666 3584 2933 3390 
Q 3200 3197 3328 2828 
z
" transform="scale(0.015625)"/>
       <path id="DejaVuSans-20" transform="scale(0.015625)"/>
       <path id="DejaVuSans-43" d="M 4122 4306 
L 4122 3641 
Q 3803 3938 3442 4084 
Q 3081 4231 2675 4231 
Q 1875 4231 1450 3742 
Q 1025 3253 1025 2328 
Q 1025 1406 1450 917 
Q 1875 428 2675 428 
Q 3081 428 3442 575 
Q 3803 722 4122 1019 
L 4122 359 
Q 3791 134 3420 21 
Q 3050 -91 2638 -91 
Q 1578 -91 968 557 
Q 359 1206 359 2328 
Q 359 3453 968 4101 
Q 1578 4750 2638 4750 
Q 3056 4750 3426 4639 
Q 3797 4528 4122 4306 
z
" transform="scale(0.015625)"/>
       <path id="DejaVuSans-4e" d="M 628 4666 
L 1478 4666 
L 3547 763 
L 3547 4666 
L 4159 4666 
L 4159 0 
L 3309 0 
L 1241 3903 
L 1241 0 
L 628 0 
L 628 4666 
z
" transform="scale(0.015625)"/>
       <path id="DejaVuSans-4f" d="M 2522 4238 
Q 1834 4238 1429 3725 
Q 1025 3213 1025 2328 
Q 1025 1447 1429 934 
Q 1834 422 2522 422 
Q 3209 422 3611 934 
Q 4013 1447 4013 2328 
Q 4013 3213 3611 3725 
Q 3209 4238 2522 4238 
z
M 2522 4750 
Q 3503 4750 4090 4092 
Q 4678 3434 4678 2328 
Q 4678 1225 4090 567 
Q 3503 -91 2522 -91 
Q 1538 -91 948 565 
Q 359 1222 359 2328 
Q 359 3434 948 4092 
Q 1538 4750 2522 4750 
z
" transform="scale(0.015625)"/>
       <path id="DejaVuSans-28" d="M 1984 4856 
Q 1566 4138 1362 3434 
Q 1159 2731 1159 2009 
Q 1159 1288 1364 580 
Q 1569 -128 1984 -844 
L 1484 -844 
Q 1016 -109 783 600 
Q 550 1309 550 2009 
Q 550 2706 781 3412 
Q 1013 4119 1484 4856 
L 1984 4856 
z
" transform="scale(0.015625)"/>
       <path id="DejaVuSans-6e" d="M 3513 2113 
L 3513 0 
L 2938 0 
L 2938 2094 
Q 2938 2591 2744 2837 
Q 2550 3084 2163 3084 
Q 1697 3084 1428 2787 
Q 1159 2491 1159 1978 
L 1159 0 
L 581 0 
L 581 3500 
L 1159 3500 
L 1159 2956 
Q 1366 3272 1645 3428 
Q 1925 3584 2291 3584 
Q 2894 3584 3203 3211 
Q 3513 2838 3513 2113 
z
" transform="scale(0.015625)"/>
       <path id="DejaVuSans-4d" d="M 628 4666 
L 1569 4666 
L 2759 1491 
L 3956 4666 
L 4897 4666 
L 4897 0 
L 4281 0 
L 4281 4097 
L 3078 897 
L 2444 897 
L 1241 4097 
L 1241 0 
L 628 0 
L 628 4666 
z
" transform="scale(0.015625)"/>
       <path id="DejaVuSans-29" d="M 513 4856 
L 1013 4856 
Q 1481 4119 1714 3412 
Q 1947 2706 1947 2009 
Q 1947 1309 1714 600 
Q 1481 -109 1013 -844 
L 513 -844 
Q 928 -128 1133 580 
Q 1338 1288 1338 2009 
Q 1338 2731 1133 3434 
Q 928 4138 513 4856 
z
" transform="scale(0.015625)"/>
      </defs>
      <use xlink:href="#DejaVuSans-50"/>
      <use xlink:href="#DejaVuSans-6c" transform="translate(60.302734 0)"/>
      <use xlink:href="#DejaVuSans-61" transform="translate(88.085938 0)"/>
      <use xlink:href="#DejaVuSans-73" transform="translate(149.365234 0)"/>
      <use xlink:href="#DejaVuSans-6d" transform="translate(201.464844 0)"/>
      <use xlink:href="#DejaVuSans-61" transform="translate(298.876953 0)"/>
      <use xlink:href="#DejaVuSans-20" transform="translate(360.15625 0)"/>
      <use xlink:href="#DejaVuSans-43" transform="translate(391.943359 0)"/>
      <use xlink:href="#DejaVuSans-4e" transform="translate(461.767578 0)"/>
      <use xlink:href="#DejaVuSans-4f" transform="translate(536.572266 0)"/>
      <use xlink:href="#DejaVuSans-20" transform="translate(615.283203 0)"/>
      <use xlink:href="#DejaVuSans-28" transform="translate(647.070312 0)"/>
      <use xlink:href="#DejaVuSans-6e" transform="translate(686.083984 0)"/>
      <use xlink:href="#DejaVuSans-4d" transform="translate(749.462891 0)"/>
      <use xlink:href="#DejaVuSans-29" transform="translate(835.742188 0)"/>
     </g>
    </g>
   </g>
   <g id="line2d_10">
    <path d="M 110.178409 238.193182 
L 112.717638 29.856818 
L 115.256866 33.745185 
L 117.796094 36.863889 
L 120.335323 39.538347 
L 122.874551 41.951976 
L 125.41378 44.208214 
L 127.953008 46.365452 
L 130.492236 48.456709 
L 133.031465 50.50071 
L 135.570693 52.508129 
L 138.109922 54.485105 
L 140.64915 56.435218 
L 143.188379 58.36061 
L 145.727607 60.262607 
L 148.266835 62.14207 
L 150.806064 63.999607 
L 153.345292 65.835678 
L 155.884521 67.65065 
L 158.423749 69.444849 
L 160.962977 71.218566 
L 163.502206 72.972075 
L 166.041434 74.705639 
L 168.580663 76.419513 
L 171.119891 78.113945 
L 173.65912 79.789178 
L 176.198348 81.445454 
L 178.737576 83.083007 
L 181.276805 84.70207 
L 183.816033 86.302871 
L 186.355262 87.885639 
L 188.89449 89.450594 
L 191.433718 90.997957 
L 193.972947 92.527945 
L 196.512175 94.040771 
L 199.051404 95.536647 
L 201.590632 97.015781 
L 204.129861 98.478379 
L 206.669089 99.924642 
L 209.208317 101.354771 
L 211.747546 102.768963 
L 214.286774 104.167412 
L 216.826003 105.550311 
L 219.365231 106.917848 
L 221.90446 108.270212 
L 224.443688 109.607585 
L 226.982916 110.93015 
L 229.522145 112.238087 
L 232.061373 113.531571 
L 234.600602 114.810779 
L 237.13983 116.075882 
L 239.679058 117.327051 
L 242.218287 118.564454 
L 244.757515 119.788255 
L 247.296744 120.998618 
L 249.835972 122.195707 
L 252.375201 123.379676 
L 254.914429 124.550687 
L 257.453657 125.708893 
L 259.992886 126.854446 
L 262.532114 127.987499 
L 265.071343 129.1082 
L 267.610571 130.216694 
L 270.149799 131.31313 
L 272.689028 132.397648 
L 275.228256 133.47039 
L 277.767485 134.531498 
L 280.306713 135.581106 
L 282.845942 136.619352 
L 285.38517 137.64637 
L 287.924398 138.662292 
L 290.463627 139.667247 
L 293.002855 140.661368 
L 295.542084 141.644779 
L 298.081312 142.617606 
L 300.62054 143.579974 
L 303.159769 144.532006 
L 305.698997 145.47382 
L 308.238226 146.405539 
L 310.777454 147.327279 
L 313.316683 148.239155 
L 315.855911 149.141283 
L 318.395139 150.033778 
L 320.934368 150.916749 
L 323.473596 151.790307 
L 326.012825 152.654564 
L 328.552053 153.509624 
L 331.091282 154.355594 
L 333.63051 155.19258 
L 336.169738 156.020686 
L 338.708967 156.840012 
L 341.248195 157.650661 
L 343.787424 158.452733 
L 346.326652 159.246325 
L 348.86588 160.031533 
L 351.405109 160.808457 
L 353.944337 161.577189 
L 356.483566 162.337823 
L 359.022794 163.090451 
L 361.562023 163.835165 
L 364.101251 164.572056 
L 366.640479 165.30121 
L 369.179708 166.022717 
L 371.718936 166.736666 
L 374.258165 167.443138 
L 376.797393 168.14222 
L 379.336621 168.833996 
L 381.87585 169.518548 
L 384.415078 170.195957 
L 386.954307 170.866304 
L 389.493535 171.529669 
L 392.032764 172.186131 
L 394.571992 172.835765 
L 397.11122 173.478649 
L 399.650449 174.114861 
L 402.189677 174.744473 
L 404.728906 175.367559 
L 407.268134 175.984191 
L 409.807362 176.594443 
L 412.346591 177.198385 
" clip-path="url(#pb9dbb20761)" style="fill: none; stroke: #000000; stroke-width: 2.25; stroke-linecap: square"/>
   </g>
   <g id="line2d_11">
    <defs>
     <path id="m5f2fac6527" d="M 0 4.5 
C 1.193414 4.5 2.338109 4.025852 3.181981 3.181981 
C 4.025852 2.338109 4.5 1.193414 4.5 0 
C 4.5 -1.193414 4.025852 -2.338109 3.181981 -3.181981 
C 2.338109 -4.025852 1.193414 -4.5 0 -4.5 
C -1.193414 -4.5 -2.338109 -4.025852 -3.181981 -3.181981 
C -4.025852 -2.338109 -4.5 -1.193414 -4.5 0 
C -4.5 1.193414 -4.025852 2.338109 -3.181981 3.181981 
C -2.338109 4.025852 -1.193414 4.5 0 4.5 
z
" style="stroke: #000000"/>
    </defs>
    <g clip-path="url(#pb9dbb20761)">
     <use xlink:href="#m5f2fac6527" x="185.720455" y="130.049341" style="stroke: #000000"/>
     <use xlink:href="#m5f2fac6527" x="185.720455" y="122.231714" style="stroke: #000000"/>
     <use xlink:href="#m5f2fac6527" x="185.720455" y="110.505273" style="stroke: #000000"/>
     <use xlink:href="#m5f2fac6527" x="185.720455" y="53.176009" style="stroke: #000000"/>
     <use xlink:href="#m5f2fac6527" x="185.720455" y="38.843692" style="stroke: #000000"/>
     <use xlink:href="#m5f2fac6527" x="261.2625" y="176.955103" style="stroke: #000000"/>
     <use xlink:href="#m5f2fac6527" x="261.2625" y="153.502222" style="stroke: #000000"/>
     <use xlink:href="#m5f2fac6527" x="261.2625" y="126.140528" style="stroke: #000000"/>
     <use xlink:href="#m5f2fac6527" x="261.2625" y="126.140528" style="stroke: #000000"/>
     <use xlink:href="#m5f2fac6527" x="261.2625" y="113.111149" style="stroke: #000000"/>
     <use xlink:href="#m5f2fac6527" x="261.2625" y="141.775782" style="stroke: #000000"/>
     <use xlink:href="#m5f2fac6527" x="412.346591" y="209.528549" style="stroke: #000000"/>
     <use xlink:href="#m5f2fac6527" x="412.346591" y="203.01386" style="stroke: #000000"/>
     <use xlink:href="#m5f2fac6527" x="412.346591" y="193.893295" style="stroke: #000000"/>
     <use xlink:href="#m5f2fac6527" x="412.346591" y="174.349228" style="stroke: #000000"/>
     <use xlink:href="#m5f2fac6527" x="412.346591" y="175.652165" style="stroke: #000000"/>
     <use xlink:href="#m5f2fac6527" x="412.346591" y="179.560979" style="stroke: #000000"/>
    </g>
   </g>
   <g id="patch_3">
    <path d="M 95.07 248.61 
L 95.07 19.44 
" style="fill: none; stroke: #000000; stroke-width: 1.875; stroke-linejoin: miter; stroke-linecap: square"/>
   </g>
   <g id="patch_4">
    <path d="M 427.455 248.61 
L 427.455 19.44 
" style="fill: none; stroke: #000000; stroke-width: 1.875; stroke-linejoin: miter; stroke-linecap: square"/>
   </g>
   <g id="patch_5">
    <path d="M 95.07 248.61 
L 427.455 248.61 
" style="fill: none; stroke: #000000; stroke-width: 1.875; stroke-linejoin: miter; stroke-linecap: square"/>
   </g>
   <g id="patch_6">
    <path d="M 95.07 19.44 
L 427.455 19.44 
" style="fill: none; stroke: #000000; stroke-width: 1.875; stroke-linejoin: miter; stroke-linecap: square"/>
   </g>
  </g>
  <g id="axes_2">
   <g id="patch_7">
    <path d="M 512.175 248.61 
L 844.56 248.61 
L 844.56 19.44 
L 512.175 19.44 
z
" style="fill: #ffffff"/>
   </g>
   <g id="matplotlib.axis_3">
    <g id="xtick_5">
     <g id="line2d_12">
      <g>
       <use xlink:href="#m0101b49622" x="527.283409" y="248.61" style="stroke: #000000; stroke-width: 1.875"/>
      </g>
     </g>
    </g>
    <g id="xtick_6">
     <g id="line2d_13">
      <g>
       <use xlink:href="#m0101b49622" x="628.006136" y="248.61" style="stroke: #000000; stroke-width: 1.875"/>
      </g>
     </g>
    </g>
    <g id="xtick_7">
     <g id="line2d_14">
      <g>
       <use xlink:href="#m0101b49622" x="728.728864" y="248.61" style="stroke: #000000; stroke-width: 1.875"/>
      </g>
     </g>
    </g>
    <g id="xtick_8">
     <g id="line2d_15">
      <g>
       <use xlink:href="#m0101b49622" x="829.451591" y="248.61" style="stroke: #000000; stroke-width: 1.875"/>
      </g>
     </g>
    </g>
   </g>
   <g id="matplotlib.axis_4">
    <g id="ytick_6">
     <g id="line2d_16">
      <g>
       <use xlink:href="#mb5b140de44" x="512.175" y="238.193182" style="stroke: #000000; stroke-width: 1.875"/>
      </g>
     </g>
     <g id="text_7">
      <!-- 0 -->
      <g transform="translate(489.176875 244.461893) scale(0.165 -0.165)">
       <use xlink:href="#DejaVuSans-30"/>
      </g>
     </g>
    </g>
    <g id="ytick_7">
     <g id="line2d_17">
      <g>
       <use xlink:href="#mb5b140de44" x="512.175" y="186.448652" style="stroke: #000000; stroke-width: 1.875"/>
      </g>
     </g>
     <g id="text_8">
      <!-- 50 -->
      <g transform="translate(478.67875 192.717363) scale(0.165 -0.165)">
       <defs>
        <path id="DejaVuSans-35" d="M 691 4666 
L 3169 4666 
L 3169 4134 
L 1269 4134 
L 1269 2991 
Q 1406 3038 1543 3061 
Q 1681 3084 1819 3084 
Q 2600 3084 3056 2656 
Q 3513 2228 3513 1497 
Q 3513 744 3044 326 
Q 2575 -91 1722 -91 
Q 1428 -91 1123 -41 
Q 819 9 494 109 
L 494 744 
Q 775 591 1075 516 
Q 1375 441 1709 441 
Q 2250 441 2565 725 
Q 2881 1009 2881 1497 
Q 2881 1984 2565 2268 
Q 2250 2553 1709 2553 
Q 1456 2553 1204 2497 
Q 953 2441 691 2322 
L 691 4666 
z
" transform="scale(0.015625)"/>
       </defs>
       <use xlink:href="#DejaVuSans-35"/>
       <use xlink:href="#DejaVuSans-30" transform="translate(63.623047 0)"/>
      </g>
     </g>
    </g>
    <g id="ytick_8">
     <g id="line2d_18">
      <g>
       <use xlink:href="#mb5b140de44" x="512.175" y="134.704122" style="stroke: #000000; stroke-width: 1.875"/>
      </g>
     </g>
     <g id="text_9">
      <!-- 100 -->
      <g transform="translate(468.180625 140.972833) scale(0.165 -0.165)">
       <defs>
        <path id="DejaVuSans-31" d="M 794 531 
L 1825 531 
L 1825 4091 
L 703 3866 
L 703 4441 
L 1819 4666 
L 2450 4666 
L 2450 531 
L 3481 531 
L 3481 0 
L 794 0 
L 794 531 
z
" transform="scale(0.015625)"/>
       </defs>
       <use xlink:href="#DejaVuSans-31"/>
       <use xlink:href="#DejaVuSans-30" transform="translate(63.623047 0)"/>
       <use xlink:href="#DejaVuSans-30" transform="translate(127.246094 0)"/>
      </g>
     </g>
    </g>
    <g id="ytick_9">
     <g id="line2d_19">
      <g>
       <use xlink:href="#mb5b140de44" x="512.175" y="82.959592" style="stroke: #000000; stroke-width: 1.875"/>
      </g>
     </g>
     <g id="text_10">
      <!-- 150 -->
      <g transform="translate(468.180625 89.228303) scale(0.165 -0.165)">
       <use xlink:href="#DejaVuSans-31"/>
       <use xlink:href="#DejaVuSans-35" transform="translate(63.623047 0)"/>
       <use xlink:href="#DejaVuSans-30" transform="translate(127.246094 0)"/>
      </g>
     </g>
    </g>
    <g id="ytick_10">
     <g id="line2d_20">
      <g>
       <use xlink:href="#mb5b140de44" x="512.175" y="31.215062" style="stroke: #000000; stroke-width: 1.875"/>
      </g>
     </g>
     <g id="text_11">
      <!-- 200 -->
      <g transform="translate(468.180625 37.483773) scale(0.165 -0.165)">
       <use xlink:href="#DejaVuSans-32"/>
       <use xlink:href="#DejaVuSans-30" transform="translate(63.623047 0)"/>
       <use xlink:href="#DejaVuSans-30" transform="translate(127.246094 0)"/>
      </g>
     </g>
    </g>
    <g id="text_12">
     <!-- Plasma CLZ (nM) -->
     <g transform="translate(460.437187 210.114375) rotate(-90) scale(0.18 -0.18)">
      <defs>
       <path id="DejaVuSans-4c" d="M 628 4666 
L 1259 4666 
L 1259 531 
L 3531 531 
L 3531 0 
L 628 0 
L 628 4666 
z
" transform="scale(0.015625)"/>
       <path id="DejaVuSans-5a" d="M 359 4666 
L 4025 4666 
L 4025 4184 
L 1075 531 
L 4097 531 
L 4097 0 
L 288 0 
L 288 481 
L 3238 4134 
L 359 4134 
L 359 4666 
z
" transform="scale(0.015625)"/>
      </defs>
      <use xlink:href="#DejaVuSans-50"/>
      <use xlink:href="#DejaVuSans-6c" transform="translate(60.302734 0)"/>
      <use xlink:href="#DejaVuSans-61" transform="translate(88.085938 0)"/>
      <use xlink:href="#DejaVuSans-73" transform="translate(149.365234 0)"/>
      <use xlink:href="#DejaVuSans-6d" transform="translate(201.464844 0)"/>
      <use xlink:href="#DejaVuSans-61" transform="translate(298.876953 0)"/>
      <use xlink:href="#DejaVuSans-20" transform="translate(360.15625 0)"/>
      <use xlink:href="#DejaVuSans-43" transform="translate(391.943359 0)"/>
      <use xlink:href="#DejaVuSans-4c" transform="translate(461.767578 0)"/>
      <use xlink:href="#DejaVuSans-5a" transform="translate(517.480469 0)"/>
      <use xlink:href="#DejaVuSans-20" transform="translate(585.986328 0)"/>
      <use xlink:href="#DejaVuSans-28" transform="translate(617.773438 0)"/>
      <use xlink:href="#DejaVuSans-6e" transform="translate(656.787109 0)"/>
      <use xlink:href="#DejaVuSans-4d" transform="translate(720.166016 0)"/>
      <use xlink:href="#DejaVuSans-29" transform="translate(806.445312 0)"/>
     </g>
    </g>
   </g>
   <g id="line2d_21">
    <path d="M 527.283409 238.193182 
L 529.822638 224.57297 
L 532.361866 214.118377 
L 534.901094 205.520904 
L 537.440323 198.042125 
L 539.979551 191.264704 
L 542.51878 184.95216 
L 545.058008 178.969893 
L 547.597236 173.240702 
L 550.136465 167.719748 
L 552.675693 162.38043 
L 555.214922 157.206447 
L 557.75415 152.187333 
L 560.293379 147.315911 
L 562.832607 142.586898 
L 565.371835 137.996103 
L 567.911064 133.539958 
L 570.450292 129.215261 
L 572.989521 125.019079 
L 575.528749 120.9486 
L 578.067977 117.001141 
L 580.607206 113.174093 
L 583.146434 109.464911 
L 585.685663 105.871116 
L 588.224891 102.390268 
L 590.76412 99.019992 
L 593.303348 95.757938 
L 595.842576 92.601827 
L 598.381805 89.549396 
L 600.921033 86.59845 
L 603.460262 83.746812 
L 605.99949 80.992366 
L 608.538718 78.333022 
L 611.077947 75.766734 
L 613.617175 73.291501 
L 616.156404 70.905342 
L 618.695632 68.606342 
L 621.234861 66.392584 
L 623.774089 64.262229 
L 626.313317 62.213435 
L 628.852546 60.244422 
L 631.391774 58.353435 
L 633.931003 56.53874 
L 636.470231 54.798665 
L 639.00946 53.131531 
L 641.548688 51.535729 
L 644.087916 50.009657 
L 646.627145 48.551744 
L 649.166373 47.160474 
L 651.705602 45.834316 
L 654.24483 44.571811 
L 656.784058 43.371513 
L 659.323287 42.231982 
L 661.862515 41.151849 
L 664.401744 40.129732 
L 666.940972 39.16429 
L 669.480201 38.254227 
L 672.019429 37.398229 
L 674.558657 36.595048 
L 677.097886 35.843452 
L 679.637114 35.142201 
L 682.176343 34.490125 
L 684.715571 33.886056 
L 687.254799 33.328828 
L 689.794028 32.817339 
L 692.333256 32.350486 
L 694.872485 31.92717 
L 697.411713 31.546354 
L 699.950942 31.207 
L 702.49017 30.908068 
L 705.029398 30.648584 
L 707.568627 30.427571 
L 710.107855 30.244048 
L 712.647084 30.097096 
L 715.186312 29.985799 
L 717.72554 29.90923 
L 720.264769 29.866522 
L 722.803997 29.856818 
L 725.343226 29.879244 
L 727.882454 29.932977 
L 730.421683 30.017218 
L 732.960911 30.131147 
L 735.500139 30.27398 
L 738.039368 30.444966 
L 740.578596 30.643349 
L 743.117825 30.868372 
L 745.657053 31.119334 
L 748.196282 31.395534 
L 750.73551 31.696253 
L 753.274738 32.020825 
L 755.813967 32.368597 
L 758.353195 32.738907 
L 760.892424 33.131105 
L 763.431652 33.544584 
L 765.97088 33.978737 
L 768.510109 34.432942 
L 771.049337 34.90662 
L 773.588566 35.39921 
L 776.127794 35.910144 
L 778.667023 36.438851 
L 781.206251 36.984809 
L 783.745479 37.547499 
L 786.284708 38.126387 
L 788.823936 38.72096 
L 791.363165 39.33074 
L 793.902393 39.955245 
L 796.441621 40.59398 
L 798.98085 41.246483 
L 801.520078 41.912313 
L 804.059307 42.591027 
L 806.598535 43.282166 
L 809.137764 43.985313 
L 811.676992 44.700062 
L 814.21622 45.426006 
L 816.755449 46.162722 
L 819.294677 46.90983 
L 821.833906 47.666959 
L 824.373134 48.433736 
L 826.912362 49.209785 
L 829.451591 49.99475 
" clip-path="url(#p8dfddb5c79)" style="fill: none; stroke: #000000; stroke-width: 2.25; stroke-linecap: square"/>
   </g>
   <g id="line2d_22">
    <g clip-path="url(#p8dfddb5c79)">
     <use xlink:href="#m5f2fac6527" x="602.825455" y="163.061654" style="stroke: #000000"/>
     <use xlink:href="#m5f2fac6527" x="602.825455" y="129.924763" style="stroke: #000000"/>
     <use xlink:href="#m5f2fac6527" x="602.825455" y="96.660422" style="stroke: #000000"/>
     <use xlink:href="#m5f2fac6527" x="602.825455" y="96.341798" style="stroke: #000000"/>
     <use xlink:href="#m5f2fac6527" x="602.825455" y="113.101418" style="stroke: #000000"/>
     <use xlink:href="#m5f2fac6527" x="678.3675" y="150.061797" style="stroke: #000000"/>
     <use xlink:href="#m5f2fac6527" x="678.3675" y="161.404809" style="stroke: #000000"/>
     <use xlink:href="#m5f2fac6527" x="678.3675" y="150.50787" style="stroke: #000000"/>
     <use xlink:href="#m5f2fac6527" x="678.3675" y="139.674656" style="stroke: #000000"/>
     <use xlink:href="#m5f2fac6527" x="678.3675" y="122.787586" style="stroke: #000000"/>
     <use xlink:href="#m5f2fac6527" x="678.3675" y="105.964242" style="stroke: #000000"/>
     <use xlink:href="#m5f2fac6527" x="829.451591" y="182.115366" style="stroke: #000000"/>
     <use xlink:href="#m5f2fac6527" x="829.451591" y="165.67437" style="stroke: #000000"/>
     <use xlink:href="#m5f2fac6527" x="829.451591" y="165.228297" style="stroke: #000000"/>
     <use xlink:href="#m5f2fac6527" x="829.451591" y="137.635462" style="stroke: #000000"/>
     <use xlink:href="#m5f2fac6527" x="829.451591" y="104.498571" style="stroke: #000000"/>
     <use xlink:href="#m5f2fac6527" x="829.451591" y="137.890362" style="stroke: #000000"/>
    </g>
   </g>
   <g id="patch_8">
    <path d="M 512.175 248.61 
L 512.175 19.44 
" style="fill: none; stroke: #000000; stroke-width: 1.875; stroke-linejoin: miter; stroke-linecap: square"/>
   </g>
   <g id="patch_9">
    <path d="M 844.56 248.61 
L 844.56 19.44 
" style="fill: none; stroke: #000000; stroke-width: 1.875; stroke-linejoin: miter; stroke-linecap: square"/>
   </g>
   <g id="patch_10">
    <path d="M 512.175 248.61 
L 844.56 248.61 
" style="fill: none; stroke: #000000; stroke-width: 1.875; stroke-linejoin: miter; stroke-linecap: square"/>
   </g>
   <g id="patch_11">
    <path d="M 512.175 19.44 
L 844.56 19.44 
" style="fill: none; stroke: #000000; stroke-width: 1.875; stroke-linejoin: miter; stroke-linecap: square"/>
   </g>
  </g>
  <g id="axes_3">
   <g id="patch_12">
    <path d="M 95.07 506.22 
L 427.455 506.22 
L 427.455 277.05 
L 95.07 277.05 
z
" style="fill: #ffffff"/>
   </g>
   <g id="matplotlib.axis_5">
    <g id="xtick_9">
     <g id="line2d_23">
      <g>
       <use xlink:href="#m0101b49622" x="110.178409" y="506.22" style="stroke: #000000; stroke-width: 1.875"/>
      </g>
     </g>
     <g id="text_13">
      <!-- 0 -->
      <g transform="translate(104.929347 531.257422) scale(0.165 -0.165)">
       <use xlink:href="#DejaVuSans-30"/>
      </g>
     </g>
    </g>
    <g id="xtick_10">
     <g id="line2d_24">
      <g>
       <use xlink:href="#m0101b49622" x="210.901136" y="506.22" style="stroke: #000000; stroke-width: 1.875"/>
      </g>
     </g>
     <g id="text_14">
      <!-- 20 -->
      <g transform="translate(200.403011 531.257422) scale(0.165 -0.165)">
       <use xlink:href="#DejaVuSans-32"/>
       <use xlink:href="#DejaVuSans-30" transform="translate(63.623047 0)"/>
      </g>
     </g>
    </g>
    <g id="xtick_11">
     <g id="line2d_25">
      <g>
       <use xlink:href="#m0101b49622" x="311.623864" y="506.22" style="stroke: #000000; stroke-width: 1.875"/>
      </g>
     </g>
     <g id="text_15">
      <!-- 40 -->
      <g transform="translate(301.125739 531.257422) scale(0.165 -0.165)">
       <use xlink:href="#DejaVuSans-34"/>
       <use xlink:href="#DejaVuSans-30" transform="translate(63.623047 0)"/>
      </g>
     </g>
    </g>
    <g id="xtick_12">
     <g id="line2d_26">
      <g>
       <use xlink:href="#m0101b49622" x="412.346591" y="506.22" style="stroke: #000000; stroke-width: 1.875"/>
      </g>
     </g>
     <g id="text_16">
      <!-- 60 -->
      <g transform="translate(401.848466 531.257422) scale(0.165 -0.165)">
       <use xlink:href="#DejaVuSans-36"/>
       <use xlink:href="#DejaVuSans-30" transform="translate(63.623047 0)"/>
      </g>
     </g>
    </g>
    <g id="text_17">
     <!-- Time (min) -->
     <g transform="translate(212.388281 552.366094) scale(0.18 -0.18)">
      <defs>
       <path id="DejaVuSans-54" d="M -19 4666 
L 3928 4666 
L 3928 4134 
L 2272 4134 
L 2272 0 
L 1638 0 
L 1638 4134 
L -19 4134 
L -19 4666 
z
" transform="scale(0.015625)"/>
       <path id="DejaVuSans-69" d="M 603 3500 
L 1178 3500 
L 1178 0 
L 603 0 
L 603 3500 
z
M 603 4863 
L 1178 4863 
L 1178 4134 
L 603 4134 
L 603 4863 
z
" transform="scale(0.015625)"/>
       <path id="DejaVuSans-65" d="M 3597 1894 
L 3597 1613 
L 953 1613 
Q 991 1019 1311 708 
Q 1631 397 2203 397 
Q 2534 397 2845 478 
Q 3156 559 3463 722 
L 3463 178 
Q 3153 47 2828 -22 
Q 2503 -91 2169 -91 
Q 1331 -91 842 396 
Q 353 884 353 1716 
Q 353 2575 817 3079 
Q 1281 3584 2069 3584 
Q 2775 3584 3186 3129 
Q 3597 2675 3597 1894 
z
M 3022 2063 
Q 3016 2534 2758 2815 
Q 2500 3097 2075 3097 
Q 1594 3097 1305 2825 
Q 1016 2553 972 2059 
L 3022 2063 
z
" transform="scale(0.015625)"/>
      </defs>
      <use xlink:href="#DejaVuSans-54"/>
      <use xlink:href="#DejaVuSans-69" transform="translate(57.958984 0)"/>
      <use xlink:href="#DejaVuSans-6d" transform="translate(85.742188 0)"/>
      <use xlink:href="#DejaVuSans-65" transform="translate(183.154297 0)"/>
      <use xlink:href="#DejaVuSans-20" transform="translate(244.677734 0)"/>
      <use xlink:href="#DejaVuSans-28" transform="translate(276.464844 0)"/>
      <use xlink:href="#DejaVuSans-6d" transform="translate(315.478516 0)"/>
      <use xlink:href="#DejaVuSans-69" transform="translate(412.890625 0)"/>
      <use xlink:href="#DejaVuSans-6e" transform="translate(440.673828 0)"/>
      <use xlink:href="#DejaVuSans-29" transform="translate(504.052734 0)"/>
     </g>
    </g>
   </g>
   <g id="matplotlib.axis_6">
    <g id="ytick_11">
     <g id="line2d_27">
      <g>
       <use xlink:href="#mb5b140de44" x="95.07" y="495.803182" style="stroke: #000000; stroke-width: 1.875"/>
      </g>
     </g>
     <g id="text_18">
      <!-- 0 -->
      <g transform="translate(72.071875 502.071893) scale(0.165 -0.165)">
       <use xlink:href="#DejaVuSans-30"/>
      </g>
     </g>
    </g>
    <g id="ytick_12">
     <g id="line2d_28">
      <g>
       <use xlink:href="#mb5b140de44" x="95.07" y="450.113724" style="stroke: #000000; stroke-width: 1.875"/>
      </g>
     </g>
     <g id="text_19">
      <!-- 10 -->
      <g transform="translate(61.57375 456.382435) scale(0.165 -0.165)">
       <use xlink:href="#DejaVuSans-31"/>
       <use xlink:href="#DejaVuSans-30" transform="translate(63.623047 0)"/>
      </g>
     </g>
    </g>
    <g id="ytick_13">
     <g id="line2d_29">
      <g>
       <use xlink:href="#mb5b140de44" x="95.07" y="404.424267" style="stroke: #000000; stroke-width: 1.875"/>
      </g>
     </g>
     <g id="text_20">
      <!-- 20 -->
      <g transform="translate(61.57375 410.692978) scale(0.165 -0.165)">
       <use xlink:href="#DejaVuSans-32"/>
       <use xlink:href="#DejaVuSans-30" transform="translate(63.623047 0)"/>
      </g>
     </g>
    </g>
    <g id="ytick_14">
     <g id="line2d_30">
      <g>
       <use xlink:href="#mb5b140de44" x="95.07" y="358.73481" style="stroke: #000000; stroke-width: 1.875"/>
      </g>
     </g>
     <g id="text_21">
      <!-- 30 -->
      <g transform="translate(61.57375 365.003521) scale(0.165 -0.165)">
       <defs>
        <path id="DejaVuSans-33" d="M 2597 2516 
Q 3050 2419 3304 2112 
Q 3559 1806 3559 1356 
Q 3559 666 3084 287 
Q 2609 -91 1734 -91 
Q 1441 -91 1130 -33 
Q 819 25 488 141 
L 488 750 
Q 750 597 1062 519 
Q 1375 441 1716 441 
Q 2309 441 2620 675 
Q 2931 909 2931 1356 
Q 2931 1769 2642 2001 
Q 2353 2234 1838 2234 
L 1294 2234 
L 1294 2753 
L 1863 2753 
Q 2328 2753 2575 2939 
Q 2822 3125 2822 3475 
Q 2822 3834 2567 4026 
Q 2313 4219 1838 4219 
Q 1578 4219 1281 4162 
Q 984 4106 628 3988 
L 628 4550 
Q 988 4650 1302 4700 
Q 1616 4750 1894 4750 
Q 2613 4750 3031 4423 
Q 3450 4097 3450 3541 
Q 3450 3153 3228 2886 
Q 3006 2619 2597 2516 
z
" transform="scale(0.015625)"/>
       </defs>
       <use xlink:href="#DejaVuSans-33"/>
       <use xlink:href="#DejaVuSans-30" transform="translate(63.623047 0)"/>
      </g>
     </g>
    </g>
    <g id="ytick_15">
     <g id="line2d_31">
      <g>
       <use xlink:href="#mb5b140de44" x="95.07" y="313.045352" style="stroke: #000000; stroke-width: 1.875"/>
      </g>
     </g>
     <g id="text_22">
      <!-- 40 -->
      <g transform="translate(61.57375 319.314063) scale(0.165 -0.165)">
       <use xlink:href="#DejaVuSans-34"/>
       <use xlink:href="#DejaVuSans-30" transform="translate(63.623047 0)"/>
      </g>
     </g>
    </g>
    <g id="text_23">
     <!-- Brain CNO (nM) -->
     <g transform="translate(53.830313 461.543906) rotate(-90) scale(0.18 -0.18)">
      <defs>
       <path id="DejaVuSans-42" d="M 1259 2228 
L 1259 519 
L 2272 519 
Q 2781 519 3026 730 
Q 3272 941 3272 1375 
Q 3272 1813 3026 2020 
Q 2781 2228 2272 2228 
L 1259 2228 
z
M 1259 4147 
L 1259 2741 
L 2194 2741 
Q 2656 2741 2882 2914 
Q 3109 3088 3109 3444 
Q 3109 3797 2882 3972 
Q 2656 4147 2194 4147 
L 1259 4147 
z
M 628 4666 
L 2241 4666 
Q 2963 4666 3353 4366 
Q 3744 4066 3744 3513 
Q 3744 3084 3544 2831 
Q 3344 2578 2956 2516 
Q 3422 2416 3680 2098 
Q 3938 1781 3938 1306 
Q 3938 681 3513 340 
Q 3088 0 2303 0 
L 628 0 
L 628 4666 
z
" transform="scale(0.015625)"/>
       <path id="DejaVuSans-72" d="M 2631 2963 
Q 2534 3019 2420 3045 
Q 2306 3072 2169 3072 
Q 1681 3072 1420 2755 
Q 1159 2438 1159 1844 
L 1159 0 
L 581 0 
L 581 3500 
L 1159 3500 
L 1159 2956 
Q 1341 3275 1631 3429 
Q 1922 3584 2338 3584 
Q 2397 3584 2469 3576 
Q 2541 3569 2628 3553 
L 2631 2963 
z
" transform="scale(0.015625)"/>
      </defs>
      <use xlink:href="#DejaVuSans-42"/>
      <use xlink:href="#DejaVuSans-72" transform="translate(68.603516 0)"/>
      <use xlink:href="#DejaVuSans-61" transform="translate(109.716797 0)"/>
      <use xlink:href="#DejaVuSans-69" transform="translate(170.996094 0)"/>
      <use xlink:href="#DejaVuSans-6e" transform="translate(198.779297 0)"/>
      <use xlink:href="#DejaVuSans-20" transform="translate(262.158203 0)"/>
      <use xlink:href="#DejaVuSans-43" transform="translate(293.945312 0)"/>
      <use xlink:href="#DejaVuSans-4e" transform="translate(363.769531 0)"/>
      <use xlink:href="#DejaVuSans-4f" transform="translate(438.574219 0)"/>
      <use xlink:href="#DejaVuSans-20" transform="translate(517.285156 0)"/>
      <use xlink:href="#DejaVuSans-28" transform="translate(549.072266 0)"/>
      <use xlink:href="#DejaVuSans-6e" transform="translate(588.085938 0)"/>
      <use xlink:href="#DejaVuSans-4d" transform="translate(651.464844 0)"/>
      <use xlink:href="#DejaVuSans-29" transform="translate(737.744141 0)"/>
     </g>
    </g>
   </g>
   <g id="line2d_32">
    <path d="M 110.178409 495.803182 
L 112.717638 398.214758 
L 115.256866 344.294563 
L 117.796094 314.956931 
L 120.335323 299.452614 
L 122.874551 291.727612 
L 125.41378 288.372405 
L 127.953008 287.466818 
L 130.492236 287.929494 
L 133.031465 289.151615 
L 135.570693 290.790396 
L 138.109922 292.65285 
L 140.64915 294.630564 
L 143.188379 296.662443 
L 145.727607 298.714298 
L 148.266835 300.767099 
L 150.806064 302.810147 
L 153.345292 304.837442 
L 155.884521 306.845979 
L 158.423749 308.833955 
L 160.962977 310.800619 
L 163.502206 312.745611 
L 166.041434 314.668874 
L 168.580663 316.570492 
L 171.119891 318.450629 
L 173.65912 320.309496 
L 176.198348 322.147326 
L 178.737576 323.964361 
L 181.276805 325.760851 
L 183.816033 327.537044 
L 186.355262 329.29319 
L 188.89449 331.029535 
L 191.433718 332.746322 
L 193.972947 334.443794 
L 196.512175 336.122187 
L 199.051404 337.781738 
L 201.590632 339.422677 
L 204.129861 341.045234 
L 206.669089 342.649633 
L 209.208317 344.236099 
L 211.747546 345.804851 
L 214.286774 347.356104 
L 216.826003 348.890074 
L 219.365231 350.40697 
L 221.90446 351.907002 
L 224.443688 353.390374 
L 226.982916 354.85729 
L 229.522145 356.307948 
L 232.061373 357.742546 
L 234.600602 359.16128 
L 237.13983 360.56434 
L 239.679058 361.951916 
L 242.218287 363.324196 
L 244.757515 364.681362 
L 247.296744 366.023599 
L 249.835972 367.351085 
L 252.375201 368.663996 
L 254.914429 369.96251 
L 257.453657 371.246798 
L 259.992886 372.517029 
L 262.532114 373.773373 
L 265.071343 375.015995 
L 267.610571 376.245058 
L 270.149799 377.460726 
L 272.689028 378.663155 
L 275.228256 379.852504 
L 277.767485 381.02893 
L 280.306713 382.192584 
L 282.845942 383.343617 
L 285.38517 384.48218 
L 287.924398 385.608419 
L 290.463627 386.72248 
L 293.002855 387.824507 
L 295.542084 388.914641 
L 298.081312 389.993021 
L 300.62054 391.059787 
L 303.159769 392.115075 
L 305.698997 393.159016 
L 308.238226 394.191748 
L 310.777454 395.2134 
L 313.316683 396.224099 
L 315.855911 397.223976 
L 318.395139 398.213156 
L 320.934368 399.191763 
L 323.473596 400.159919 
L 326.012825 401.117748 
L 328.552053 402.065368 
L 331.091282 403.002896 
L 333.63051 403.930452 
L 336.169738 404.848149 
L 338.708967 405.7561 
L 341.248195 406.654419 
L 343.787424 407.543218 
L 346.326652 408.422604 
L 348.86588 409.292685 
L 351.405109 410.15357 
L 353.944337 411.005363 
L 356.483566 411.848168 
L 359.022794 412.682088 
L 361.562023 413.507226 
L 364.101251 414.32368 
L 366.640479 415.131549 
L 369.179708 415.930932 
L 371.718936 416.721927 
L 374.258165 417.504626 
L 376.797393 418.279123 
L 379.336621 419.045513 
L 381.87585 419.803889 
L 384.415078 420.554339 
L 386.954307 421.296952 
L 389.493535 422.031819 
L 392.032764 422.759026 
L 394.571992 423.478659 
L 397.11122 424.190803 
L 399.650449 424.895543 
L 402.189677 425.592963 
L 404.728906 426.283142 
L 407.268134 426.966162 
L 409.807362 427.642104 
L 412.346591 428.311047 
" clip-path="url(#pd1b178b035)" style="fill: none; stroke: #000000; stroke-width: 2.25; stroke-linecap: square"/>
   </g>
   <g id="line2d_33">
    <g clip-path="url(#pd1b178b035)">
     <use xlink:href="#m5f2fac6527" x="185.720455" y="402.882089" style="stroke: #000000"/>
     <use xlink:href="#m5f2fac6527" x="185.720455" y="403.069493" style="stroke: #000000"/>
     <use xlink:href="#m5f2fac6527" x="185.720455" y="392.348429" style="stroke: #000000"/>
     <use xlink:href="#m5f2fac6527" x="185.720455" y="369.258709" style="stroke: #000000"/>
     <use xlink:href="#m5f2fac6527" x="185.720455" y="371.507556" style="stroke: #000000"/>
     <use xlink:href="#m5f2fac6527" x="261.2625" y="431.820372" style="stroke: #000000"/>
     <use xlink:href="#m5f2fac6527" x="261.2625" y="431.992159" style="stroke: #000000"/>
     <use xlink:href="#m5f2fac6527" x="261.2625" y="418.850462" style="stroke: #000000"/>
     <use xlink:href="#m5f2fac6527" x="261.2625" y="404.154874" style="stroke: #000000"/>
     <use xlink:href="#m5f2fac6527" x="261.2625" y="358.162838" style="stroke: #000000"/>
    </g>
   </g>
   <g id="patch_13">
    <path d="M 95.07 506.22 
L 95.07 277.05 
" style="fill: none; stroke: #000000; stroke-width: 1.875; stroke-linejoin: miter; stroke-linecap: square"/>
   </g>
   <g id="patch_14">
    <path d="M 427.455 506.22 
L 427.455 277.05 
" style="fill: none; stroke: #000000; stroke-width: 1.875; stroke-linejoin: miter; stroke-linecap: square"/>
   </g>
   <g id="patch_15">
    <path d="M 95.07 506.22 
L 427.455 506.22 
" style="fill: none; stroke: #000000; stroke-width: 1.875; stroke-linejoin: miter; stroke-linecap: square"/>
   </g>
   <g id="patch_16">
    <path d="M 95.07 277.05 
L 427.455 277.05 
" style="fill: none; stroke: #000000; stroke-width: 1.875; stroke-linejoin: miter; stroke-linecap: square"/>
   </g>
  </g>
  <g id="axes_4">
   <g id="patch_17">
    <path d="M 512.175 506.22 
L 844.56 506.22 
L 844.56 277.05 
L 512.175 277.05 
z
" style="fill: #ffffff"/>
   </g>
   <g id="matplotlib.axis_7">
    <g id="xtick_13">
     <g id="line2d_34">
      <g>
       <use xlink:href="#m0101b49622" x="527.283409" y="506.22" style="stroke: #000000; stroke-width: 1.875"/>
      </g>
     </g>
     <g id="text_24">
      <!-- 0 -->
      <g transform="translate(522.034347 531.257422) scale(0.165 -0.165)">
       <use xlink:href="#DejaVuSans-30"/>
      </g>
     </g>
    </g>
    <g id="xtick_14">
     <g id="line2d_35">
      <g>
       <use xlink:href="#m0101b49622" x="628.006136" y="506.22" style="stroke: #000000; stroke-width: 1.875"/>
      </g>
     </g>
     <g id="text_25">
      <!-- 20 -->
      <g transform="translate(617.508011 531.257422) scale(0.165 -0.165)">
       <use xlink:href="#DejaVuSans-32"/>
       <use xlink:href="#DejaVuSans-30" transform="translate(63.623047 0)"/>
      </g>
     </g>
    </g>
    <g id="xtick_15">
     <g id="line2d_36">
      <g>
       <use xlink:href="#m0101b49622" x="728.728864" y="506.22" style="stroke: #000000; stroke-width: 1.875"/>
      </g>
     </g>
     <g id="text_26">
      <!-- 40 -->
      <g transform="translate(718.230739 531.257422) scale(0.165 -0.165)">
       <use xlink:href="#DejaVuSans-34"/>
       <use xlink:href="#DejaVuSans-30" transform="translate(63.623047 0)"/>
      </g>
     </g>
    </g>
    <g id="xtick_16">
     <g id="line2d_37">
      <g>
       <use xlink:href="#m0101b49622" x="829.451591" y="506.22" style="stroke: #000000; stroke-width: 1.875"/>
      </g>
     </g>
     <g id="text_27">
      <!-- 60 -->
      <g transform="translate(818.953466 531.257422) scale(0.165 -0.165)">
       <use xlink:href="#DejaVuSans-36"/>
       <use xlink:href="#DejaVuSans-30" transform="translate(63.623047 0)"/>
      </g>
     </g>
    </g>
    <g id="text_28">
     <!-- Time (min) -->
     <g transform="translate(629.493281 552.366094) scale(0.18 -0.18)">
      <use xlink:href="#DejaVuSans-54"/>
      <use xlink:href="#DejaVuSans-69" transform="translate(57.958984 0)"/>
      <use xlink:href="#DejaVuSans-6d" transform="translate(85.742188 0)"/>
      <use xlink:href="#DejaVuSans-65" transform="translate(183.154297 0)"/>
      <use xlink:href="#DejaVuSans-20" transform="translate(244.677734 0)"/>
      <use xlink:href="#DejaVuSans-28" transform="translate(276.464844 0)"/>
      <use xlink:href="#DejaVuSans-6d" transform="translate(315.478516 0)"/>
      <use xlink:href="#DejaVuSans-69" transform="translate(412.890625 0)"/>
      <use xlink:href="#DejaVuSans-6e" transform="translate(440.673828 0)"/>
      <use xlink:href="#DejaVuSans-29" transform="translate(504.052734 0)"/>
     </g>
    </g>
   </g>
   <g id="matplotlib.axis_8">
    <g id="ytick_16">
     <g id="line2d_38">
      <g>
       <use xlink:href="#mb5b140de44" x="512.175" y="495.803182" style="stroke: #000000; stroke-width: 1.875"/>
      </g>
     </g>
     <g id="text_29">
      <!-- 0 -->
      <g transform="translate(489.176875 502.071893) scale(0.165 -0.165)">
       <use xlink:href="#DejaVuSans-30"/>
      </g>
     </g>
    </g>
    <g id="ytick_17">
     <g id="line2d_39">
      <g>
       <use xlink:href="#mb5b140de44" x="512.175" y="435.046961" style="stroke: #000000; stroke-width: 1.875"/>
      </g>
     </g>
     <g id="text_30">
      <!-- 200 -->
      <g transform="translate(468.180625 441.315672) scale(0.165 -0.165)">
       <use xlink:href="#DejaVuSans-32"/>
       <use xlink:href="#DejaVuSans-30" transform="translate(63.623047 0)"/>
       <use xlink:href="#DejaVuSans-30" transform="translate(127.246094 0)"/>
      </g>
     </g>
    </g>
    <g id="ytick_18">
     <g id="line2d_40">
      <g>
       <use xlink:href="#mb5b140de44" x="512.175" y="374.290741" style="stroke: #000000; stroke-width: 1.875"/>
      </g>
     </g>
     <g id="text_31">
      <!-- 400 -->
      <g transform="translate(468.180625 380.559452) scale(0.165 -0.165)">
       <use xlink:href="#DejaVuSans-34"/>
       <use xlink:href="#DejaVuSans-30" transform="translate(63.623047 0)"/>
       <use xlink:href="#DejaVuSans-30" transform="translate(127.246094 0)"/>
      </g>
     </g>
    </g>
    <g id="ytick_19">
     <g id="line2d_41">
      <g>
       <use xlink:href="#mb5b140de44" x="512.175" y="313.534521" style="stroke: #000000; stroke-width: 1.875"/>
      </g>
     </g>
     <g id="text_32">
      <!-- 600 -->
      <g transform="translate(468.180625 319.803232) scale(0.165 -0.165)">
       <use xlink:href="#DejaVuSans-36"/>
       <use xlink:href="#DejaVuSans-30" transform="translate(63.623047 0)"/>
       <use xlink:href="#DejaVuSans-30" transform="translate(127.246094 0)"/>
      </g>
     </g>
    </g>
    <g id="text_33">
     <!-- Brain CLZ (nM) -->
     <g transform="translate(460.437187 458.905781) rotate(-90) scale(0.18 -0.18)">
      <use xlink:href="#DejaVuSans-42"/>
      <use xlink:href="#DejaVuSans-72" transform="translate(68.603516 0)"/>
      <use xlink:href="#DejaVuSans-61" transform="translate(109.716797 0)"/>
      <use xlink:href="#DejaVuSans-69" transform="translate(170.996094 0)"/>
      <use xlink:href="#DejaVuSans-6e" transform="translate(198.779297 0)"/>
      <use xlink:href="#DejaVuSans-20" transform="translate(262.158203 0)"/>
      <use xlink:href="#DejaVuSans-43" transform="translate(293.945312 0)"/>
      <use xlink:href="#DejaVuSans-4c" transform="translate(363.769531 0)"/>
      <use xlink:href="#DejaVuSans-5a" transform="translate(419.482422 0)"/>
      <use xlink:href="#DejaVuSans-20" transform="translate(487.988281 0)"/>
      <use xlink:href="#DejaVuSans-28" transform="translate(519.775391 0)"/>
      <use xlink:href="#DejaVuSans-6e" transform="translate(558.789062 0)"/>
      <use xlink:href="#DejaVuSans-4d" transform="translate(622.167969 0)"/>
      <use xlink:href="#DejaVuSans-29" transform="translate(708.447266 0)"/>
     </g>
    </g>
   </g>
   <g id="line2d_42">
    <path d="M 527.283409 495.803182 
L 529.822638 494.38278 
L 532.361866 491.035971 
L 534.901094 486.670556 
L 537.440323 481.796454 
L 539.979551 476.699532 
L 542.51878 471.539499 
L 545.058008 466.405042 
L 547.597236 461.344873 
L 550.136465 456.385208 
L 552.675693 451.539624 
L 555.214922 446.814602 
L 557.75415 442.212636 
L 560.293379 437.734015 
L 562.832607 433.377792 
L 565.371835 429.142346 
L 567.911064 425.025703 
L 570.450292 421.025711 
L 572.989521 417.140126 
L 575.528749 413.366682 
L 578.067977 409.703115 
L 580.607206 406.14718 
L 583.146434 402.696657 
L 585.685663 399.349371 
L 588.224891 396.103169 
L 590.76412 392.955952 
L 593.303348 389.90564 
L 595.842576 386.950214 
L 598.381805 384.087666 
L 600.921033 381.316053 
L 603.460262 378.633442 
L 605.99949 376.037956 
L 608.538718 373.527743 
L 611.077947 371.100986 
L 613.617175 368.75591 
L 616.156404 366.490758 
L 618.695632 364.303828 
L 621.234861 362.193422 
L 623.774089 360.157906 
L 626.313317 358.195644 
L 628.852546 356.305059 
L 631.391774 354.48459 
L 633.931003 352.732698 
L 636.470231 351.047899 
L 639.00946 349.428702 
L 641.548688 347.873677 
L 644.087916 346.381403 
L 646.627145 344.950483 
L 649.166373 343.57957 
L 651.705602 342.267306 
L 654.24483 341.012392 
L 656.784058 339.813544 
L 659.323287 338.669484 
L 661.862515 337.578993 
L 664.401744 336.540844 
L 666.940972 335.553844 
L 669.480201 334.616842 
L 672.019429 333.728669 
L 674.558657 332.888215 
L 677.097886 332.094384 
L 679.637114 331.346075 
L 682.176343 330.642245 
L 684.715571 329.981856 
L 687.254799 329.363871 
L 689.794028 328.787309 
L 692.333256 328.251189 
L 694.872485 327.754532 
L 697.411713 327.296416 
L 699.950942 326.875915 
L 702.49017 326.492106 
L 705.029398 326.14412 
L 707.568627 325.831087 
L 710.107855 325.552133 
L 712.647084 325.306441 
L 715.186312 325.093193 
L 717.72554 324.911564 
L 720.264769 324.760781 
L 722.803997 324.640081 
L 725.343226 324.548684 
L 727.882454 324.485859 
L 730.421683 324.450889 
L 732.960911 324.443047 
L 735.500139 324.461631 
L 738.039368 324.505973 
L 740.578596 324.575397 
L 743.117825 324.669229 
L 745.657053 324.786843 
L 748.196282 324.927613 
L 750.73551 325.090898 
L 753.274738 325.276101 
L 755.813967 325.482642 
L 758.353195 325.709929 
L 760.892424 325.95738 
L 763.431652 326.224455 
L 765.97088 326.51061 
L 768.510109 326.815288 
L 771.049337 327.137974 
L 773.588566 327.478166 
L 776.127794 327.835354 
L 778.667023 328.20903 
L 781.206251 328.598726 
L 783.745479 329.003977 
L 786.284708 329.424306 
L 788.823936 329.859253 
L 791.363165 330.308391 
L 793.902393 330.771289 
L 796.441621 331.247502 
L 798.98085 331.736617 
L 801.520078 332.238239 
L 804.059307 332.751971 
L 806.598535 333.277402 
L 809.137764 333.814157 
L 811.676992 334.361873 
L 814.21622 334.920183 
L 816.755449 335.488711 
L 819.294677 336.067114 
L 821.833906 336.655058 
L 824.373134 337.252209 
L 826.912362 337.85823 
L 829.451591 338.4728 
" clip-path="url(#pf871a75e67)" style="fill: none; stroke: #000000; stroke-width: 2.25; stroke-linecap: square"/>
   </g>
   <g id="line2d_43">
    <g clip-path="url(#pf871a75e67)">
     <use xlink:href="#m5f2fac6527" x="602.825455" y="364.438381" style="stroke: #000000"/>
     <use xlink:href="#m5f2fac6527" x="602.825455" y="342.886343" style="stroke: #000000"/>
     <use xlink:href="#m5f2fac6527" x="602.825455" y="330.570893" style="stroke: #000000"/>
     <use xlink:href="#m5f2fac6527" x="602.825455" y="312.097718" style="stroke: #000000"/>
     <use xlink:href="#m5f2fac6527" x="602.825455" y="287.466818" style="stroke: #000000"/>
     <use xlink:href="#m5f2fac6527" x="678.3675" y="413.700181" style="stroke: #000000"/>
     <use xlink:href="#m5f2fac6527" x="678.3675" y="364.438381" style="stroke: #000000"/>
     <use xlink:href="#m5f2fac6527" x="678.3675" y="370.596106" style="stroke: #000000"/>
     <use xlink:href="#m5f2fac6527" x="678.3675" y="349.044069" style="stroke: #000000"/>
     <use xlink:href="#m5f2fac6527" x="678.3675" y="327.492031" style="stroke: #000000"/>
     <use xlink:href="#m5f2fac6527" x="678.3675" y="293.624543" style="stroke: #000000"/>
     <use xlink:href="#m5f2fac6527" x="829.451591" y="358.280656" style="stroke: #000000"/>
     <use xlink:href="#m5f2fac6527" x="829.451591" y="342.886343" style="stroke: #000000"/>
     <use xlink:href="#m5f2fac6527" x="829.451591" y="336.728618" style="stroke: #000000"/>
     <use xlink:href="#m5f2fac6527" x="829.451591" y="336.728618" style="stroke: #000000"/>
     <use xlink:href="#m5f2fac6527" x="829.451591" y="330.570893" style="stroke: #000000"/>
     <use xlink:href="#m5f2fac6527" x="829.451591" y="293.624543" style="stroke: #000000"/>
    </g>
   </g>
   <g id="patch_18">
    <path d="M 512.175 506.22 
L 512.175 277.05 
" style="fill: none; stroke: #000000; stroke-width: 1.875; stroke-linejoin: miter; stroke-linecap: square"/>
   </g>
   <g id="patch_19">
    <path d="M 844.56 506.22 
L 844.56 277.05 
" style="fill: none; stroke: #000000; stroke-width: 1.875; stroke-linejoin: miter; stroke-linecap: square"/>
   </g>
   <g id="patch_20">
    <path d="M 512.175 506.22 
L 844.56 506.22 
" style="fill: none; stroke: #000000; stroke-width: 1.875; stroke-linejoin: miter; stroke-linecap: square"/>
   </g>
   <g id="patch_21">
    <path d="M 512.175 277.05 
L 844.56 277.05 
" style="fill: none; stroke: #000000; stroke-width: 1.875; stroke-linejoin: miter; stroke-linecap: square"/>
   </g>
  </g>
 </g>
 <defs>
  <clipPath id="pb9dbb20761">
   <rect x="95.07" y="19.44" width="332.385" height="229.17"/>
  </clipPath>
  <clipPath id="p8dfddb5c79">
   <rect x="512.175" y="19.44" width="332.385" height="229.17"/>
  </clipPath>
  <clipPath id="pd1b178b035">
   <rect x="95.07" y="277.05" width="332.385" height="229.17"/>
  </clipPath>
  <clipPath id="pf871a75e67">
   <rect x="512.175" y="277.05" width="332.385" height="229.17"/>
  </clipPath>
 </defs>
</svg>
